<?xml version="1.0" encoding="UTF-8"?>
<svg width="84px" height="62px" viewBox="0 0 84 62" version="1.1" xmlns="http://www.w3.org/2000/svg" xmlns:xlink="http://www.w3.org/1999/xlink">
    <!-- Generator: sketchtool 62 (101010) - https://sketch.com -->
    <title>E2946C5C-C8F7-46B9-A2F9-6BD1C1E997CF</title>
    <desc>Created with sketchtool.</desc>
    <defs>
        <linearGradient x1="12.2257347%" y1="98.3876812%" x2="89.9074775%" y2="-1.10507246%" id="linearGradient-1">
            <stop stop-color="#FFD178" offset="40%"></stop>
            <stop stop-color="#33B3AA" stop-opacity="0" offset="100%"></stop>
        </linearGradient>
        <linearGradient x1="-23.25%" y1="69.2244898%" x2="71.5833333%" y2="-3.20408163%" id="linearGradient-2">
            <stop stop-color="#42E5D5" offset="0%"></stop>
            <stop stop-color="#33B3AA" offset="100%"></stop>
        </linearGradient>
    </defs>
    <g id="Page-1" stroke="none" stroke-width="1" fill="none" fill-rule="evenodd">
        <g id="0200_Screening-CV" transform="translate(-571.000000, -338.000000)">
            <g id="Group-14" transform="translate(556.000000, 128.000000)">
                <g id="hiring_deco_left" transform="translate(8.000000, 210.000000)">
                    <path d="M15.6132962,19.4526998 C27.4764063,7.61273328 64.2895537,11.8798328 52.0290337,27.3230341 C39.7685136,42.7662355 34.8497277,71.3949666 20.5212654,63.6982377 C6.19280301,56.0015087 3.75018611,31.2926662 15.6132962,19.4526998 Z" id="Path" fill="url(#linearGradient-1)" transform="translate(31.274464, 38.822377) rotate(21.000000) translate(-31.274464, -38.822377) "></path>
                    <path d="M67.0265582,1.8805075 C71.7610812,-2.81936725 78.7690179,2.89713855 88.7302756,1.8805075 C98.6915334,0.863876447 72.9942339,28.2695413 67.0265582,23.4253927 C61.0588825,18.581244 62.2920352,6.58038225 67.0265582,1.8805075 Z" id="Path" fill="url(#linearGradient-2)" style="mix-blend-mode: multiply;"></path>
                </g>
            </g>
        </g>
    </g>
</svg>