<?xml version="1.0" encoding="UTF-8"?>
<svg width="44px" height="44px" viewBox="0 0 44 44" version="1.1" xmlns="http://www.w3.org/2000/svg" xmlns:xlink="http://www.w3.org/1999/xlink">
    <!-- Generator: sketchtool 62 (101010) - https://sketch.com -->
    <title>7E222B90-849F-4892-9ADC-2C750DDF2BA6</title>
    <desc>Created with sketchtool.</desc>
    <g id="Page-1" stroke="none" stroke-width="1" fill="none" fill-rule="evenodd">
        <g id="0200_Screening-CV" transform="translate(-579.000000, -151.000000)">
            <g id="Group-14" transform="translate(556.000000, 128.000000)">
                <g id="illus_hiring_process" transform="translate(20.000000, 20.000000)">
                    <rect id="Rectangle" x="0" y="0" width="50" height="50"></rect>
                    <g id="search-3" transform="translate(4.000000, 4.000000)" stroke-width="2.8">
                        <line x1="32.0861739" y1="32.0861739" x2="41.0869565" y2="41.0869565" id="Path" stroke="#35B4AC"></line>
                        <path d="M20.9853913,18.6936522 L25.0173913,21.7304348 C25.9377391,22.4206957 26.4782609,23.5017391 26.4782609,24.6521739 L26.4782609,26.4782609 L11.8695652,26.4782609 L11.8695652,24.6521739 C11.8695652,23.5017391 12.410087,22.4206957 13.3304348,21.7304348 L17.3624348,18.6936522" id="Path" stroke="#FFB420"></path>
                        <path d="M19.173913,19.173913 L19.173913,19.173913 C17.156087,19.173913 15.5217391,17.5395652 15.5217391,15.5217391 L15.5217391,13.6956522 C15.5217391,11.6778261 17.156087,10.0434783 19.173913,10.0434783 L19.173913,10.0434783 C21.1917391,10.0434783 22.826087,11.6778261 22.826087,13.6956522 L22.826087,15.5217391 C22.826087,17.5395652 21.1917391,19.173913 19.173913,19.173913 Z" id="Path" stroke="#FFB420" stroke-linecap="square"></path>
                        <circle id="Oval" stroke="#35B4AC" stroke-linecap="square" cx="19.173913" cy="19.173913" r="18.2608696"></circle>
                    </g>
                </g>
            </g>
        </g>
    </g>
</svg>