<?xml version="1.0" encoding="UTF-8"?>
<svg width="44px" height="44px" viewBox="0 0 44 44" version="1.1" xmlns="http://www.w3.org/2000/svg" xmlns:xlink="http://www.w3.org/1999/xlink">
    <!-- Generator: sketchtool 61 (101010) - https://sketch.com -->
    <title>3A78A64A-2482-45DE-A553-31AAF94AA9BF</title>
    <desc>Created with sketchtool.</desc>
    <g id="Style-guide" stroke="none" stroke-width="1" fill="none" fill-rule="evenodd">
        <g id="Style-Guide" transform="translate(-79.000000, -539.000000)">
            <g id="Group-48" transform="translate(76.000000, 536.000000)">
                <rect id="Rectangle" x="0" y="0" width="50" height="50"></rect>
                <g id="circle-10" transform="translate(4.000000, 4.000000)" stroke-width="2.8">
                    <path d="M33.7826087,36.4961739 L33.7826087,35.1357391 C33.7826087,33.1690435 32.7289565,31.353913 31.0215652,30.3787826 L25.1433913,27.0151304" id="Path" stroke="#FFB420"></path>
                    <path d="M16.8493043,27.0114783 L10.9784348,30.3787826 C9.27104348,31.353913 8.2173913,33.1690435 8.2173913,35.1357391 L8.2173913,36.4961739" id="Path" stroke="#FFB420"></path>
                    <path d="M21,28.3043478 L21,28.3043478 C16.9661739,28.3043478 13.6956522,25.0338261 13.6956522,21 L13.6956522,17.3478261 C13.6956522,13.314 16.9661739,10.0434783 21,10.0434783 L21,10.0434783 C25.0338261,10.0434783 28.3043478,13.314 28.3043478,17.3478261 L28.3043478,21 C28.3043478,25.0338261 25.0338261,28.3043478 21,28.3043478 Z" id="Path" stroke="#FFB420" stroke-linecap="square"></path>
                    <circle id="Oval" stroke="#35B4AC" stroke-linecap="square" cx="21" cy="21" r="20.0869565"></circle>
                </g>
            </g>
        </g>
    </g>
</svg>