<?xml version="1.0" encoding="UTF-8"?>
<svg width="35px" height="36px" viewBox="0 0 35 36" version="1.1" xmlns="http://www.w3.org/2000/svg">
  <!-- Generator: Sketch 64 (93537) - https://sketch.com -->
  <title>books</title>
  <desc>Created with Sketch.</desc>
  <g id="Symbols-" stroke="none" stroke-width="1" fill="none" fill-rule="evenodd">
    <g id="Responsive/need-to-know" transform="translate(-89.000000, -20.000000)" fill-rule="nonzero">
      <g id="Group-18">
        <g id="Left-widget/responsive">
          <g id="Group-3" transform="translate(89.000000, 20.000000)">
            <g id="books">
              <path
                d="M34.9805047,33.0015636 L26.2625466,0.430582049 C26.1794997,0.121302699 25.8621214,-0.0625499227 25.5528736,0.0195660703 L17.697688,2.12638631 C17.5899594,2.15836068 17.4941361,2.22172806 17.4224138,2.30834953 L17.4224138,1.06018644 C17.4224138,0.739134709 17.1623843,0.478834279 16.8416667,0.478834279 L0.580747127,0.478834279 C0.260029526,0.478834279 0,0.739134709 0,1.06018644 L0,34.7786119 C0,35.0996636 0.260029526,35.359964 0.580747127,35.359964 L16.8416667,35.359964 C17.1623843,35.359964 17.4224138,35.0996636 17.4224138,34.7786119 L17.4224138,3.34373774 L26.0046949,35.4082163 C26.0727875,35.6623398 26.3028359,35.8389982 26.5656966,35.8389982 C26.6158586,35.8386349 26.6658029,35.832022 26.7143678,35.8192322 L34.5678112,33.712412 C34.8778576,33.6302233 35.0626078,33.311933 34.9805047,33.0015636 Z M8.13045978,34.1972597 L1.16149425,34.1972597 L1.16149425,1.6415386 L8.13045978,1.6415386 L8.13045978,34.1972597 Z M16.2609196,34.1972597 L9.29195403,34.1972597 L9.29195403,1.6415386 L16.2609196,1.6415386 L16.2609196,34.1972597 Z M26.9762848,34.546071 L18.5595167,3.09898848 L25.2909566,1.29272731 L33.7077248,32.7398098 L26.9762848,34.546071 Z"
                id="Shape" fill="#35B4AC"></path>
              <path
                d="M6.81490385,4.05724508 L3.28125,4.05724508 C2.95600661,4.05724508 2.69230769,4.36001699 2.69230769,4.73345259 C2.69230769,5.10688819 2.95600661,5.40966011 3.28125,5.40966011 L6.81490385,5.40966011 C7.14014724,5.40966011 7.40384615,5.10688819 7.40384615,4.73345259 C7.40384615,4.36001699 7.14014724,4.05724508 6.81490385,4.05724508 Z"
                id="Path" fill="#FFB420"></path>
              <path
                d="M6.81490385,6.08586762 L3.28125,6.08586762 C2.95600661,6.08586762 2.69230769,6.38863953 2.69230769,6.76207513 C2.69230769,7.13551073 2.95600661,7.43828265 3.28125,7.43828265 L6.81490385,7.43828265 C7.14014724,7.43828265 7.40384615,7.13551073 7.40384615,6.76207513 C7.40384615,6.38863953 7.14014724,6.08586762 6.81490385,6.08586762 Z"
                id="Path" fill="#FFB420"></path>
              <path
                d="M14.8918269,4.05724508 L11.3581731,4.05724508 C11.0329297,4.05724508 10.7692308,4.36001699 10.7692308,4.73345259 C10.7692308,5.10688819 11.0329297,5.40966011 11.3581731,5.40966011 L14.8918269,5.40966011 C15.2170703,5.40966011 15.4807692,5.10688819 15.4807692,4.73345259 C15.4807692,4.36001699 15.2170703,4.05724508 14.8918269,4.05724508 Z"
                id="Path" fill="#FFB420"></path>
              <path
                d="M14.8918269,6.08586762 L11.3581731,6.08586762 C11.0329297,6.08586762 10.7692308,6.38863953 10.7692308,6.76207513 C10.7692308,7.13551073 11.0329297,7.43828265 11.3581731,7.43828265 L14.8918269,7.43828265 C15.2170703,7.43828265 15.4807692,7.13551073 15.4807692,6.76207513 C15.4807692,6.38863953 15.2170703,6.08586762 14.8918269,6.08586762 Z"
                id="Path" fill="#FFB420"></path>
              <path
                d="M24.8871606,4.49437314 C24.8097781,4.18839587 24.4850575,3.99976803 24.1619912,4.07304023 C24.151463,4.07546127 24.14101,4.07809594 24.1306322,4.08101543 L20.6412761,4.96512385 C20.3199395,5.04501831 20.1277993,5.35647854 20.2121756,5.66074684 C20.2965518,5.96501514 20.6254838,6.1469495 20.9468204,6.06705504 C20.9486252,6.0666278 20.9504301,6.06612935 20.9523101,6.0657021 L24.4422677,5.18102403 C24.7654092,5.10775184 24.9645431,4.80035042 24.8871606,4.49437314 Z"
                id="Path" fill="#FFB420"></path>
              <path
                d="M25.5561852,6.50894179 C25.4698582,6.20448446 25.1387368,6.02386451 24.8166707,6.10547163 L24.814256,6.10547163 L21.3158995,6.99173635 C20.9934561,7.0717741 20.8006541,7.38379293 20.8853209,7.68860694 C20.9699878,7.99342094 21.3000528,8.17568159 21.6224962,8.09564384 C21.6243072,8.09521583 21.6261183,8.09471649 21.6280048,8.09428848 L25.1293797,7.20802375 C25.4514458,7.12641663 25.6425122,6.81339912 25.5561852,6.50894179 Z"
                id="Path" fill="#FFB420"></path>
              <path
                d="M30.9401071,28.1454943 C30.8528515,27.8432282 30.5243022,27.6638245 30.2036097,27.7433532 L26.6982783,28.6303053 C26.3758482,28.7118329 26.1844148,29.0249504 26.2706883,29.3296438 C26.3414748,29.5795096 26.5811065,29.753202 26.8548095,29.7531306 L26.8572269,29.7531306 C26.9100336,29.7530592 26.9626891,29.7465627 27.0137581,29.7337124 L30.5160677,28.8467604 C30.8380445,28.763805 31.0278915,28.4498308 30.9401071,28.1454943 Z"
                id="Path" fill="#FFB420"></path>
              <path
                d="M32.2862637,30.1741167 C32.1990193,29.8718507 31.8705122,29.6924471 31.5498608,29.7719758 L28.0443746,30.6589276 C27.7219859,30.7404552 27.5305771,31.0535726 27.6168395,31.3582659 C27.6876169,31.6081316 27.9272179,31.781824 28.2008857,31.7817531 C28.2537611,31.781824 28.3064099,31.7751133 28.3573968,31.7617633 L31.8622787,30.8753826 C32.1842142,30.7924272 32.3740368,30.4784532 32.2862637,30.1741167 Z"
                id="Path" fill="#FFB420"></path>
              <path
                d="M14.8918269,28.4007156 L11.3581731,28.4007156 C11.0329297,28.4007156 10.7692308,28.7034875 10.7692308,29.0769231 C10.7692308,29.4503587 11.0329297,29.7531306 11.3581731,29.7531306 L14.8918269,29.7531306 C15.2170703,29.7531306 15.4807692,29.4503587 15.4807692,29.0769231 C15.4807692,28.7034875 15.2170703,28.4007156 14.8918269,28.4007156 Z"
                id="Path" fill="#FFB420"></path>
              <path
                d="M14.8918269,30.4293381 L11.3581731,30.4293381 C11.0329297,30.4293381 10.7692308,30.73211 10.7692308,31.1055456 C10.7692308,31.4789812 11.0329297,31.7817531 11.3581731,31.7817531 L14.8918269,31.7817531 C15.2170703,31.7817531 15.4807692,31.4789812 15.4807692,31.1055456 C15.4807692,30.73211 15.2170703,30.4293381 14.8918269,30.4293381 Z"
                id="Path" fill="#FFB420"></path>
              <path
                d="M6.81490385,28.4007156 L3.28125,28.4007156 C2.95600661,28.4007156 2.69230769,28.7034875 2.69230769,29.0769231 C2.69230769,29.4503587 2.95600661,29.7531306 3.28125,29.7531306 L6.81490385,29.7531306 C7.14014724,29.7531306 7.40384615,29.4503587 7.40384615,29.0769231 C7.40384615,28.7034875 7.14014724,28.4007156 6.81490385,28.4007156 Z"
                id="Path" fill="#FFB420"></path>
              <path
                d="M6.81490385,30.4293381 L3.28125,30.4293381 C2.95600661,30.4293381 2.69230769,30.73211 2.69230769,31.1055456 C2.69230769,31.4789812 2.95600661,31.7817531 3.28125,31.7817531 L6.81490385,31.7817531 C7.14014724,31.7817531 7.40384615,31.4789812 7.40384615,31.1055456 C7.40384615,30.73211 7.14014724,30.4293381 6.81490385,30.4293381 Z"
                id="Path" fill="#FFB420"></path>
            </g>
          </g>
        </g>
      </g>
    </g>
  </g>
</svg>
