<?xml version="1.0" encoding="UTF-8"?>
<svg width="36px" height="37px" viewBox="0 0 36 37" version="1.1" xmlns="http://www.w3.org/2000/svg">
  <!-- Generator: Sketch 64 (93537) - https://sketch.com -->
  <title>books</title>
  <desc>Created with Sketch.</desc>
  <g id="Symbols-" stroke="none" stroke-width="1" fill="none" fill-rule="evenodd">
    <g id="Responsive/personal-info" transform="translate(-224.000000, -19.000000)" fill="#FFFFFF" fill-rule="nonzero"
       stroke="#FFFFFF">
      <g id="Left-widget">
        <g id="Left-widget/responsive">
          <g>
            <g id="books" transform="translate(225.000000, 20.000000)">
              <path
                d="M34.2316865,32.2289904 C34.2315445,32.2285645 34.2314734,32.2281387 34.2313313,32.2277129 L25.7003514,0.420502036 C25.6190823,0.118462978 25.308498,-0.0610856163 25.0058702,0.0191080246 L17.3188384,2.07660717 C17.2134159,2.10783302 17.1196439,2.16971696 17.0494569,2.2543106 L17.0494569,1.03536726 C17.0494569,0.721831416 16.7949938,0.467624671 16.4811417,0.467624671 L0.568315231,0.467624671 C0.254463145,0.467624671 0,0.721831416 0,1.03536726 L0,33.9644375 C0,34.2779734 0.254463145,34.5321801 0.568315231,34.5321801 L16.4811417,34.5321801 C16.7949938,34.5321801 17.0494569,34.2779734 17.0494569,33.9644375 L17.0494569,3.26546016 L25.4480194,34.5793027 C25.5146544,34.8274772 25.7397783,35 25.9970119,35 C26.0461002,34.9996452 26.0949753,34.9931871 26.1425006,34.9806968 L33.8278275,32.9231976 C34.1312368,32.842933 34.3120321,32.5320939 34.2316865,32.2289904 Z M7.95641324,33.3966949 L1.13663046,33.3966949 L1.13663046,1.60310985 L7.95641324,1.60310985 L7.95641324,33.3966949 Z M15.9128265,33.3966949 L9.0930437,33.3966949 L9.0930437,1.60310985 L15.9128265,1.60310985 L15.9128265,33.3966949 Z M26.3988108,33.7373405 L18.1622182,3.02644053 L24.74956,1.2624643 L32.9861527,31.9733642 L26.3988108,33.7373405 Z"
                id="Shape" stroke-width="0.5"></path>
              <path
                d="M6.15357385,3.85220126 L2.76704328,3.85220126 C2.45534136,3.85220126 2.20262151,4.09860456 2.20262151,4.40251572 C2.20262151,4.70642689 2.45534136,4.95283019 2.76704328,4.95283019 L6.15357385,4.95283019 C6.46527577,4.95283019 6.71799561,4.70642689 6.71799561,4.40251572 C6.71799561,4.09860456 6.46527577,3.85220126 6.15357385,3.85220126 Z"
                id="Path" stroke-width="0.25"></path>
              <path
                d="M6.15357385,6.16352201 L2.76704328,6.16352201 C2.45534136,6.16352201 2.20262151,6.40992531 2.20262151,6.71383648 C2.20262151,7.01774764 2.45534136,7.26415094 2.76704328,7.26415094 L6.15357385,7.26415094 C6.46527577,7.26415094 6.71799561,7.01774764 6.71799561,6.71383648 C6.71799561,6.40992531 6.46527577,6.16352201 6.15357385,6.16352201 Z"
                id="Path" stroke-width="0.25"></path>
              <path
                d="M14.1931424,3.85220126 L10.8066118,3.85220126 C10.4949099,3.85220126 10.24219,4.09860456 10.24219,4.40251572 C10.24219,4.70642689 10.4949099,4.95283019 10.8066118,4.95283019 L14.1931424,4.95283019 C14.5048443,4.95283019 14.7575641,4.70642689 14.7575641,4.40251572 C14.7575641,4.09860456 14.5048443,3.85220126 14.1931424,3.85220126 Z"
                id="Path" stroke-width="0.25"></path>
              <path
                d="M14.1931424,6.16352201 L10.8066118,6.16352201 C10.4949099,6.16352201 10.24219,6.40992531 10.24219,6.71383648 C10.24219,7.01774764 10.4949099,7.26415094 10.8066118,7.26415094 L14.1931424,7.26415094 C14.5048443,7.26415094 14.7575641,7.01774764 14.7575641,6.71383648 C14.7575641,6.40992531 14.5048443,6.16352201 14.1931424,6.16352201 Z"
                id="Path" stroke-width="0.25"></path>
              <path
                d="M24.3233669,4.27909606 C24.251015,3.98028178 23.9474043,3.79606976 23.6453405,3.86762664 C23.6354967,3.869991 23.6257232,3.87256399 23.6160201,3.87541514 L20.3535059,4.7388264 C20.0530592,4.81685051 19.87341,5.1210194 19.952301,5.41816472 C20.0311919,5.71531004 20.3387402,5.89298528 20.6391868,5.81496116 C20.6408743,5.81454392 20.6425618,5.81405714 20.6443196,5.8136399 L23.9073964,4.94967232 C24.2095305,4.87811544 24.3957188,4.57791035 24.3233669,4.27909606 Z"
                id="Path" stroke-width="0.25"></path>
              <path
                d="M24.8702334,6.46662904 C24.7895185,6.16929911 24.4799232,5.99290751 24.1787945,6.07260419 L24.1765367,6.07260419 L20.9056071,6.93812128 C20.6041257,7.01628533 20.4238576,7.32099974 20.5030203,7.61867798 C20.582183,7.91635623 20.8907906,8.09435012 21.1922721,8.01618607 C21.1939654,8.01576808 21.1956587,8.01528043 21.1974226,8.01486244 L24.4711744,7.14934535 C24.7723031,7.06964867 24.9509483,6.76395896 24.8702334,6.46662904 Z"
                id="Path" stroke-width="0.25"></path>
              <path
                d="M30.4862698,27.3765397 C30.4046867,27.0813496 30.0974963,26.9061459 29.7976519,26.9838128 L26.5202008,27.8500011 C26.2187318,27.9296202 26.0397434,28.2354075 26.1204083,28.532968 C26.186593,28.7769844 26.4106464,28.9466106 26.666556,28.9465409 L26.6688163,28.9465409 C26.7181899,28.9464711 26.7674223,28.9401267 26.8151714,28.9275773 L30.0897971,28.061389 C30.3908423,27.9803756 30.5683474,27.6737516 30.4862698,27.3765397 Z"
                id="Path" stroke-width="0.25"></path>
              <path
                d="M31.1470588,29.5777975 C31.0654862,29.2826075 30.7583352,29.1074038 30.4585293,29.1850707 L27.1809335,30.0512588 C26.8795032,30.1308778 26.7005377,30.436665 26.7811923,30.7342255 C26.8473685,30.9782417 27.0713931,31.1478679 27.3272699,31.1477987 C27.3767078,31.1478679 27.4259339,31.1413143 27.4736062,31.1282769 L30.750637,30.2626466 C31.0516436,30.1816332 31.2291259,29.8750093 31.1470588,29.5777975 Z"
                id="Path" stroke-width="0.25"></path>
              <path
                d="M14.1931424,27.7358491 L10.8066118,27.7358491 C10.4949099,27.7358491 10.24219,27.9822524 10.24219,28.2861635 C10.24219,28.5900747 10.4949099,28.836478 10.8066118,28.836478 L14.1931424,28.836478 C14.5048443,28.836478 14.7575641,28.5900747 14.7575641,28.2861635 C14.7575641,27.9822524 14.5048443,27.7358491 14.1931424,27.7358491 Z"
                id="Path" stroke-width="0.25"></path>
              <path
                d="M14.1931424,30.0471698 L10.8066118,30.0471698 C10.4949099,30.0471698 10.24219,30.2935731 10.24219,30.5974843 C10.24219,30.9013954 10.4949099,31.1477987 10.8066118,31.1477987 L14.1931424,31.1477987 C14.5048443,31.1477987 14.7575641,30.9013954 14.7575641,30.5974843 C14.7575641,30.2935731 14.5048443,30.0471698 14.1931424,30.0471698 Z"
                id="Path" stroke-width="0.25"></path>
              <path
                d="M6.15357385,27.7358491 L2.76704328,27.7358491 C2.45534136,27.7358491 2.20262151,27.9822524 2.20262151,28.2861635 C2.20262151,28.5900747 2.45534136,28.836478 2.76704328,28.836478 L6.15357385,28.836478 C6.46527577,28.836478 6.71799561,28.5900747 6.71799561,28.2861635 C6.71799561,27.9822524 6.46527577,27.7358491 6.15357385,27.7358491 Z"
                id="Path" stroke-width="0.25"></path>
              <path
                d="M6.15357385,30.0471698 L2.76704328,30.0471698 C2.45534136,30.0471698 2.20262151,30.2935731 2.20262151,30.5974843 C2.20262151,30.9013954 2.45534136,31.1477987 2.76704328,31.1477987 L6.15357385,31.1477987 C6.46527577,31.1477987 6.71799561,30.9013954 6.71799561,30.5974843 C6.71799561,30.2935731 6.46527577,30.0471698 6.15357385,30.0471698 Z"
                id="Path" stroke-width="0.25"></path>
            </g>
          </g>
        </g>
      </g>
    </g>
  </g>
</svg>
