<svg xmlns="http://www.w3.org/2000/svg" viewBox="0 0 43 48" width="41" height="46">
	<defs>
		<linearGradient id="grd1" gradientUnits="userSpaceOnUse"  x1="574.672" y1="3093.313" x2="973.416" y2="426.984">
			<stop offset="0" stop-color="#0e7b79"  />
			<stop offset="100" stop-color="#34b3aa"  />
		</linearGradient>
		<linearGradient id="grd2" gradientUnits="userSpaceOnUse"  x1="2505.981" y1="2144.08" x2="590.575" y2="-10.279">
			<stop offset="0" stop-color="#0e7b79"  />
			<stop offset="100" stop-color="#34b3aa"  />
		</linearGradient>
		<linearGradient id="grd3" gradientUnits="userSpaceOnUse"  x1="2985.411" y1="886.435" x2="-34.367" y2="934.457">
			<stop offset="0" stop-color="#0e7b79"  />
			<stop offset="100" stop-color="#34b3aa"  />
		</linearGradient>
		<linearGradient id="grd4" gradientUnits="userSpaceOnUse"  x1="1012.237" y1="-130.42" x2="631.221" y2="2587.778">
			<stop offset="0" stop-color="#0e7b79"  />
			<stop offset="100" stop-color="#34b3aa"  />
		</linearGradient>
		<linearGradient id="grd5" gradientUnits="userSpaceOnUse"  x1="-134.785" y1="277.345" x2="1718.977" y2="2511.751">
			<stop offset="0" stop-color="#0e7b79"  />
			<stop offset="100" stop-color="#34b3aa"  />
		</linearGradient>
		<linearGradient id="grd6" gradientUnits="userSpaceOnUse"  x1="-80.116" y1="1059.615" x2="2975.336" y2="915.118">
			<stop offset="0" stop-color="#0e7b79"  />
			<stop offset="100" stop-color="#34b3aa"  />
		</linearGradient>
		<linearGradient id="grd7" gradientUnits="userSpaceOnUse"  x1="572.803" y1="3081.513" x2="971.053" y2="422.811">
			<stop offset="0" stop-color="#0e7b79"  />
			<stop offset="100" stop-color="#34b3aa"  />
		</linearGradient>
		<linearGradient id="grd8" gradientUnits="userSpaceOnUse"  x1="2477.08" y1="2134.202" x2="591.076" y2="-11.473">
			<stop offset="0" stop-color="#0e7b79"  />
			<stop offset="100" stop-color="#34b3aa"  />
		</linearGradient>
		<linearGradient id="grd9" gradientUnits="userSpaceOnUse"  x1="2976.844" y1="877.9" x2="-33.957" y2="925.091">
			<stop offset="0" stop-color="#0e7b79"  />
			<stop offset="100" stop-color="#34b3aa"  />
		</linearGradient>
		<linearGradient id="grd10" gradientUnits="userSpaceOnUse"  x1="1007.379" y1="-133.591" x2="626.8" y2="2576.499">
			<stop offset="0" stop-color="#0e7b79"  />
			<stop offset="100" stop-color="#34b3aa"  />
		</linearGradient>
		<linearGradient id="grd11" gradientUnits="userSpaceOnUse"  x1="-124.931" y1="281.407" x2="1700.955" y2="2507.234">
			<stop offset="0" stop-color="#0e7b79"  />
			<stop offset="100" stop-color="#34b3aa"  />
		</linearGradient>
		<linearGradient id="grd12" gradientUnits="userSpaceOnUse"  x1="-79.11" y1="1048.683" x2="2966.375" y2="906.705">
			<stop offset="0" stop-color="#0e7b79"  />
			<stop offset="100" stop-color="#34b3aa"  />
		</linearGradient>
		<linearGradient id="grd13" gradientUnits="userSpaceOnUse"  x1="14.4" y1="685.026" x2="1495.129" y2="685.026">
			<stop offset="0" stop-color="#0e7b79"  />
			<stop offset="100" stop-color="#34b3aa"  />
		</linearGradient>
		<linearGradient id="grd14" gradientUnits="userSpaceOnUse"  x1="178.082" y1="103.573" x2="1485.615" y2="462.325">
			<stop offset="0" stop-color="#0e7b79"  />
			<stop offset="100" stop-color="#34b3aa"  />
		</linearGradient>
		<linearGradient id="grd15" gradientUnits="userSpaceOnUse"  x1="-175.172" y1="-39.97" x2="1132.359" y2="968.818">
			<stop offset="0" stop-color="#0e7b79"  />
			<stop offset="100" stop-color="#34b3aa"  />
		</linearGradient>
	</defs>
	<style>
		tspan { white-space:pre }
		.shp0 { fill: #2bb4ad } 
		.shp1 { fill: url(#grd1) } 
		.shp2 { fill: url(#grd2) } 
		.shp3 { fill: url(#grd3) } 
		.shp4 { fill: url(#grd4) } 
		.shp5 { fill: url(#grd5) } 
		.shp6 { fill: url(#grd6) } 
		.shp7 { fill: url(#grd7) } 
		.shp8 { fill: url(#grd8) } 
		.shp9 { fill: url(#grd9) } 
		.shp10 { fill: url(#grd10) } 
		.shp11 { fill: url(#grd11) } 
		.shp12 { fill: url(#grd12) } 
		.shp13 { fill: #ffffff } 
		.shp14 { fill: url(#grd13) } 
		.shp15 { fill: url(#grd14) } 
		.shp16 { fill: url(#grd15) } 
	</style>
	<g id="Page-1">
		<g id="0101_forgot_password_2">
			<g id="Group-3">
				<g id="Group">
					<g id="logo_talaria">
						<g id="Text">
							<path id="Talaria" fill-rule="evenodd" class="shp0" d="M59.93 35.59L59.93 18.33L53.83 18.33L53.83 14.67L69.73 14.67L69.73 18.33L63.62 18.33L63.62 35.59L59.93 35.59ZM76.89 35.59C74.94 35.59 73.54 35.15 72.69 34.26C71.83 33.37 71.4 32.15 71.4 30.6C71.4 29.86 71.5 29.2 71.7 28.62C71.89 28.04 72.21 27.55 72.64 27.15C73.07 26.74 73.64 26.43 74.35 26.22C75.05 26 75.91 25.89 76.92 25.89L84.7 25.89L84.7 24.65C84.7 24.01 84.51 23.47 84.12 23.04C83.74 22.61 83.1 22.39 82.19 22.39L72.39 22.39L72.39 19.23L82.22 19.23C83.23 19.23 84.1 19.36 84.82 19.63C85.54 19.9 86.14 20.28 86.6 20.76C87.07 21.25 87.4 21.82 87.61 22.48C87.82 23.14 87.92 23.86 87.92 24.62L87.92 32.31C87.92 32.91 87.87 33.41 87.78 33.83C87.69 34.24 87.52 34.57 87.27 34.83C87.02 35.09 86.68 35.28 86.23 35.41C85.79 35.53 85.22 35.59 84.54 35.59L76.89 35.59ZM83.8 32.4C84.4 32.4 84.7 32.12 84.7 31.56L84.7 28.49L76.98 28.49C76.11 28.49 75.5 28.66 75.15 29.01C74.8 29.35 74.62 29.82 74.62 30.42C74.62 31.01 74.8 31.5 75.15 31.86C75.5 32.22 76.09 32.4 76.92 32.4L83.8 32.4ZM92.57 35.59L92.57 12.13L95.85 12.13L95.85 35.59L92.57 35.59ZM105.71 35.59C103.77 35.59 102.37 35.15 101.51 34.26C100.65 33.37 100.23 32.15 100.23 30.6C100.23 29.86 100.32 29.2 100.52 28.62C100.72 28.04 101.03 27.55 101.46 27.15C101.9 26.74 102.47 26.43 103.17 26.22C103.87 26 104.73 25.89 105.74 25.89L113.52 25.89L113.52 24.65C113.52 24.01 113.33 23.47 112.95 23.04C112.57 22.61 111.92 22.39 111.01 22.39L101.22 22.39L101.22 19.23L111.04 19.23C112.05 19.23 112.92 19.36 113.65 19.63C114.37 19.9 114.96 20.28 115.43 20.76C115.89 21.25 116.23 21.82 116.43 22.48C116.64 23.14 116.74 23.86 116.74 24.62L116.74 32.31C116.74 32.91 116.7 33.41 116.6 33.83C116.51 34.24 116.34 34.57 116.09 34.83C115.85 35.09 115.5 35.28 115.06 35.41C114.61 35.53 114.05 35.59 113.37 35.59L105.71 35.59ZM112.62 32.4C113.22 32.4 113.52 32.12 113.52 31.56L113.52 28.49L105.8 28.49C104.94 28.49 104.33 28.66 103.98 29.01C103.62 29.35 103.45 29.82 103.45 30.42C103.45 31.01 103.62 31.5 103.98 31.86C104.33 32.22 104.92 32.4 105.74 32.4L112.62 32.4ZM121.36 35.59L121.36 24C121.36 22.35 121.7 21.14 122.37 20.37C123.04 19.61 124.18 19.23 125.79 19.23L132.52 19.23L132.52 22.39L126.76 22.39C125.35 22.39 124.65 23.09 124.65 24.5L124.65 35.59L121.36 35.59ZM135.74 16.87L135.74 13.06L139.06 13.06L139.06 16.87L135.74 16.87ZM135.74 35.59L135.74 19.23L139.03 19.23L139.03 35.59L135.74 35.59ZM148.88 35.59C146.94 35.59 145.54 35.15 144.68 34.26C143.83 33.37 143.4 32.15 143.4 30.6C143.4 29.86 143.5 29.2 143.69 28.62C143.89 28.04 144.2 27.55 144.64 27.15C145.07 26.74 145.64 26.43 146.34 26.22C147.05 26 147.9 25.89 148.92 25.89L156.69 25.89L156.69 24.65C156.69 24.01 156.5 23.47 156.12 23.04C155.74 22.61 155.09 22.39 154.18 22.39L144.39 22.39L144.39 19.23L154.22 19.23C155.23 19.23 156.1 19.36 156.82 19.63C157.54 19.9 158.14 20.28 158.6 20.76C159.07 21.25 159.4 21.82 159.61 22.48C159.81 23.14 159.92 23.86 159.92 24.62L159.92 32.31C159.92 32.91 159.87 33.41 159.78 33.83C159.69 34.24 159.52 34.57 159.27 34.83C159.02 35.09 158.67 35.28 158.23 35.41C157.78 35.53 157.22 35.59 156.54 35.59L148.88 35.59ZM155.8 32.4C156.4 32.4 156.69 32.12 156.69 31.56L156.69 28.49L148.98 28.49C148.11 28.49 147.5 28.66 147.15 29.01C146.8 29.35 146.62 29.82 146.62 30.42C146.62 31.01 146.8 31.5 147.15 31.86C147.5 32.22 148.09 32.4 148.92 32.4L155.8 32.4Z" />
						</g>
						<g id="icon">
							<g id="Group-6">
								<path id="Fill-9" fill-rule="evenodd" class="shp1" d="M32.67 5.59L32.79 5.66C33.07 5.82 33.35 5.98 33.63 6.13C37.22 8.17 40.37 9.96 40.37 9.96C40.39 9.98 40.6 10.09 40.68 10.14L40.71 10.15C41.72 10.69 42.46 11.64 42.75 12.75C42.75 12.77 42.76 12.79 42.76 12.81C42.77 12.85 42.78 12.9 42.79 12.95C42.8 12.98 42.81 13.02 42.82 13.06L42.85 13.27C42.85 13.29 42.85 13.31 42.85 13.33C42.86 13.34 42.86 13.36 42.86 13.37C42.86 13.39 42.86 13.4 42.87 13.42C42.87 13.49 42.88 13.56 42.88 13.62L42.88 13.62L42.88 13.67L42.88 24.63L42.87 24.64C41.23 26.76 39.33 28.64 37.24 30.25C34.99 31.97 32.51 33.37 29.87 34.41C29.72 34.47 29.57 34.53 29.42 34.58C29.35 34.61 29.28 34.63 29.21 34.66C29.05 34.72 28.89 34.77 28.73 34.83L28.72 34.83C28.56 34.89 28.39 34.95 28.21 35.01C27.94 35.1 27.67 35.18 27.4 35.26C27.31 35.29 27.23 35.31 27.14 35.34L27.11 35.25C28.98 34.31 30.6 32.9 31.79 31.18C33.01 29.42 33.77 27.37 33.98 25.24C34.26 24.18 34.48 23.11 34.65 22.06C35.1 19.14 35.13 16.17 34.74 13.24C34.39 10.68 33.71 8.15 32.72 5.72L32.67 5.59ZM31.87 31.23C30.75 32.84 29.27 34.17 27.57 35.11C27.77 35.05 27.98 34.99 28.18 34.92C28.37 34.86 28.54 34.8 28.7 34.74L28.71 34.74C28.87 34.68 29.02 34.63 29.18 34.57C29.25 34.55 29.32 34.52 29.38 34.5C29.54 34.44 29.68 34.38 29.83 34.32C32.46 33.28 34.94 31.89 37.18 30.17C39.27 28.57 41.15 26.7 42.79 24.6L42.79 13.71L42.79 13.67C42.78 13.59 42.78 13.52 42.77 13.42C42.77 13.41 42.77 13.4 42.77 13.38C42.77 13.37 42.76 13.35 42.76 13.34C42.76 13.32 42.76 13.3 42.76 13.28L42.72 13.08C42.72 13.04 42.71 13 42.7 12.97C42.69 12.92 42.68 12.87 42.67 12.83C42.67 12.81 42.66 12.79 42.66 12.77C42.38 11.69 41.65 10.76 40.67 10.23L40.64 10.22C40.56 10.17 40.35 10.06 40.33 10.05C40.32 10.05 37.17 8.25 33.58 6.21C33.34 6.08 33.1 5.94 32.86 5.81C33.82 8.2 34.49 10.7 34.83 13.22C35.23 16.16 35.2 19.14 34.74 22.07C34.58 23.13 34.35 24.2 34.07 25.26C33.86 27.39 33.1 29.46 31.87 31.23Z" />
								<path id="Fill-15" fill-rule="evenodd" class="shp2" d="M21.73 0C21.86 0 21.99 0.01 22.13 0.02C22.15 0.02 22.2 0.02 22.24 0.03C22.61 0.08 23.01 0.18 23.41 0.36C23.54 0.41 29.22 3.63 30.96 4.62L31.23 4.77C31.71 5.05 32.2 5.32 32.67 5.59L32.69 5.6L32.69 5.62C33.71 8.08 34.4 10.64 34.75 13.24C35.14 16.17 35.11 19.14 34.66 22.06C34.63 22.23 34.6 22.41 34.57 22.58C34.55 22.72 34.52 22.87 34.5 23.01L34.48 23.07C34.47 23.13 34.46 23.19 34.45 23.25C34.45 23.27 34.44 23.3 34.44 23.32C34.43 23.35 34.42 23.38 34.42 23.4L34.4 23.51C34.38 23.6 34.36 23.68 34.34 23.76C34.34 23.8 34.33 23.85 34.32 23.89C34.29 24.02 34.26 24.16 34.22 24.3C34.21 24.35 34.2 24.41 34.18 24.46C34.16 24.56 34.14 24.66 34.11 24.75L34.11 24.78L34.01 24.77C34.03 24.5 34.04 24.24 34.04 24C34.04 21.98 33.57 20.05 32.66 18.26C31.78 16.55 30.51 15.05 28.97 13.9C28.14 13.04 27.27 12.24 26.38 11.5C24.13 9.65 21.63 8.13 18.94 6.99C18.61 6.85 18.29 6.72 17.97 6.6C16.06 5.86 14.04 5.3 11.99 4.96L11.86 4.93L19.3 0.78C19.33 0.76 19.37 0.75 19.4 0.73L19.63 0.59C19.78 0.5 19.94 0.42 20.09 0.36C20.62 0.12 21.17 0 21.73 0ZM34.13 24.3C34.13 24.29 34.13 24.29 34.13 24.28C34.17 24.14 34.2 24 34.22 23.87C34.24 23.83 34.24 23.78 34.25 23.74C34.27 23.66 34.29 23.58 34.3 23.5L34.33 23.38C34.33 23.36 34.34 23.33 34.34 23.3C34.35 23.28 34.35 23.25 34.36 23.23C34.37 23.17 34.38 23.11 34.39 23.05L34.4 22.99C34.43 22.85 34.46 22.71 34.48 22.57C34.51 22.39 34.54 22.22 34.57 22.05C35.02 19.13 35.05 16.17 34.65 13.25C34.31 10.67 33.62 8.12 32.61 5.67C32.14 5.4 31.66 5.12 31.19 4.86L30.92 4.7C26.42 2.15 23.47 0.48 23.38 0.44C22.98 0.27 22.59 0.17 22.23 0.12C22.19 0.12 22.14 0.11 22.12 0.11C21.44 0.05 20.77 0.16 20.13 0.44C19.98 0.51 19.83 0.59 19.68 0.67L19.44 0.82C19.41 0.83 19.38 0.85 19.35 0.86L12.14 4.89C14.15 5.24 16.13 5.78 18 6.51C18.32 6.63 18.65 6.76 18.98 6.9C21.67 8.05 24.18 9.57 26.44 11.43C27.33 12.17 28.21 12.97 29.03 13.83C30.58 14.98 31.86 16.5 32.74 18.22C33.66 20.02 34.13 21.96 34.13 24C34.13 24.1 34.13 24.2 34.13 24.3Z" />
								<path id="Fill-21" fill-rule="evenodd" class="shp3" d="M11.86 4.93L11.88 4.93C14.33 5.34 16.71 6.03 18.94 6.99C21.63 8.13 24.13 9.65 26.38 11.49L26.4 11.51C27.17 12.14 27.92 12.83 28.63 13.54L28.57 13.61C26.47 12.17 24 11.4 21.44 11.4C19.62 11.4 17.85 11.78 16.2 12.54C15.11 12.84 14.04 13.19 13.02 13.6C10.39 14.63 7.91 16.03 5.66 17.76C5.44 17.93 5.22 18.1 5 18.27C4.92 18.34 4.83 18.41 4.75 18.48C4.71 18.51 4.67 18.55 4.63 18.58C4.56 18.64 4.49 18.69 4.43 18.75C3.97 19.14 3.53 19.53 3.12 19.92C3.05 20 2.97 20.07 2.9 20.14C2.83 20.21 2.76 20.28 2.69 20.35C2.59 20.45 2.49 20.55 2.38 20.65L2.08 20.97C2.06 20.99 2.05 21.01 2.03 21.02C1.95 21.11 1.87 21.19 1.79 21.28C1.74 21.32 1.7 21.37 1.66 21.41C1.48 21.61 1.3 21.82 1.11 22.04C1.01 22.15 0.92 22.25 0.83 22.36C0.74 22.47 0.65 22.57 0.57 22.68C0.49 22.77 0.42 22.86 0.34 22.95C0.27 23.04 0.2 23.13 0.13 23.22L0.05 23.32L0.05 23.16C0.05 23.01 0.05 22.86 0.05 22.72L0.08 16.64C0.09 15.04 0.09 14 0.09 13.99L0.09 13.95C0.08 12.82 0.54 11.72 1.37 10.93C1.39 10.92 1.4 10.9 1.42 10.89C1.45 10.86 1.49 10.83 1.52 10.8L1.53 10.79C1.55 10.77 1.58 10.74 1.61 10.72C1.63 10.7 1.65 10.69 1.67 10.67L1.72 10.63C1.74 10.62 1.75 10.61 1.77 10.6L1.79 10.58C1.8 10.57 1.81 10.57 1.82 10.56C1.84 10.55 1.85 10.54 1.87 10.53L1.9 10.51C1.96 10.46 2.02 10.42 2.09 10.39L2.09 10.38L2.11 10.37L9.89 6.03L11.86 4.93ZM0.15 22.72C0.15 22.83 0.15 22.94 0.14 23.05C0.19 23 0.23 22.95 0.27 22.9C0.34 22.8 0.42 22.71 0.5 22.62C0.58 22.51 0.67 22.41 0.76 22.3C0.85 22.19 0.94 22.08 1.04 21.98C1.23 21.75 1.41 21.55 1.59 21.35C1.64 21.31 1.68 21.26 1.72 21.22C1.8 21.13 1.88 21.05 1.96 20.96C1.98 20.94 2 20.92 2.01 20.9L2.32 20.59C2.42 20.48 2.52 20.38 2.62 20.28C2.69 20.21 2.76 20.14 2.83 20.08C2.91 20 2.98 19.93 3.06 19.86C3.47 19.47 3.91 19.07 4.36 18.68C4.43 18.62 4.5 18.57 4.57 18.51C4.61 18.48 4.65 18.44 4.69 18.41C4.77 18.34 4.86 18.27 4.94 18.2C5.16 18.03 5.38 17.85 5.6 17.68C7.86 15.96 10.35 14.55 12.99 13.51C14.01 13.11 15.08 12.75 16.17 12.45C17.82 11.69 19.6 11.31 21.44 11.31C23.86 11.31 26.2 11.99 28.23 13.27C27.62 12.68 26.98 12.11 26.33 11.57C26.33 11.57 26.32 11.57 26.32 11.56C24.08 9.72 21.58 8.21 18.91 7.07C16.68 6.12 14.32 5.43 11.88 5.03L9.93 6.12L2.18 10.44L2.18 10.46L2.14 10.46C2.08 10.5 2.01 10.54 1.95 10.58L1.92 10.6C1.91 10.61 1.89 10.62 1.88 10.63C1.87 10.64 1.86 10.65 1.85 10.65C1.84 10.66 1.83 10.67 1.82 10.68C1.81 10.69 1.79 10.7 1.78 10.71L1.73 10.75C1.71 10.76 1.69 10.78 1.67 10.79C1.64 10.82 1.62 10.84 1.59 10.86L1.58 10.87C1.55 10.9 1.51 10.93 1.48 10.96C1.47 10.97 1.45 10.99 1.43 11C0.63 11.77 0.17 12.84 0.19 13.95L0.19 13.99C0.19 14 0.18 14.99 0.18 16.64L0.15 22.72Z" />
								<path id="Fill-27" fill-rule="evenodd" class="shp4" d="M15.74 12.66L15.78 12.75C13.91 13.69 12.29 15.1 11.09 16.82C9.87 18.57 9.12 20.63 8.91 22.76C8.63 23.81 8.4 24.88 8.24 25.94C7.78 28.85 7.75 31.82 8.15 34.76C8.19 35.05 8.24 35.36 8.29 35.72C8.32 35.85 8.34 35.99 8.37 36.13L8.37 36.15C8.37 36.17 8.38 36.18 8.38 36.2C8.41 36.35 8.44 36.5 8.47 36.64C8.5 36.79 8.53 36.94 8.56 37.08L8.56 37.11C8.6 37.27 8.63 37.42 8.67 37.58C8.74 37.88 8.81 38.19 8.9 38.51L8.91 38.53C8.94 38.67 8.98 38.82 9.02 38.96L9.03 38.96L9.03 38.98C9.07 39.12 9.11 39.27 9.15 39.41C9.38 40.18 9.65 40.96 9.94 41.71C9.99 41.84 10.03 41.96 10.08 42.08C10.09 42.1 10.09 42.11 10.1 42.12C10.1 42.13 10.11 42.14 10.11 42.15L10.17 42.28L2.49 37.93C2.47 37.92 2.26 37.8 2.18 37.76C2.16 37.75 2.15 37.74 2.15 37.74C1.15 37.2 0.42 36.26 0.13 35.16C0.13 35.14 0.12 35.12 0.12 35.1L0.11 35.06C0.1 35.03 0.09 35 0.09 34.96C0.08 34.94 0.08 34.92 0.07 34.9C0.07 34.89 0.07 34.87 0.06 34.85L0.06 34.82C0.05 34.79 0.05 34.76 0.04 34.73L0.02 34.58C0.02 34.56 0.02 34.54 0.02 34.52L0.01 34.49C0.01 34.4 0 34.32 0 34.24L0.04 25.15C0.04 24.54 0.05 23.93 0.05 23.32L0.05 23.3L0.06 23.29C0.16 23.16 0.26 23.03 0.37 22.9C0.46 22.79 0.56 22.67 0.66 22.55C0.67 22.53 0.69 22.51 0.71 22.49C0.81 22.37 0.9 22.26 1 22.15C1.11 22.02 1.21 21.9 1.32 21.77C1.57 21.5 1.81 21.24 2.04 20.99C2.13 20.9 2.23 20.8 2.32 20.71L2.33 20.69C2.8 20.22 3.27 19.76 3.76 19.32C3.85 19.23 3.95 19.15 4.05 19.06L4.13 18.99C4.22 18.91 4.31 18.83 4.41 18.75L4.5 18.68C4.61 18.58 4.73 18.48 4.85 18.39C5.1 18.18 5.36 17.97 5.65 17.75C7.9 16.03 10.38 14.62 13.02 13.59C13.17 13.53 13.32 13.47 13.46 13.42C13.54 13.39 13.61 13.36 13.67 13.34C13.83 13.28 13.99 13.22 14.15 13.17L14.16 13.16C14.23 13.14 14.3 13.11 14.37 13.09L14.42 13.07C14.48 13.05 14.54 13.03 14.6 13.02L14.68 12.99C14.69 12.98 14.7 12.98 14.7 12.98C14.76 12.96 14.83 12.94 14.9 12.92C14.92 12.91 14.94 12.9 14.97 12.9L14.99 12.89C15.01 12.88 15.04 12.87 15.07 12.86C15.15 12.84 15.22 12.81 15.3 12.79C15.38 12.76 15.46 12.74 15.54 12.72C15.58 12.71 15.62 12.7 15.66 12.68L15.74 12.66ZM14.93 13.01C14.86 13.03 14.79 13.05 14.73 13.07L14.7 13.03L14.72 13.07C14.71 13.07 14.71 13.08 14.7 13.08L14.62 13.1C14.57 13.12 14.51 13.14 14.46 13.16L14.4 13.18C14.33 13.2 14.26 13.23 14.19 13.25L14.18 13.26C14.02 13.31 13.86 13.37 13.71 13.43C13.64 13.45 13.57 13.47 13.5 13.5C13.35 13.56 13.2 13.61 13.06 13.67C10.42 14.71 7.95 16.11 5.71 17.82C5.42 18.04 5.16 18.25 4.91 18.46C4.79 18.55 4.67 18.65 4.56 18.75L4.47 18.83C4.37 18.91 4.28 18.98 4.19 19.07L4.11 19.13C4.01 19.22 3.92 19.3 3.82 19.39C3.34 19.82 2.86 20.28 2.4 20.75L2.38 20.77C2.29 20.87 2.2 20.96 2.11 21.06C1.88 21.3 1.64 21.56 1.39 21.84C1.28 21.96 1.18 22.08 1.07 22.21C0.97 22.32 0.88 22.43 0.78 22.55C0.76 22.57 0.74 22.59 0.73 22.61C0.63 22.73 0.53 22.85 0.44 22.96C0.34 23.09 0.24 23.21 0.14 23.34C0.14 23.94 0.14 24.55 0.13 25.15L0.09 34.24C0.1 34.32 0.1 34.39 0.11 34.48L0.11 34.51C0.11 34.53 0.12 34.55 0.12 34.58L0.14 34.72C0.14 34.75 0.14 34.78 0.15 34.8L0.15 34.83C0.16 34.85 0.16 34.87 0.16 34.88C0.17 34.9 0.17 34.92 0.18 34.94C0.18 34.98 0.19 35.01 0.2 35.04L0.21 35.08C0.21 35.09 0.22 35.11 0.22 35.13C0.5 36.21 1.22 37.13 2.2 37.66C2.2 37.66 2.21 37.67 2.23 37.67C2.31 37.72 2.52 37.83 2.54 37.85L9.98 42.07C9.93 41.96 9.89 41.85 9.85 41.75C9.56 40.99 9.29 40.21 9.06 39.44C9.02 39.3 8.98 39.15 8.94 39.01L8.94 39.01L8.94 39C8.89 38.85 8.85 38.7 8.81 38.55L8.81 38.53C8.72 38.21 8.65 37.9 8.58 37.6C8.54 37.45 8.51 37.29 8.47 37.13L8.47 37.1C8.44 36.96 8.4 36.81 8.37 36.66C8.35 36.51 8.32 36.37 8.29 36.22C8.28 36.2 8.28 36.18 8.28 36.16L8.28 36.15C8.25 36.01 8.23 35.87 8.2 35.73C8.14 35.37 8.1 35.06 8.06 34.77C7.66 31.82 7.69 28.85 8.14 25.92C8.31 24.86 8.54 23.79 8.82 22.74C9.02 20.6 9.79 18.53 11.02 16.76C12.13 15.16 13.61 13.83 15.32 12.88C15.24 12.91 15.17 12.93 15.1 12.95C15.07 12.96 15.04 12.97 15.02 12.98L15 12.98C14.97 12.99 14.95 13 14.93 13.01Z" />
								<path id="Fill-33" fill-rule="evenodd" class="shp5" d="M8.78 23.22L8.87 23.23C8.85 23.5 8.85 23.75 8.85 24C8.85 26.02 9.31 27.95 10.23 29.73C11.1 31.44 12.37 32.94 13.91 34.09C14.08 34.27 14.23 34.42 14.37 34.56C14.96 35.14 15.57 35.7 16.19 36.23C16.29 36.32 16.4 36.4 16.51 36.49C18.76 38.34 21.26 39.86 23.94 41C24.06 41.06 24.18 41.11 24.3 41.15C24.42 41.2 24.53 41.25 24.65 41.29L24.66 41.3C24.75 41.33 24.83 41.37 24.91 41.4C24.93 41.41 24.95 41.41 24.97 41.42C24.99 41.43 25 41.43 25.02 41.44C25.14 41.49 25.26 41.53 25.39 41.58C25.64 41.67 25.87 41.75 26.1 41.83C26.22 41.87 26.34 41.91 26.46 41.95L26.5 41.96C26.52 41.97 26.53 41.97 26.54 41.97C26.65 42.01 26.76 42.04 26.86 42.08C26.89 42.08 26.91 42.09 26.94 42.1C27.2 42.18 27.41 42.24 27.61 42.3L27.63 42.3C27.84 42.36 28.08 42.43 28.37 42.5C28.66 42.58 28.9 42.63 29.13 42.69C29.26 42.72 29.38 42.74 29.51 42.77C29.64 42.8 29.77 42.83 29.89 42.85C30.01 42.88 30.12 42.9 30.24 42.92C30.38 42.95 30.52 42.97 30.66 43C30.75 43.01 30.84 43.03 30.94 43.05L31.07 43.07L30.95 43.13C27.03 45.37 23.48 47.4 23.48 47.4C23.32 47.49 23.17 47.57 23.01 47.64C22.48 47.87 21.92 47.99 21.36 47.99C21.23 47.99 21.09 47.99 20.96 47.97C20.93 47.97 20.89 47.97 20.84 47.96C20.47 47.92 20.07 47.81 19.67 47.64L19.66 47.64C19.35 47.51 19.1 47.36 18.97 47.28L18.91 47.25L10.17 42.28L10.15 42.28L10.14 42.26C10.03 41.97 9.93 41.72 9.84 41.5L9.82 41.42C9.78 41.32 9.74 41.21 9.7 41.11C9.66 40.99 9.62 40.88 9.58 40.76C9.54 40.65 9.5 40.54 9.46 40.43C9.43 40.34 9.4 40.24 9.37 40.15C9.31 39.95 9.25 39.75 9.18 39.55C9.01 38.98 8.85 38.4 8.72 37.84C8.7 37.75 8.68 37.66 8.66 37.57C8.6 37.33 8.54 37.07 8.48 36.77C8.47 36.72 8.46 36.67 8.45 36.63C8.44 36.58 8.43 36.53 8.42 36.48L8.33 35.97C8.3 35.83 8.28 35.7 8.26 35.57C8.24 35.44 8.22 35.32 8.2 35.19L8.2 35.16C8.18 35.04 8.16 34.92 8.14 34.79L8.14 34.76C7.74 31.83 7.77 28.86 8.23 25.93C8.26 25.75 8.29 25.56 8.32 25.37C8.32 25.36 8.32 25.35 8.33 25.33L8.33 25.32C8.39 24.96 8.45 24.65 8.52 24.36L8.56 24.12C8.57 24.1 8.57 24.09 8.58 24.07C8.61 23.93 8.64 23.78 8.68 23.6C8.71 23.48 8.74 23.37 8.77 23.25L8.78 23.22ZM20.97 47.88C21.1 47.89 21.23 47.9 21.36 47.9C21.91 47.9 22.45 47.78 22.97 47.55C23.13 47.49 23.27 47.41 23.43 47.32C23.43 47.32 26.91 45.33 30.79 43.12C30.74 43.11 30.69 43.1 30.64 43.09C30.5 43.07 30.36 43.04 30.22 43.01C30.1 42.99 29.99 42.97 29.87 42.94C29.75 42.92 29.62 42.89 29.49 42.86C29.36 42.84 29.23 42.81 29.11 42.78C28.88 42.73 28.64 42.67 28.34 42.59C28.06 42.52 27.82 42.45 27.6 42.39L27.58 42.39C27.39 42.33 27.17 42.27 26.91 42.19C26.89 42.18 26.86 42.17 26.83 42.16C26.73 42.13 26.62 42.1 26.52 42.06C26.5 42.06 26.49 42.05 26.47 42.05L26.44 42.04C26.31 42 26.19 41.96 26.07 41.92C25.84 41.84 25.6 41.76 25.36 41.66C25.23 41.62 25.11 41.57 24.99 41.53C24.97 41.52 24.95 41.51 24.93 41.51C24.92 41.5 24.9 41.49 24.88 41.49C24.8 41.45 24.71 41.42 24.63 41.39L24.62 41.38C24.5 41.33 24.38 41.29 24.26 41.24C24.15 41.19 24.03 41.14 23.91 41.09C21.21 39.94 18.7 38.42 16.45 36.56C16.34 36.47 16.23 36.39 16.13 36.3C15.51 35.77 14.89 35.21 14.3 34.62C14.16 34.49 14.02 34.34 13.85 34.16C12.3 33.01 11.02 31.49 10.14 29.77C9.22 27.98 8.75 26.03 8.75 24C8.75 23.9 8.75 23.8 8.76 23.7C8.72 23.84 8.69 23.97 8.67 24.09C8.66 24.11 8.66 24.13 8.66 24.14L8.61 24.38C8.55 24.67 8.48 24.98 8.42 25.34L8.42 25.35C8.42 25.36 8.41 25.37 8.41 25.39C8.38 25.57 8.35 25.76 8.32 25.95C7.86 28.86 7.84 31.82 8.23 34.75L8.24 34.78C8.25 34.9 8.27 35.03 8.29 35.15L8.29 35.18C8.31 35.3 8.33 35.43 8.35 35.55C8.37 35.69 8.4 35.82 8.42 35.95L8.51 36.46C8.52 36.51 8.53 36.56 8.54 36.61C8.55 36.66 8.56 36.71 8.57 36.75C8.63 37.05 8.69 37.31 8.75 37.55C8.77 37.64 8.79 37.73 8.81 37.81C8.94 38.38 9.1 38.96 9.27 39.53C9.33 39.72 9.4 39.92 9.46 40.12C9.49 40.21 9.52 40.31 9.55 40.4C9.59 40.51 9.63 40.62 9.66 40.73C9.71 40.85 9.75 40.96 9.79 41.08C9.83 41.18 9.86 41.28 9.9 41.39L9.93 41.46C10.01 41.69 10.11 41.93 10.22 42.2L19.02 47.2C19.15 47.28 19.39 47.42 19.69 47.55L19.7 47.55C20.09 47.72 20.48 47.83 20.85 47.87C20.9 47.88 20.94 47.88 20.97 47.88Z" />
								<path id="Fill-39" fill-rule="evenodd" class="shp6" d="M42.88 24.61L42.88 33.43C42.88 33.46 42.88 33.5 42.88 33.54L42.88 33.81C42.89 33.98 42.89 34.15 42.87 34.33C42.81 35.04 42.57 35.7 42.17 36.27C42.16 36.3 42.13 36.33 42.1 36.37L42.09 36.39C41.87 36.68 41.59 36.96 41.26 37.22L41.26 37.22L41.25 37.24C41.15 37.31 34.36 41.18 33 41.96C32.4 42.3 31.8 42.65 31.2 42.99L31.17 43.01C31.13 43.03 31.1 43.05 31.06 43.07L31.05 43.07L31.04 43.07C30.88 43.05 30.73 43.02 30.58 42.99C30.42 42.97 30.27 42.94 30.12 42.91C29.97 42.88 29.82 42.85 29.66 42.82C29.51 42.78 29.36 42.75 29.21 42.72C28.91 42.65 28.63 42.58 28.36 42.51C28.05 42.43 27.73 42.35 27.4 42.25C27.26 42.21 27.12 42.16 26.97 42.12C26.83 42.08 26.68 42.03 26.53 41.98C26.52 41.98 26.52 41.98 26.51 41.97C26.5 41.97 26.49 41.97 26.49 41.97C26.2 41.88 25.97 41.8 25.75 41.72L25.61 41.67C25.48 41.62 25.35 41.57 25.22 41.53C24.96 41.43 24.68 41.32 24.36 41.19C24.22 41.13 24.08 41.07 23.94 41.01C21.25 39.87 18.75 38.35 16.5 36.5C16.34 36.37 16.19 36.24 16.02 36.09C15.9 35.99 15.78 35.89 15.66 35.79L15.68 35.74L15.65 35.78C15.65 35.78 15.65 35.77 15.64 35.77L15.63 35.76C15.56 35.69 15.48 35.63 15.41 35.56C15.31 35.47 15.21 35.38 15.12 35.29C15.1 35.28 15.08 35.25 15.06 35.24C15.05 35.23 15.04 35.22 15.04 35.22C14.91 35.1 14.78 34.98 14.65 34.85L14.62 34.82C14.51 34.72 14.41 34.61 14.3 34.51C14.29 34.49 14.27 34.48 14.26 34.47L14.23 34.44L14.29 34.37C16.4 35.82 18.87 36.59 21.44 36.59C23.27 36.59 25.03 36.21 26.68 35.45C27.77 35.16 28.84 34.8 29.86 34.4C32.49 33.36 34.97 31.96 37.23 30.24C39.3 28.66 41.17 26.8 42.8 24.72L42.88 24.61ZM26.71 35.54C25.06 36.3 23.28 36.69 21.44 36.69C19.01 36.69 16.67 36 14.64 34.71C14.65 34.72 14.67 34.74 14.68 34.75L14.72 34.79C14.84 34.91 14.97 35.03 15.1 35.14L15.11 35.16C15.14 35.19 15.16 35.21 15.18 35.22C15.28 35.31 15.37 35.4 15.47 35.49C15.55 35.56 15.62 35.63 15.7 35.69L15.71 35.7L15.68 35.74L15.71 35.71C15.72 35.71 15.72 35.71 15.73 35.72C15.84 35.82 15.96 35.92 16.08 36.02C16.25 36.17 16.4 36.3 16.56 36.43C18.8 38.27 21.3 39.79 23.97 40.93C24.11 40.99 24.26 41.05 24.4 41.11C24.71 41.23 24.99 41.34 25.25 41.44C25.38 41.49 25.51 41.53 25.64 41.58L25.78 41.63C26 41.71 26.23 41.79 26.52 41.88L26.53 41.88C26.54 41.89 26.55 41.89 26.56 41.89C26.71 41.94 26.85 41.99 27 42.03C27.14 42.08 27.29 42.12 27.43 42.16C27.76 42.26 28.08 42.34 28.38 42.42C28.66 42.49 28.93 42.56 29.23 42.62C29.38 42.66 29.53 42.69 29.68 42.72C29.83 42.76 29.99 42.79 30.14 42.82C30.29 42.85 30.44 42.88 30.59 42.9C30.74 42.93 30.88 42.96 31.03 42.98C31.06 42.96 31.09 42.95 31.12 42.93L31.15 42.91C31.75 42.57 32.36 42.22 32.96 41.88C37.78 39.12 40.99 37.29 41.18 37.17L41.19 37.16C41.53 36.9 41.81 36.61 42.03 36.31L42.04 36.29C42.06 36.27 42.08 36.24 42.09 36.22C42.48 35.66 42.71 35.02 42.78 34.32C42.79 34.15 42.8 33.97 42.79 33.81L42.78 33.54C42.79 33.5 42.79 33.46 42.79 33.43L42.79 24.88C41.17 26.93 39.32 28.75 37.29 30.31C35.02 32.04 32.54 33.45 29.9 34.49C28.87 34.89 27.8 35.25 26.71 35.54Z" />
								<path id="Fill-6" fill-rule="evenodd" class="shp7" d="M34.78 13.23C35.18 16.17 35.15 19.14 34.7 22.07L34.7 22.07C34.53 23.13 34.3 24.19 34.02 25.24L34.02 25.24C33.59 29.65 30.9 33.39 27.13 35.29L27.13 35.29C27.21 35.27 27.3 35.24 27.39 35.22L27.39 35.22C27.66 35.14 27.93 35.05 28.19 34.96L28.19 34.96C28.37 34.91 28.54 34.85 28.71 34.79L28.71 34.79C28.71 34.79 28.72 34.79 28.72 34.79L28.72 34.79C28.88 34.73 29.04 34.67 29.2 34.61L29.2 34.61C29.27 34.59 29.34 34.56 29.41 34.54L29.41 34.54C29.55 34.48 29.7 34.42 29.85 34.37L29.85 34.37C32.48 33.33 34.96 31.93 37.21 30.21L37.21 30.21C39.31 28.6 41.21 26.71 42.83 24.62L42.83 24.62L42.83 13.67C42.83 13.67 42.83 13.67 42.83 13.67L42.83 13.67C42.83 13.58 42.83 13.5 42.82 13.42L42.82 13.42C42.82 13.39 42.81 13.36 42.81 13.33L42.81 13.33C42.81 13.31 42.8 13.29 42.8 13.26L42.8 13.26C42.8 13.24 42.79 13.21 42.79 13.18L42.79 13.18C42.78 13.14 42.78 13.11 42.77 13.07L42.77 13.07C42.76 13.03 42.76 12.99 42.75 12.95L42.75 12.95C42.74 12.91 42.73 12.86 42.72 12.82L42.72 12.82C42.71 12.8 42.71 12.78 42.7 12.76L42.7 12.76C42.42 11.68 41.7 10.74 40.69 10.19L40.69 10.19C40.69 10.19 40.68 10.19 40.66 10.18L40.66 10.18C40.58 10.13 40.37 10.02 40.35 10L40.35 10C40.35 10 37.19 8.21 33.6 6.17L33.6 6.17C33.33 6.02 33.05 5.86 32.77 5.7L32.77 5.7C33.75 8.12 34.43 10.66 34.78 13.23Z" />
								<path id="Fill-12" fill-rule="evenodd" class="shp8" d="M20.11 0.4C19.95 0.47 19.8 0.55 19.66 0.63L19.66 0.63L19.42 0.78C19.39 0.79 19.35 0.8 19.32 0.82L19.32 0.82L12 4.91C14.05 5.26 16.06 5.81 17.99 6.55L17.99 6.55C18.31 6.68 18.64 6.81 18.96 6.95L18.96 6.95C21.65 8.09 24.16 9.61 26.41 11.47L26.41 11.47C27.32 12.21 28.18 13.01 29 13.86L29 13.86C32.09 16.17 34.09 19.85 34.09 24L34.09 24C34.09 24.26 34.08 24.52 34.06 24.77L34.06 24.77C34.09 24.66 34.11 24.56 34.14 24.45L34.14 24.45C34.15 24.4 34.17 24.34 34.18 24.29L34.18 24.29C34.21 24.15 34.24 24.01 34.27 23.88L34.27 23.88C34.28 23.84 34.29 23.79 34.3 23.75L34.3 23.75C34.33 23.63 34.35 23.51 34.37 23.39L34.37 23.39C34.38 23.34 34.39 23.29 34.4 23.24L34.4 23.24C34.42 23.16 34.43 23.09 34.45 23.02L34.45 23.02C34.47 22.87 34.5 22.72 34.53 22.57L34.53 22.57C34.56 22.4 34.59 22.23 34.61 22.05L34.61 22.05C35.07 19.14 35.1 16.17 34.7 13.24L34.7 13.24C34.35 10.64 33.65 8.07 32.65 5.63L32.65 5.63C32.08 5.31 31.51 4.98 30.94 4.66L30.94 4.66C27.09 2.47 23.49 0.44 23.4 0.4L23.4 0.4C23.07 0.26 22.67 0.13 22.24 0.08L22.24 0.08C22.19 0.07 22.15 0.07 22.12 0.07L22.12 0.07C21.99 0.05 21.86 0.05 21.73 0.05L21.73 0.05C21.16 0.05 20.61 0.17 20.11 0.4Z" />
								<path id="Fill-18" fill-rule="evenodd" class="shp9" d="M11.68 5.09L9.91 6.08L2.13 10.41C2.13 10.41 2.13 10.41 2.13 10.41L2.13 10.41C2.06 10.45 1.99 10.5 1.92 10.54L1.92 10.54C1.9 10.56 1.87 10.58 1.85 10.6L1.85 10.6C1.83 10.61 1.81 10.62 1.8 10.64L1.8 10.64C1.77 10.65 1.75 10.67 1.73 10.69L1.73 10.69C1.7 10.71 1.67 10.73 1.64 10.76L1.64 10.76C1.61 10.78 1.58 10.81 1.55 10.83L1.55 10.83C1.52 10.86 1.48 10.89 1.45 10.92L1.45 10.92C1.43 10.94 1.42 10.95 1.4 10.96L1.4 10.96C0.59 11.74 0.13 12.81 0.14 13.95L0.14 13.95L0.14 13.99C0.14 14.01 0.12 18.17 0.1 22.72L0.1 22.72C0.1 22.87 0.1 23.03 0.1 23.19L0.1 23.19C0.17 23.1 0.24 23.01 0.3 22.93L0.3 22.93C0.38 22.83 0.45 22.74 0.53 22.65L0.53 22.65C0.62 22.54 0.7 22.44 0.79 22.33L0.79 22.33C0.88 22.22 0.98 22.12 1.07 22.01L1.07 22.01C1.25 21.8 1.44 21.59 1.63 21.38L1.63 21.38C1.67 21.34 1.71 21.29 1.75 21.25L1.75 21.25C1.83 21.16 1.91 21.08 1.99 20.99L1.99 20.99C2.01 20.97 2.03 20.95 2.05 20.93L2.05 20.93C2.15 20.83 2.25 20.73 2.35 20.62L2.35 20.62C2.45 20.52 2.56 20.41 2.66 20.31L2.66 20.31C2.73 20.24 2.79 20.18 2.86 20.11L2.86 20.11C2.94 20.04 3.01 19.96 3.09 19.89L3.09 19.89C3.52 19.48 3.95 19.09 4.39 18.72L4.39 18.72C4.46 18.66 4.53 18.6 4.6 18.55L4.6 18.55C4.64 18.51 4.68 18.48 4.72 18.44L4.72 18.44C4.8 18.37 4.89 18.3 4.97 18.24L4.97 18.24C5.19 18.06 5.41 17.89 5.63 17.72L5.63 17.72C7.88 16 10.37 14.59 13.01 13.55L13.01 13.55C14.04 13.14 15.1 12.79 16.18 12.5L16.18 12.5C17.78 11.76 19.57 11.35 21.44 11.35L21.44 11.35C24.1 11.35 26.57 12.18 28.6 13.58L28.6 13.58C27.89 12.86 27.14 12.18 26.36 11.54L26.36 11.54C26.35 11.54 26.35 11.53 26.35 11.53L26.35 11.53C24.1 9.68 21.61 8.17 18.92 7.03L18.92 7.03C16.68 6.07 14.3 5.38 11.87 4.98L11.87 4.98L11.68 5.09Z" />
								<path id="Fill-24" fill-rule="evenodd" class="shp10" d="M15.55 12.76C15.47 12.79 15.39 12.81 15.32 12.83L15.32 12.83C15.24 12.86 15.16 12.88 15.08 12.91L15.08 12.91C15.05 12.92 15.02 12.93 14.98 12.94L14.98 12.94C14.96 12.95 14.94 12.95 14.91 12.96L14.91 12.96C14.84 12.98 14.78 13 14.71 13.03L14.71 13.03C14.71 13.03 14.7 13.03 14.69 13.03L14.69 13.03C14.61 13.06 14.52 13.09 14.44 13.12L14.44 13.12C14.35 13.15 14.26 13.18 14.18 13.21L14.18 13.21C14.17 13.21 14.17 13.21 14.17 13.21L14.17 13.21C14.01 13.27 13.85 13.32 13.69 13.38L13.69 13.38C13.62 13.41 13.55 13.43 13.48 13.46L13.48 13.46C13.33 13.52 13.18 13.57 13.04 13.63L13.04 13.63C10.4 14.67 7.93 16.07 5.68 17.79L5.68 17.79C5.41 17.99 5.14 18.21 4.88 18.42L4.88 18.42C4.76 18.52 4.64 18.61 4.53 18.71L4.53 18.71C4.4 18.82 4.28 18.92 4.16 19.03L4.16 19.03C4.03 19.14 3.91 19.25 3.79 19.36L3.79 19.36C3.3 19.8 2.83 20.25 2.37 20.72L2.37 20.72C2.27 20.82 2.17 20.92 2.07 21.03L2.07 21.03C1.83 21.28 1.59 21.54 1.36 21.8L1.36 21.8C1.25 21.93 1.14 22.05 1.04 22.18L1.04 22.18C0.94 22.29 0.84 22.4 0.75 22.52L0.75 22.52C0.73 22.54 0.71 22.56 0.69 22.58L0.69 22.58C0.59 22.7 0.5 22.82 0.4 22.93L0.4 22.93C0.3 23.06 0.2 23.19 0.1 23.32L0.1 23.32C0.09 23.93 0.09 24.54 0.09 25.15L0.09 25.15C0.07 29.85 0.05 34.24 0.05 34.24L0.05 34.24L0.05 34.24C0.05 34.33 0.05 34.41 0.06 34.49L0.06 34.49C0.06 34.52 0.07 34.55 0.07 34.58L0.07 34.58C0.07 34.6 0.08 34.62 0.08 34.64L0.08 34.64C0.08 34.67 0.09 34.7 0.09 34.73L0.09 34.73C0.09 34.76 0.1 34.8 0.11 34.84L0.11 34.84C0.12 34.88 0.12 34.92 0.13 34.95L0.13 34.95C0.14 35 0.15 35.04 0.16 35.09L0.16 35.09C0.17 35.11 0.17 35.13 0.18 35.14L0.18 35.14C0.46 36.22 1.17 37.16 2.18 37.7L2.18 37.7C2.18 37.7 2.19 37.71 2.21 37.72L2.21 37.72C2.29 37.76 2.5 37.87 2.52 37.89L2.52 37.89L9.51 41.86L10.07 42.17C10.06 42.15 10.05 42.13 10.04 42.1L10.04 42.1C9.99 41.98 9.94 41.86 9.9 41.73L9.9 41.73C9.6 40.97 9.34 40.2 9.11 39.42L9.11 39.42C9.07 39.28 9.02 39.13 8.98 38.99L8.98 38.99C8.98 38.99 8.98 38.99 8.98 38.98L8.98 38.98C8.94 38.83 8.9 38.68 8.86 38.52L8.86 38.52C8.77 38.21 8.69 37.9 8.62 37.59L8.62 37.59C8.59 37.44 8.55 37.28 8.52 37.12L8.52 37.12C8.48 36.97 8.45 36.81 8.42 36.65L8.42 36.65C8.39 36.5 8.36 36.36 8.33 36.21L8.33 36.21C8.33 36.19 8.33 36.18 8.33 36.16L8.33 36.16C8.3 36.01 8.27 35.87 8.25 35.72L8.25 35.72C8.2 35.4 8.15 35.08 8.1 34.76L8.1 34.76C7.71 31.83 7.73 28.85 8.19 25.93L8.19 25.93C8.36 24.86 8.58 23.8 8.86 22.75L8.86 22.75C9.29 18.35 11.98 14.61 15.76 12.7L15.76 12.7C15.69 12.72 15.62 12.74 15.55 12.76Z" />
								<path id="Fill-30" fill-rule="evenodd" class="shp11" d="M8.73 23.61C8.69 23.77 8.66 23.93 8.62 24.08L8.62 24.08C8.62 24.1 8.61 24.11 8.61 24.13L8.61 24.13C8.59 24.21 8.58 24.29 8.56 24.37L8.56 24.37C8.49 24.69 8.43 25.01 8.37 25.33L8.37 25.33C8.37 25.33 8.37 25.34 8.37 25.34L8.37 25.34C8.37 25.35 8.37 25.37 8.37 25.38L8.37 25.38C8.33 25.57 8.3 25.75 8.27 25.94L8.27 25.94C7.82 28.86 7.79 31.82 8.19 34.75L8.19 34.75C8.2 34.89 8.22 35.02 8.24 35.16L8.24 35.16C8.26 35.29 8.28 35.43 8.31 35.56L8.31 35.56C8.33 35.69 8.35 35.83 8.37 35.96L8.37 35.96C8.39 36.07 8.41 36.18 8.43 36.29L8.43 36.29C8.45 36.35 8.46 36.41 8.47 36.47L8.47 36.47C8.49 36.57 8.51 36.67 8.53 36.76L8.53 36.76C8.58 37.03 8.64 37.3 8.7 37.56L8.7 37.56C8.72 37.65 8.74 37.74 8.76 37.82L8.76 37.82C8.9 38.4 9.06 38.97 9.23 39.54L9.23 39.54C9.29 39.74 9.35 39.94 9.42 40.14L9.42 40.14C9.45 40.23 9.48 40.32 9.51 40.41L9.51 40.41C9.54 40.52 9.58 40.63 9.62 40.74L9.62 40.74C9.66 40.86 9.7 40.98 9.75 41.1L9.75 41.1C9.79 41.22 9.84 41.35 9.89 41.48L9.89 41.48C9.98 41.73 10.08 41.99 10.18 42.24L10.18 42.24L10.18 42.24L11.82 43.17L18.93 47.21C19.05 47.27 19.32 47.44 19.68 47.59L19.68 47.59L19.68 47.59C20.01 47.73 20.41 47.86 20.85 47.92L20.85 47.92L20.85 47.92C20.89 47.92 20.94 47.93 20.96 47.93L20.96 47.93C21.68 48 22.37 47.87 22.99 47.59L22.99 47.59C23.15 47.52 23.3 47.45 23.45 47.36L23.45 47.36C23.45 47.36 27 45.33 30.93 43.09L30.93 43.09C30.84 43.08 30.74 43.06 30.65 43.04L30.65 43.04C30.51 43.02 30.37 42.99 30.23 42.96L30.23 42.96C30.11 42.94 30 42.92 29.88 42.9L29.88 42.9C29.76 42.87 29.63 42.85 29.5 42.82L29.5 42.82C29.37 42.79 29.25 42.76 29.12 42.73L29.12 42.73C28.86 42.67 28.61 42.61 28.36 42.55L28.36 42.55C28.11 42.48 27.86 42.42 27.61 42.35L27.61 42.35C27.61 42.35 27.6 42.35 27.6 42.34L27.6 42.34C27.37 42.28 27.15 42.21 26.92 42.14L26.92 42.14C26.9 42.14 26.87 42.13 26.85 42.12L26.85 42.12C26.74 42.09 26.64 42.05 26.53 42.02L26.53 42.02C26.5 42.01 26.48 42 26.45 41.99L26.45 41.99C26.33 41.95 26.21 41.91 26.09 41.87L26.09 41.87C25.85 41.79 25.61 41.71 25.37 41.62L25.37 41.62C25.25 41.58 25.13 41.53 25.01 41.48L25.01 41.48C24.97 41.47 24.93 41.46 24.9 41.44L24.9 41.44C24.81 41.41 24.73 41.38 24.64 41.34L24.64 41.34C24.52 41.29 24.4 41.25 24.28 41.2L24.28 41.2C24.16 41.15 24.04 41.1 23.92 41.05L23.92 41.05C21.24 39.9 18.73 38.38 16.48 36.53L16.48 36.53C16.37 36.44 16.26 36.35 16.16 36.26L16.16 36.26C15.53 35.73 14.92 35.17 14.33 34.59L14.33 34.59C14.18 34.44 14.03 34.28 13.88 34.13L13.88 34.13C10.8 31.82 8.8 28.14 8.8 24L8.8 24C8.8 23.74 8.81 23.48 8.82 23.23L8.82 23.23C8.79 23.36 8.76 23.48 8.73 23.61Z" />
								<path id="Fill-36" fill-rule="evenodd" class="shp12" d="M37.26 30.27C35 32 32.52 33.4 29.88 34.44L29.88 34.44C28.84 34.85 27.78 35.2 26.7 35.5L26.7 35.5C25.1 36.23 23.32 36.64 21.44 36.64L21.44 36.64C18.78 36.64 16.3 35.81 14.27 34.41L14.27 34.41C14.29 34.43 14.31 34.45 14.34 34.48L14.34 34.48C14.44 34.58 14.54 34.68 14.65 34.79L14.65 34.79L14.69 34.82C14.81 34.94 14.94 35.06 15.06 35.18L15.06 35.18C15.07 35.19 15.08 35.19 15.08 35.2L15.08 35.2C15.1 35.22 15.13 35.24 15.15 35.26L15.15 35.26C15.25 35.35 15.34 35.44 15.44 35.53L15.44 35.53C15.52 35.6 15.6 35.67 15.68 35.74L15.68 35.74C15.68 35.74 15.69 35.75 15.69 35.75L15.69 35.75C15.81 35.86 15.93 35.96 16.05 36.06L16.05 36.06C16.2 36.2 16.36 36.33 16.53 36.46L16.53 36.46C18.78 38.31 21.28 39.83 23.96 40.97L23.96 40.97C24.1 41.03 24.24 41.09 24.38 41.15L24.38 41.15C24.66 41.26 24.95 41.38 25.24 41.48L25.24 41.48C25.37 41.53 25.5 41.58 25.63 41.62L25.63 41.62C25.67 41.64 25.72 41.66 25.76 41.67L25.76 41.67C26.01 41.76 26.26 41.84 26.5 41.92L26.5 41.92C26.52 41.93 26.53 41.93 26.54 41.94L26.54 41.94C26.69 41.98 26.84 42.03 26.99 42.08L26.99 42.08C27.13 42.12 27.27 42.16 27.42 42.2L27.42 42.2C27.73 42.3 28.05 42.38 28.37 42.47L28.37 42.47C28.66 42.54 28.94 42.61 29.22 42.67L29.22 42.67C29.37 42.71 29.52 42.74 29.67 42.77L29.67 42.77C29.83 42.8 29.98 42.83 30.13 42.86L30.13 42.86C30.28 42.89 30.43 42.92 30.58 42.95L30.58 42.95C30.74 42.98 30.89 43 31.04 43.03L31.04 43.03L31.04 43.03C31.09 43 31.13 42.98 31.18 42.95L31.18 42.95C31.78 42.61 32.38 42.26 32.98 41.92L32.98 41.92C37.16 39.53 41.15 37.25 41.22 37.2L41.22 37.2L41.22 37.2C41.5 36.98 41.81 36.69 42.06 36.34L42.06 36.34L42.07 36.34C42.09 36.31 42.12 36.27 42.13 36.25L42.13 36.25C42.54 35.66 42.76 35 42.82 34.32L42.82 34.32C42.84 34.15 42.84 33.98 42.84 33.81L42.84 33.81L42.83 33.54C42.83 33.5 42.83 33.46 42.83 33.43L42.83 33.43L42.83 24.75C41.22 26.82 39.33 28.69 37.26 30.27Z" />
							</g>
							<path id="Oval" class="shp13" d="M21.44 36.78C14.42 36.78 8.74 31.11 8.74 24.08C8.74 17.06 14.42 11.38 21.44 11.38C28.47 11.38 34.14 17.06 34.14 24.08C34.14 31.11 28.47 36.78 21.44 36.78Z" />
							<g id="Group-4">
								<path id="Fill-56" fill-rule="evenodd" class="shp13" d="M29.53 29.65C29.53 30.08 29.19 30.42 28.76 30.42L17.48 30.42C17.39 30.42 17.33 30.35 17.33 30.27C17.33 30.18 17.39 30.11 17.48 30.11L24.12 30.11C23.95 30.02 23.78 29.9 23.63 29.77L17.02 23.89C16.86 23.75 16.77 23.55 16.76 23.34C16.75 23.13 16.83 22.92 16.99 22.77L17.37 22.39L19 20.45L18.23 20.45C17.79 20.45 17.39 20.23 17.15 19.87L16.79 19.32C16.37 19.31 15.99 19.09 15.76 18.74L15.4 18.19C15 18.17 14.62 17.95 14.4 17.61L14 16.99C13.97 16.95 13.96 16.88 13.99 16.83C14.02 16.78 14.07 16.75 14.13 16.75L19.2 16.75C19.92 16.75 20.51 17.31 20.53 18.03C20.53 18.03 20.53 18.04 20.53 18.04L20.53 19.04C20.62 19.02 20.71 19.01 20.81 19.01L21.69 19.01C21.77 19.01 21.84 19.08 21.84 19.16L21.84 20.3C21.84 21.1 22.5 21.76 23.31 21.76L24.93 21.76C24.99 21.76 25.05 21.8 25.07 21.86L25.44 22.86L25.84 22.86C25.93 22.86 25.99 22.93 25.99 23.01C25.99 23.1 25.93 23.17 25.84 23.17L25.56 23.17L25.8 23.82L26.21 23.82C26.3 23.82 26.37 23.89 26.37 23.98C26.37 24.06 26.3 24.13 26.21 24.13L25.92 24.13L26.16 24.79L26.59 24.79C26.67 24.79 26.74 24.86 26.74 24.94C26.74 25.03 26.67 25.1 26.59 25.1L26.28 25.1L26.41 25.46C26.53 25.79 26.77 26.07 27.07 26.25L28.96 27.38C29.31 27.6 29.53 27.99 29.53 28.4L29.53 29.65ZM29.22 29.18L25.81 29.18C25.17 29.18 24.56 28.95 24.08 28.53L21.29 26.06C21.22 26.01 21.22 25.91 21.27 25.84C21.33 25.78 21.43 25.77 21.49 25.83L24.28 28.29C24.71 28.67 25.25 28.87 25.81 28.87L29.22 28.87L29.22 28.4C29.22 28.09 29.06 27.81 28.8 27.65L26.91 26.52C26.55 26.3 26.27 25.96 26.12 25.56L25.94 25.1L25.36 25.1C25.27 25.1 25.2 25.03 25.2 24.94C25.2 24.86 25.27 24.79 25.36 24.79L25.83 24.79L25.59 24.13L24.99 24.13C24.9 24.13 24.83 24.06 24.83 23.98C24.83 23.89 24.9 23.82 24.99 23.82L25.47 23.82L25.23 23.17L24.61 23.17C24.53 23.17 24.46 23.1 24.46 23.01C24.46 22.93 24.53 22.86 24.61 22.86L25.11 22.86L24.82 22.07L23.31 22.07C22.33 22.07 21.53 21.28 21.53 20.3L21.53 19.32L20.81 19.32C20.71 19.32 20.61 19.33 20.51 19.36C20.41 19.92 19.97 20.35 19.42 20.43L18.97 20.97L19.54 21.46C20.24 22.05 20.33 23.11 19.73 23.81L19.51 24.08L20.33 24.8C20.39 24.86 20.4 24.96 20.34 25.02C20.28 25.09 20.19 25.09 20.12 25.04L17.49 22.71L17.21 22.99C17.12 23.08 17.07 23.2 17.07 23.33C17.08 23.46 17.13 23.57 17.23 23.66L23.84 29.54C24.26 29.91 24.8 30.11 25.36 30.11L28.76 30.11C29.02 30.11 29.22 29.91 29.22 29.65L29.22 29.18ZM20.93 25.33C20.99 25.39 21 25.49 20.94 25.55C20.91 25.59 20.87 25.61 20.83 25.61C20.79 25.61 20.75 25.59 20.72 25.57L20.65 25.5C20.58 25.44 20.57 25.34 20.63 25.28C20.69 25.21 20.79 25.21 20.85 25.26L20.93 25.33ZM17.7 22.48L19.27 23.87L19.49 23.61C19.98 23.04 19.91 22.18 19.34 21.69L18.77 21.21L17.7 22.48ZM19.2 20.14C19.24 20.14 19.28 20.14 19.32 20.13C19.32 20.13 19.32 20.13 19.32 20.13C19.79 20.08 20.17 19.7 20.22 19.23C20.22 19.23 20.22 19.23 20.22 19.23C20.22 19.21 20.22 19.19 20.22 19.16L20.22 18.04C20.2 17.49 19.75 17.06 19.2 17.06L14.42 17.06L14.66 17.44C14.84 17.72 15.15 17.88 15.48 17.88L18.89 17.88C18.98 17.88 19.05 17.95 19.05 18.04C19.05 18.12 18.98 18.19 18.89 18.19L15.78 18.19L16.02 18.57C16.2 18.85 16.51 19.01 16.84 19.01L18.89 19.01C18.98 19.01 19.05 19.08 19.05 19.17C19.05 19.25 18.98 19.32 18.89 19.32L17.16 19.32L17.41 19.7C17.59 19.97 17.9 20.14 18.23 20.14L19.2 20.14ZM16.77 30.11C16.86 30.11 16.92 30.18 16.92 30.27C16.92 30.35 16.86 30.42 16.77 30.42L16.57 30.42C16.49 30.42 16.42 30.35 16.42 30.27C16.42 30.18 16.49 30.11 16.57 30.11L16.77 30.11Z" />
								<path id="Fill-59" fill-rule="evenodd" class="shp14" d="M19.2 17.06C19.75 17.06 20.2 17.49 20.22 18.04L20.22 19.16C20.22 19.19 20.22 19.21 20.22 19.23C20.22 19.23 20.22 19.23 20.22 19.23C20.17 19.7 19.79 20.08 19.32 20.13C19.32 20.13 19.32 20.13 19.32 20.13C19.28 20.14 19.24 20.14 19.2 20.14L18.23 20.14C17.9 20.14 17.59 19.97 17.41 19.7L17.16 19.32L18.89 19.32C18.98 19.32 19.05 19.25 19.05 19.17C19.05 19.08 18.98 19.01 18.89 19.01L16.84 19.01C16.51 19.01 16.2 18.85 16.02 18.57L15.78 18.19L18.89 18.19C18.98 18.19 19.05 18.12 19.05 18.04C19.05 17.95 18.98 17.88 18.89 17.88L15.48 17.88C15.15 17.88 14.84 17.72 14.66 17.44L14.42 17.06L19.2 17.06ZM21.53 19.32L21.53 20.3C21.53 21.28 22.33 22.07 23.31 22.07L24.82 22.07L25.11 22.86L24.61 22.86C24.53 22.86 24.46 22.93 24.46 23.01C24.46 23.1 24.53 23.17 24.61 23.17L25.47 23.82L24.99 23.82C24.9 23.82 24.83 23.89 24.83 23.98C24.83 24.06 24.9 24.13 24.99 24.13L25.59 24.13L25.83 24.79L25.36 24.79C25.27 24.79 25.27 25.1 25.36 25.1L25.94 25.1L26.12 25.56C26.27 25.96 26.55 26.3 26.91 26.52L28.8 27.65C29.06 27.81 29.22 28.09 29.22 28.4L29.22 28.87L25.81 28.87C25.25 28.87 24.71 28.67 24.28 28.29L21.49 25.83C21.43 25.77 21.33 25.78 21.27 25.84C21.22 25.91 21.22 26.01 21.29 26.06L24.08 28.53C24.56 28.95 25.17 29.18 25.81 29.18L29.22 29.18L29.22 29.65C29.22 29.66 29.22 29.66 29.22 29.66C29.2 29.69 28.98 30.06 28.6 30.11L25.36 30.11C24.8 30.11 24.26 29.91 23.84 29.54L17.23 23.66C17.13 23.57 17.08 23.46 17.07 23.33C17.07 23.2 17.12 23.08 17.21 22.99L17.49 22.71L20.12 25.04C20.19 25.09 20.28 25.09 20.34 25.02C20.4 24.96 20.39 24.86 20.33 24.8L19.51 24.08L19.73 23.81C20.33 23.11 20.24 22.05 19.54 21.46L18.97 20.97L19.42 20.43C19.97 20.35 20.41 19.92 20.51 19.36C20.61 19.33 20.71 19.32 20.81 19.32L21.53 19.32ZM18.77 21.21L19.34 21.69C19.91 22.18 19.98 23.04 19.49 23.61L19.27 23.87L17.7 22.48L18.77 21.21ZM29.22 29.66C29.22 29.66 29.22 29.65 29.22 29.65C29.22 30.08 28.87 30.42 28.45 30.42L17.48 30.42C17.39 30.42 17.33 30.35 17.33 30.27C17.33 30.18 17.39 30.11 17.48 30.11L24.12 30.11C24.12 30.11 27.3 30.12 28.52 30.11C28.55 30.11 28.58 30.11 28.6 30.11L28.75 30.11C29.01 30.11 29.22 29.91 29.22 29.66ZM16.77 30.11C16.86 30.11 16.92 30.18 16.92 30.27C16.92 30.35 16.86 30.42 16.77 30.42L16.57 30.42C16.49 30.42 16.42 30.35 16.42 30.27C16.42 30.18 16.49 30.11 16.57 30.11L16.77 30.11Z" />
								<path id="Fill-62" fill-rule="evenodd" class="shp15" d="M14.42 17.06L14.66 17.44C14.84 17.72 15.15 17.88 15.48 17.88L15.48 17.88L15.49 17.88L18.89 17.88C18.98 17.88 19.05 17.95 19.05 18.04L19.05 18.04C19.05 18.12 18.98 18.19 18.89 18.19L18.89 18.19L15.78 18.19L16.02 18.57C16.2 18.85 16.51 19.01 16.84 19.01L16.84 19.01L16.88 19.01L18.89 19.01C18.98 19.01 19.05 19.08 19.05 19.17L19.05 19.17C19.05 19.25 18.98 19.32 18.89 19.32L18.89 19.32L17.16 19.32L17.41 19.7C17.59 19.97 17.9 20.14 18.23 20.14L18.23 20.14L19.2 20.14C19.24 20.14 19.28 20.14 19.32 20.13L19.32 20.13C19.32 20.13 19.32 20.13 19.32 20.13L19.32 20.13C19.79 20.08 20.17 19.7 20.22 19.23L20.22 19.23C20.22 19.23 20.22 19.23 20.22 19.23L20.22 19.23C20.22 19.21 20.22 19.19 20.22 19.16L20.22 19.16L20.22 18.04C20.2 17.49 19.75 17.06 19.2 17.06L19.2 17.06L14.42 17.06Z" />
								<path id="Fill-65" fill-rule="evenodd" class="shp16" d="M20.81 19.32C20.71 19.32 20.61 19.33 20.51 19.36L20.51 19.36C20.41 19.92 19.97 20.35 19.42 20.43L19.42 20.43L18.97 20.97L17.49 22.71L17.21 22.99C17.12 23.08 17.07 23.2 17.07 23.33L17.07 23.33C17.08 23.46 17.13 23.57 17.23 23.66L17.23 23.66L23.84 29.54C24.26 29.91 24.8 30.11 25.36 30.11L25.36 30.11L28.76 30.11C29.02 30.11 29.22 29.91 29.22 29.65L29.22 29.65L29.22 29.18L29.22 28.87L29.22 28.4C29.22 28.09 29.06 27.81 28.8 27.65L28.8 27.65L26.91 26.52C26.55 26.3 26.27 25.96 26.12 25.56L26.12 25.56L25.94 25.1L25.36 25.1C25.27 25.1 25.2 25.03 25.2 24.94L25.2 24.94C25.2 24.86 25.27 24.79 25.36 24.79L25.36 24.79L25.83 24.79L25.59 24.13L24.99 24.13C24.9 24.13 24.83 24.06 24.83 23.98L24.83 23.98C24.83 23.89 24.9 23.82 24.99 23.82L24.99 23.82L25.47 23.82L25.23 23.17L24.61 23.17C24.53 23.17 24.46 23.1 24.46 23.01L24.46 23.01C24.46 22.93 24.53 22.86 24.61 22.86L24.61 22.86L25.11 22.86L24.82 22.07L23.31 22.07C22.33 22.07 21.53 21.28 21.53 20.3L21.53 20.3L21.53 19.32L20.81 19.32Z" />
							</g>
						</g>
					</g>
				</g>
			</g>
		</g>
	</g>
</svg>