<?xml version="1.0" encoding="UTF-8"?>
<svg width="22px" height="22px" viewBox="0 0 22 22" version="1.1" xmlns="http://www.w3.org/2000/svg" xmlns:xlink="http://www.w3.org/1999/xlink">
    <!-- Generator: sketchtool 61 (101010) - https://sketch.com -->
    <title>DBDB2202-2DF4-4834-9977-C4344CFACC3A</title>
    <desc>Created with sketchtool.</desc>
    <g id="Style-guide" stroke="none" stroke-width="1" fill="none" fill-rule="evenodd" stroke-linecap="round" stroke-linejoin="round">
        <g id="Style-Guide" transform="translate(-165.000000, -576.000000)" stroke-width="1.5">
            <g id="Ic/20/F2F" transform="translate(166.000000, 577.000000)">
                <g id="b-chat">
                    <path d="M13.125,0.625 L1.875,0.625 C1.185,0.625 0.625,1.185 0.625,1.875 L0.625,9.375 C0.625,10.065 1.185,10.625 1.875,10.625 L4.375,10.625 L4.375,14.375 L8.125,10.625 L13.125,10.625 C13.815,10.625 14.375,10.065 14.375,9.375 L14.375,1.875 C14.375,1.185 13.815,0.625 13.125,0.625 Z" id="Path" stroke="#53C3B9"></path>
                    <path d="M8.125,15.625 L11.875,15.625 L15.625,19.375 L15.625,15.625 L18.125,15.625 C18.815,15.625 19.375,15.065 19.375,14.375 L19.375,6.875 C19.375,6.185 18.815,5.625 18.125,5.625 L16.875,5.625" id="Path" stroke="#FFB420"></path>
                </g>
            </g>
        </g>
    </g>
</svg>