<?xml version="1.0" encoding="UTF-8"?>
<svg width="103px" height="106px" viewBox="0 0 103 106" version="1.1" xmlns="http://www.w3.org/2000/svg" xmlns:xlink="http://www.w3.org/1999/xlink">
    <!-- Generator: sketchtool 61 (101010) - https://sketch.com -->
    <title>77AE7B72-9DF3-4604-95DC-078E42CF90C8</title>
    <desc>Created with sketchtool.</desc>
    <g id="Application-Management" stroke="none" stroke-width="1" fill="none" fill-rule="evenodd">
        <g id="2000_Application_Management_Empty" transform="translate(-781.000000, -313.000000)">
            <g id="Group-18" transform="translate(251.000000, 210.000000)">
                <g id="Group-17" transform="translate(397.000000, 105.000000)">
                    <g id="Group" transform="translate(135.000000, 0.000000)">
                        <g id="multiple-11" stroke="#2AAEB7" stroke-linecap="round" stroke-linejoin="round" stroke-width="5.6">
                            <rect id="Rectangle" x="6.4" y="12" width="16.8" height="16.8" rx="8.4"></rect>
                            <path d="M17.6,79.2 L6.4,79.2 L6.4,62.4 L0.8,62.4 L0.8,45.6 C0.8,42.5072054 3.3072054,40 6.4,40 L12,40" id="Path"></path>
                            <rect id="Rectangle" transform="translate(70.800000, 20.400000) rotate(-180.000000) translate(-70.800000, -20.400000) " x="62.4" y="12" width="16.8" height="16.8" rx="8.4"></rect>
                            <path d="M68,79.2 L79.2,79.2 L79.2,62.4 L84.8,62.4 L84.8,45.6 C84.8,42.5072054 82.2927946,40 79.2,40 L73.6,40" id="Path"></path>
                            <rect id="Rectangle" x="31.6" y="0.8" width="22.4" height="22.4" rx="11.2"></rect>
                            <path d="M56.8,84.8 L28.8,84.8 L28.8,62.4 L23.2,62.4 L23.2,45.6 C23.2,39.4144108 28.2144108,34.4 34.4,34.4 L51.2,34.4 C57.3855892,34.4 62.4,39.4144108 62.4,45.6 L62.4,62.4 L56.8,62.4 L56.8,84.8 Z" id="Path"></path>
                        </g>
                        <g id="Group-2" transform="translate(52.000000, 55.000000)">
                            <path d="M20.5869503,-3.55172414 C33.9505169,-3.55172414 44.8628124,7.36057135 44.8628124,20.7241379 C44.8628124,34.0877045 33.9505169,45 20.5869503,45 C7.22338376,45 -3.68891172,34.0877045 -3.68891172,20.7241379 C-3.68891172,7.36057135 7.22338376,-3.55172414 20.5869503,-3.55172414 Z" id="Path" stroke="#FFFFFF" stroke-width="8" fill="#2AAEB7"></path>
                            <path d="M30.7248814,22.4137931 L22.2766055,22.4137931 L22.2766055,30.862069 C22.2766055,31.8784979 21.6033793,32.5517241 20.5869503,32.5517241 C19.5705214,32.5517241 18.8972952,31.8784979 18.8972952,30.862069 L18.8972952,22.4137931 L10.4490193,22.4137931 C9.43259034,22.4137931 8.75936414,21.7405669 8.75936414,20.7241379 C8.75936414,19.707709 9.43259034,19.0344828 10.4490193,19.0344828 L18.8972952,19.0344828 L18.8972952,10.5862069 C18.8972952,9.56977793 19.5705214,8.89655172 20.5869503,8.89655172 C21.6033793,8.89655172 22.2766055,9.56977793 22.2766055,10.5862069 L22.2766055,19.0344828 L30.7248814,19.0344828 C31.7413103,19.0344828 32.4145366,19.707709 32.4145366,20.7241379 C32.4145366,21.7405669 31.7413103,22.4137931 30.7248814,22.4137931 Z" id="Path" fill="#FFFFFF"></path>
                        </g>
                    </g>
                </g>
            </g>
        </g>
    </g>
</svg>
