<?xml version="1.0" encoding="UTF-8"?>
<svg width="25px" height="25px" viewBox="0 0 25 25" version="1.1" xmlns="http://www.w3.org/2000/svg" xmlns:xlink="http://www.w3.org/1999/xlink">
    <!-- Generator: sketchtool 61 (101010) - https://sketch.com -->
    <title>2F14B46D-50D4-4B9A-85EC-4918B5C25468</title>
    <desc>Created with sketchtool.</desc>
    <g id="Application-Management" stroke="none" stroke-width="1" fill="none" fill-rule="evenodd">
        <g id="2010_Application_Management_Status_All" transform="translate(-20.000000, -115.000000)" fill="#FFFFFF" fill-rule="nonzero">
            <g id="Group-16">
                <g id="Group-14">
                    <g id="Group-11" transform="translate(0.000000, 106.000000)">
                        <g id="Group-9">
                            <g id="Group-6" transform="translate(20.000000, 0.000000)">
                                <g id="Group-4" transform="translate(0.000000, 9.000000)">
                                    <path d="M4.5751634,3.05010893 C6.25969205,3.05010893 7.62527233,4.41568922 7.62527233,6.10021786 C7.62527233,7.78474651 6.25969205,9.1503268 4.5751634,9.1503268 C2.89063475,9.1503268 1.52505447,7.78474651 1.52505447,6.10021786 C1.52505447,4.41568922 2.89063475,3.05010893 4.5751634,3.05010893 Z M4.5751634,4.5751634 C3.73289907,4.5751634 3.05010893,5.25795354 3.05010893,6.10021786 C3.05010893,6.94248219 3.73289907,7.62527233 4.5751634,7.62527233 C5.41742772,7.62527233 6.10021786,6.94248219 6.10021786,6.10021786 C6.10021786,5.25795354 5.41742772,4.5751634 4.5751634,4.5751634 Z" id="Rectangle"></path>
                                    <path d="M3.05010893,17.5381264 C3.05010893,17.1169942 2.70871386,16.7755991 2.2875817,16.7755991 L1.52505447,16.7755991 L1.52505447,12.962963 C1.52505447,12.5418308 1.86644954,12.2004357 2.2875817,12.2004357 L3.81263617,12.2004357 C4.23376833,12.2004357 4.5751634,11.8590407 4.5751634,11.4379085 C4.5751634,11.0167763 4.23376833,10.6753813 3.81263617,10.6753813 L2.2875817,10.6753813 C1.02418521,10.6753813 -1.15463195e-14,11.6995665 -1.15463195e-14,12.962963 L-1.15463195e-14,17.5381264 C-1.15463195e-14,17.9592585 0.341395071,18.3006536 0.762527233,18.3006536 L1.52505447,18.3006536 L1.52505447,22.1132898 C1.52505447,22.5344219 1.86644954,22.875817 2.2875817,22.875817 L5.33769063,22.875817 C5.75882279,22.875817 6.10021786,22.5344219 6.10021786,22.1132898 C6.10021786,21.6921576 5.75882279,21.3507625 5.33769063,21.3507625 L3.05010893,21.3507625 L3.05010893,17.5381264 Z" id="Path"></path>
                                    <path d="M19.8257081,3.05010893 C21.5102367,3.05010893 22.875817,4.41568922 22.875817,6.10021786 C22.875817,7.78474651 21.5102367,9.1503268 19.8257081,9.1503268 C18.1411794,9.1503268 16.7755991,7.78474651 16.7755991,6.10021786 C16.7755991,4.41568922 18.1411794,3.05010893 19.8257081,3.05010893 Z M19.8257081,4.5751634 C18.9834437,4.5751634 18.3006536,5.25795354 18.3006536,6.10021786 C18.3006536,6.94248219 18.9834437,7.62527233 19.8257081,7.62527233 C20.6679724,7.62527233 21.3507625,6.94248219 21.3507625,6.10021786 C21.3507625,5.25795354 20.6679724,4.5751634 19.8257081,4.5751634 Z" id="Rectangle" transform="translate(19.825708, 6.100218) rotate(-180.000000) translate(-19.825708, -6.100218) "></path>
                                    <path d="M23.6383442,18.3006536 C24.0594764,18.3006536 24.4008715,17.9592585 24.4008715,17.5381264 L24.4008715,12.962963 C24.4008715,11.6995665 23.3766862,10.6753813 22.1132898,10.6753813 L20.5882353,10.6753813 C20.1671031,10.6753813 19.8257081,11.0167763 19.8257081,11.4379085 C19.8257081,11.8590407 20.1671031,12.2004357 20.5882353,12.2004357 L22.1132898,12.2004357 C22.5344219,12.2004357 22.875817,12.5418308 22.875817,12.962963 L22.875817,16.7755991 L22.1132898,16.7755991 C21.6921576,16.7755991 21.3507625,17.1169942 21.3507625,17.5381264 L21.3507625,21.3507625 L19.0631808,21.3507625 C18.6420487,21.3507625 18.3006536,21.6921576 18.3006536,22.1132898 C18.3006536,22.5344219 18.6420487,22.875817 19.0631808,22.875817 L22.1132898,22.875817 C22.5344219,22.875817 22.875817,22.5344219 22.875817,22.1132898 L22.875817,18.3006536 L23.6383442,18.3006536 Z" id="Path"></path>
                                    <path d="M12.2004357,-1.0658141e-13 C14.3060965,-1.0658141e-13 16.0130719,1.70697535 16.0130719,3.81263617 C16.0130719,5.91829698 14.3060965,7.62527233 12.2004357,7.62527233 C10.0947749,7.62527233 8.38779956,5.91829698 8.38779956,3.81263617 C8.38779956,1.70697535 10.0947749,-1.0658141e-13 12.2004357,-1.0658141e-13 Z M12.2004357,1.52505447 C10.9370392,1.52505447 9.91285403,2.54923968 9.91285403,3.81263617 C9.91285403,5.07603265 10.9370392,6.10021786 12.2004357,6.10021786 C13.4638322,6.10021786 14.4880174,5.07603265 14.4880174,3.81263617 C14.4880174,2.54923968 13.4638322,1.52505447 12.2004357,1.52505447 Z" id="Rectangle"></path>
                                    <path d="M16.7755991,18.3006536 L16.7755991,23.6383442 C16.7755991,24.0594764 16.4342041,24.4008715 16.0130719,24.4008715 L8.38779956,24.4008715 C7.9666674,24.4008715 7.62527233,24.0594764 7.62527233,23.6383442 L7.62527233,18.3006536 L6.8627451,18.3006536 C6.44161294,18.3006536 6.10021786,17.9592585 6.10021786,17.5381264 L6.10021786,12.962963 C6.10021786,10.8573022 7.80719322,9.1503268 9.91285403,9.1503268 L14.4880174,9.1503268 C16.5936782,9.1503268 18.3006536,10.8573022 18.3006536,12.962963 L18.3006536,17.5381264 C18.3006536,17.9592585 17.9592585,18.3006536 17.5381264,18.3006536 L16.7755991,18.3006536 Z M15.2505447,17.5381264 C15.2505447,17.1169942 15.5919397,16.7755991 16.0130719,16.7755991 L16.7755991,16.7755991 L16.7755991,12.962963 C16.7755991,11.6995665 15.7514139,10.6753813 14.4880174,10.6753813 L9.91285403,10.6753813 C8.64945754,10.6753813 7.62527233,11.6995665 7.62527233,12.962963 L7.62527233,16.7755991 L8.38779956,16.7755991 C8.80893173,16.7755991 9.1503268,17.1169942 9.1503268,17.5381264 L9.1503268,22.875817 L15.2505447,22.875817 L15.2505447,17.5381264 Z" id="Path"></path>
                                </g>
                            </g>
                        </g>
                    </g>
                </g>
            </g>
        </g>
    </g>
</svg>
