<?xml version="1.0" encoding="UTF-8"?>
<svg width="18px" height="18px" viewBox="0 0 18 18" version="1.1" xmlns="http://www.w3.org/2000/svg" xmlns:xlink="http://www.w3.org/1999/xlink">
    <!-- Generator: sketchtool 61 (101010) - https://sketch.com -->
    <title>297B54F8-B552-43B1-B047-3E6935591A3C</title>
    <desc>Created with sketchtool.</desc>
    <g id="Application-Management" stroke="none" stroke-width="1" fill="none" fill-rule="evenodd">
        <g id="2020_Application_Management_Add_New_Application" transform="translate(-622.000000, -101.000000)" fill="#111111" fill-rule="nonzero">
            <g id="Group-3" transform="translate(-448.000000, -186.000000)">
                <g id="Group-7" transform="translate(518.000000, 249.000000)">
                    <path d="M562.414058,47 L569.70703,39.7070255 C570.09765,39.3164054 570.09765,38.6835852 569.70703,38.2929651 C569.31641,37.902345 568.68359,37.902345 568.29297,38.2929651 L561,45.5859371 L553.707025,38.2929651 C553.316405,37.902345 552.683585,37.902345 552.292965,38.2929651 C551.902345,38.6835852 551.902345,39.3164054 552.292965,39.7070255 L559.585937,47 L552.292965,54.2929695 C551.902345,54.6835896 551.902345,55.3164098 552.292965,55.7070299 C552.488275,55.90234 552.744135,56 553,56 C553.255855,56 553.511715,55.90234 553.707025,55.7070299 L561,48.4140579 L568.29297,55.7070299 C568.48828,55.90234 568.74414,56 569,56 C569.25586,56 569.51172,55.90234 569.70703,55.7070299 C570.09765,55.3164098 570.09765,54.6835896 569.70703,54.2929695 L562.414058,47 Z" id="Button_close_popup"></path>
                </g>
            </g>
        </g>
    </g>
</svg>
