<?xml version="1.0" encoding="UTF-8"?>
<svg width="25px" height="25px" viewBox="0 0 25 25" version="1.1" xmlns="http://www.w3.org/2000/svg" xmlns:xlink="http://www.w3.org/1999/xlink">
    <!-- Generator: Sketch 46.2 (44496) - http://www.bohemiancoding.com/sketch -->
    <title>Icon_consolidate</title>
    <desc>Created with Sketch.</desc>
    <defs></defs>
    <g id="Page-1" stroke="none" stroke-width="1" fill="none" fill-rule="evenodd">
        <g id="Icon_consolidate" fill-rule="nonzero" fill="#333333">
            <g id="explore-user" transform="translate(0.000000, 0.000000)">
                <circle id="Oval" cx="12.5" cy="9.375" r="2.34375"></circle>
                <path d="M17.1875,17.1875 L17.1875,15.6382813 C17.1875,15.0835937 16.896875,14.5734375 16.4195312,14.290625 C15.659375,13.8414062 14.3421875,13.28125 12.5,13.28125 C10.634375,13.28125 9.325,13.8382813 8.5734375,14.2875 C8.1,14.5703125 7.8125,15.0789062 7.8125,15.6304688 L7.8125,17.1875 L17.1875,17.1875 Z" id="Path"></path>
                <path d="M23.0804687,9.76875 C23.309375,10.6421875 23.4375,11.5554688 23.4375,12.5 C23.4375,18.53125 18.53125,23.4375 12.5,23.4375 C6.46875,23.4375 1.5625,18.53125 1.5625,12.5 C1.5625,6.46875 6.46875,1.5625 12.5,1.5625 C14.64375,1.5625 16.64375,2.18515625 18.3328125,3.2546875 C18.1078125,3.6859375 17.96875,4.16875 17.96875,4.6875 C17.96875,6.4109375 19.3703125,7.8125 21.09375,7.8125 C22.8171875,7.8125 24.21875,6.4109375 24.21875,4.6875 C24.21875,2.9640625 22.8171875,1.5625 21.09375,1.5625 C20.4585938,1.5625 19.8679687,1.75546875 19.3742188,2.0828125 C17.4007813,0.77265625 15.0421875,0 12.5,0 C5.6078125,0 0,5.6078125 0,12.5 C0,19.3921875 5.6078125,25 12.5,25 C19.3921875,25 25,19.3921875 25,12.5 C25,11.271875 24.8054687,10.0914063 24.4703125,8.97109375 C24.0523437,9.30234375 23.5851563,9.5703125 23.0804687,9.76875 Z" id="Path"></path>
            </g>
        </g>
    </g>
</svg>