<?xml version="1.0" encoding="UTF-8"?>
<svg width="16px" height="16px" viewBox="0 0 16 16" version="1.1" xmlns="http://www.w3.org/2000/svg" xmlns:xlink="http://www.w3.org/1999/xlink">
    <!-- Generator: sketchtool 61 (101010) - https://sketch.com -->
    <title>F4E0D9FC-33AE-4B9A-BDA4-EA48C3372C61</title>
    <desc>Created with sketchtool.</desc>
    <g id="UI" stroke="none" stroke-width="1" fill="none" fill-rule="evenodd">
        <g id="0101_login_wrong-password" transform="translate(-843.000000, -447.000000)">
            <g id="Group-5" transform="translate(556.000000, 173.000000)">
                <g id="Group">
                    <g id="Group-99-Copy" transform="translate(25.000000, 244.000000)">
                        <g id="icon_eye_hide" transform="translate(262.000000, 30.000000)">
                            <g id="b-preview">
                                <g id="Ic/16/invisibility" fill="#111111" fill-rule="nonzero">
                                    <g id="Group-7">
                                        <path d="M14.6,5.6 L6.4,13.8 C6.9,13.9 7.5,14 8,14 C11.6,14 14.4,10.9 15.6,9.1 C16.1,8.4 16.1,7.5 15.6,6.8 C15.4,6.5 15,6.1 14.6,5.6 Z" id="Path"></path>
                                        <path d="M14.3,0.3 L11.6,3 C10.5,2.4 9.3,2 8,2 C4.4,2 1.6,5.1 0.4,6.9 C-0.1,7.6 -0.1,8.5 0.4,9.1 C0.9,9.9 1.8,10.9 2.8,11.8 L0.3,14.3 C-0.1,14.7 -0.1,15.3 0.3,15.7 C0.5,15.9 0.7,16 1,16 C1.3,16 1.5,15.9 1.7,15.7 L15.7,1.7 C16.1,1.3 16.1,0.7 15.7,0.3 C15.3,-0.1 14.7,-0.1 14.3,0.3 Z M5.3,9.3 C5.1,8.9 5,8.5 5,8 C5,6.3 6.3,5 8,5 C8.5,5 8.9,5.1 9.3,5.3 L5.3,9.3 Z" id="Shape"></path>
                                    </g>
                                </g>
                                <g id="Ic/16/invisibility"></g>
                            </g>
                        </g>
                    </g>
                </g>
            </g>
        </g>
    </g>
</svg>