<?xml version="1.0" encoding="UTF-8"?>
<svg width="16px" height="16px" viewBox="0 0 16 16" version="1.1" xmlns="http://www.w3.org/2000/svg" xmlns:xlink="http://www.w3.org/1999/xlink">
    <!-- Generator: sketchtool 61 (101010) - https://sketch.com -->
    <title>346793DC-10D8-4510-89AC-427885F873D4</title>
    <desc>Created with sketchtool.</desc>
    <defs>
        <path d="M0,12.6666667 L9.83333333,2.83333333 L13.1666667,6.16666667 L3.33333333,16 L0,16 L0,12.6666667 Z M15.75,3.58333333 L14.125,5.20833333 L10.7916667,1.875 L12.4166667,0.25 C12.5833342,0.0833325 12.7916667,0 13.0416667,0 C13.2916667,0 13.4999992,0.0833325 13.6666667,0.25 L15.75,2.33333333 C15.9166675,2.5 16,2.70833208 16,2.95833333 C16,3.20833458 15.9166675,3.41666583 15.75,3.58333333 Z" id="path-1"></path>
    </defs>
    <g id="Admin" stroke="none" stroke-width="1" fill="none" fill-rule="evenodd">
        <g id="2010_Application_Management_Status_All" transform="translate(-1384.000000, -340.000000)">
            <g id="Application-listing" transform="translate(265.000000, 292.000000)">
                <g id="Group-42" transform="translate(0.000000, 45.000000)">
                    <g id="Group-22">
                        <g id="icon_edit" transform="translate(1119.000000, 3.000000)">
                            <mask id="mask-2" fill="white">
                                <use xlink:href="#path-1"></use>
                            </mask>
                            <use id="Mask" fill="#333333" xlink:href="#path-1"></use>
                            <g id="↳🎨icon-color" mask="url(#mask-2)" fill="#333333">
                                <g transform="translate(-40.000000, -40.000000)" id="Icon-Shade">
                                    <rect x="0" y="0" width="96" height="96"></rect>
                                </g>
                            </g>
                        </g>
                    </g>
                </g>
            </g>
        </g>
    </g>
</svg>
