<?xml version="1.0" encoding="UTF-8"?>
<svg width="160px" height="48px" viewBox="0 0 160 48" version="1.1" xmlns="http://www.w3.org/2000/svg" xmlns:xlink="http://www.w3.org/1999/xlink">
    <!-- Generator: sketchtool 62 (101010) - https://sketch.com -->
    <title>F88823BA-37D0-4544-BDBB-BAE9436CEC43</title>
    <desc>Created with sketchtool.</desc>
    <defs>
        <linearGradient x1="34.7130682%" y1="103.812158%" x2="59.9915591%" y2="14.1675701%" id="linearGradient-1">
            <stop stop-color="#0E7B79" offset="0%"></stop>
            <stop stop-color="#34B3AA" offset="100%"></stop>
        </linearGradient>
        <linearGradient x1="107.670046%" y1="86.516405%" x2="24.9828879%" y2="-0.414757493%" id="linearGradient-2">
            <stop stop-color="#0E7B79" offset="0%"></stop>
            <stop stop-color="#34B3AA" offset="100%"></stop>
        </linearGradient>
        <linearGradient x1="104.436026%" y1="47.9293082%" x2="-1.20394322%" y2="50.5403758%" id="linearGradient-3">
            <stop stop-color="#0E7B79" offset="0%"></stop>
            <stop stop-color="#34B3AA" offset="100%"></stop>
        </linearGradient>
        <linearGradient x1="64.1624382%" y1="-4.82995117%" x2="40.0110615%" y2="86.9284632%" id="linearGradient-4">
            <stop stop-color="#0E7B79" offset="0%"></stop>
            <stop stop-color="#34B3AA" offset="100%"></stop>
        </linearGradient>
        <linearGradient x1="-6.14672583%" y1="10.2568837%" x2="73.7335038%" y2="100.440303%" id="linearGradient-5">
            <stop stop-color="#0E7B79" offset="0%"></stop>
            <stop stop-color="#34B3AA" offset="100%"></stop>
        </linearGradient>
        <linearGradient x1="-3.29273433%" y1="56.0656342%" x2="103.340843%" y2="48.23826%" id="linearGradient-6">
            <stop stop-color="#0E7B79" offset="0%"></stop>
            <stop stop-color="#34B3AA" offset="100%"></stop>
        </linearGradient>
        <linearGradient x1="34.7425615%" y1="103.942713%" x2="60.0987628%" y2="14.0956729%" id="linearGradient-7">
            <stop stop-color="#0E7B79" offset="0%"></stop>
            <stop stop-color="#34B3AA" offset="100%"></stop>
        </linearGradient>
        <linearGradient x1="107.276987%" y1="86.3175951%" x2="25.2006721%" y2="-0.465927801%" id="linearGradient-8">
            <stop stop-color="#0E7B79" offset="0%"></stop>
            <stop stop-color="#34B3AA" offset="100%"></stop>
        </linearGradient>
        <linearGradient x1="104.432339%" y1="47.9441921%" x2="-1.19468305%" y2="50.5361035%" id="linearGradient-9">
            <stop stop-color="#0E7B79" offset="0%"></stop>
            <stop stop-color="#34B3AA" offset="100%"></stop>
        </linearGradient>
        <linearGradient x1="64.1270762%" y1="-4.96436381%" x2="39.8993326%" y2="86.9996394%" id="linearGradient-10">
            <stop stop-color="#0E7B79" offset="0%"></stop>
            <stop stop-color="#34B3AA" offset="100%"></stop>
        </linearGradient>
        <linearGradient x1="-5.77017396%" y1="10.4449776%" x2="73.5416243%" y2="100.494244%" id="linearGradient-11">
            <stop stop-color="#0E7B79" offset="0%"></stop>
            <stop stop-color="#34B3AA" offset="100%"></stop>
        </linearGradient>
        <linearGradient x1="-3.26787083%" y1="56.0206647%" x2="103.314541%" y2="48.2528768%" id="linearGradient-12">
            <stop stop-color="#0E7B79" offset="0%"></stop>
            <stop stop-color="#34B3AA" offset="100%"></stop>
        </linearGradient>
        <linearGradient x1="-0.00103878888%" y1="50.0002962%" x2="100.000302%" y2="50.0002962%" id="linearGradient-13">
            <stop stop-color="#0E7B79" offset="0%"></stop>
            <stop stop-color="#34B3AA" offset="100%"></stop>
        </linearGradient>
        <linearGradient x1="28.1794825%" y1="28.1106572%" x2="253.305687%" y2="144.685615%" id="linearGradient-14">
            <stop stop-color="#0E7B79" offset="0%"></stop>
            <stop stop-color="#34B3AA" offset="100%"></stop>
        </linearGradient>
        <linearGradient x1="-15.8236744%" y1="-5.4922201%" x2="91.7998048%" y2="87.9597824%" id="linearGradient-15">
            <stop stop-color="#0E7B79" offset="0%"></stop>
            <stop stop-color="#34B3AA" offset="100%"></stop>
        </linearGradient>
    </defs>
    <g id="Page-1" stroke="none" stroke-width="1" fill="none" fill-rule="evenodd">
        <g id="0100_Welcome-flow-1" transform="translate(-640.000000, -243.000000)">
            <g id="Group-3" transform="translate(556.000000, 203.000000)">
                <g id="Group">
                    <g id="logo_talaria" transform="translate(84.000000, 40.000000)">
                        <g id="Text" transform="translate(53.773196, 12.035134)" fill="#2BB4AD" fill-rule="nonzero">
                            <path d="M9.8486381,23.5565431 L9.8486381,6.29323651 L15.9543318,6.29323651 L15.9543318,2.63601896 L0.0547334763,2.63601896 L0.0547334763,6.29323651 L6.16042718,6.29323651 L6.16042718,23.5565431 L9.8486381,23.5565431 Z M30.7691622,23.5565431 C31.4510163,23.5565431 32.0140626,23.4945563 32.4583008,23.3705829 C32.9025391,23.2466094 33.2486318,23.0554836 33.4965787,22.7972055 C33.7445257,22.5389275 33.9149892,22.203166 34.0079693,21.789921 C34.1009494,21.3766761 34.1474395,20.8704511 34.1474395,20.271246 L34.1474395,20.271246 L34.1474395,12.5848904 C34.1474395,11.8203873 34.0441282,11.1075398 33.8375058,10.446348 C33.6308833,9.78515609 33.2951218,9.21177876 32.8302213,8.72621598 C32.3653207,8.2406532 31.7712812,7.86356721 31.0481025,7.59495801 C30.3249239,7.32634881 29.4571096,7.19204421 28.4446595,7.19204421 L28.4446595,7.19204421 L18.6197616,7.19204421 L18.6197616,10.3533679 L28.4136662,10.3533679 C29.322805,10.3533679 29.9685002,10.5703214 30.3507517,11.0042286 C30.7330033,11.4381358 30.9241291,11.9753542 30.9241291,12.6158838 L30.9241291,12.6158838 L30.9241291,13.8556186 L23.1447934,13.8556186 C22.1323434,13.8556186 21.2748602,13.9640954 20.5723438,14.1810489 C19.8698274,14.3980025 19.3016157,14.7079362 18.8677085,15.11085 C18.4338013,15.5137638 18.1187021,16.0044922 17.9224107,16.583035 C17.7261194,17.1615779 17.6279737,17.8227698 17.6279737,18.5666107 C17.6279737,20.1162791 18.0567153,21.3353516 18.9141986,22.2238282 C19.7716818,23.1123048 21.1715489,23.5565431 23.1138001,23.5565431 L23.1138001,23.5565431 L30.7691622,23.5565431 Z M30.0253214,20.3642261 L23.1447934,20.3642261 C22.3183036,20.3642261 21.7294296,20.1834314 21.3781714,19.8218421 C21.0269132,19.4602528 20.8512841,18.9798556 20.8512841,18.3806504 C20.8512841,17.7814453 21.0269132,17.3113792 21.3781714,16.9704522 C21.7294296,16.6295251 22.3389658,16.4590616 23.2067802,16.4590616 L23.2067802,16.4590616 L30.9241291,16.4590616 L30.9241291,19.5274051 C30.9241291,20.0852857 30.6245265,20.3642261 30.0253214,20.3642261 L30.0253214,20.3642261 Z M42.0817419,23.5565431 L42.0817419,0.0945626946 L38.7964448,0.0945626946 L38.7964448,23.5565431 L42.0817419,23.5565431 Z M59.5929955,23.5565431 C60.2748496,23.5565431 60.8378958,23.4945563 61.2821341,23.3705829 C61.7263724,23.2466094 62.072465,23.0554836 62.3204119,22.7972055 C62.5683589,22.5389275 62.7388224,22.203166 62.8318025,21.789921 C62.9247826,21.3766761 62.9712727,20.8704511 62.9712727,20.271246 L62.9712727,20.271246 L62.9712727,12.5848904 C62.9712727,11.8203873 62.8679615,11.1075398 62.661339,10.446348 C62.4547165,9.78515609 62.118955,9.21177876 61.6540545,8.72621598 C61.189154,8.2406532 60.5951144,7.86356721 59.8719358,7.59495801 C59.1487572,7.32634881 58.2809428,7.19204421 57.2684928,7.19204421 L57.2684928,7.19204421 L47.4435948,7.19204421 L47.4435948,10.3533679 L57.2374994,10.3533679 C58.1466382,10.3533679 58.7923334,10.5703214 59.174585,11.0042286 C59.5568365,11.4381358 59.7479623,11.9753542 59.7479623,12.6158838 L59.7479623,12.6158838 L59.7479623,13.8556186 L51.9686267,13.8556186 C50.9561766,13.8556186 50.0986934,13.9640954 49.396177,14.1810489 C48.6936607,14.3980025 48.1254489,14.7079362 47.6915417,15.11085 C47.2576346,15.5137638 46.9425353,16.0044922 46.746244,16.583035 C46.5499526,17.1615779 46.451807,17.8227698 46.451807,18.5666107 C46.451807,20.1162791 46.8805486,21.3353516 47.7380318,22.2238282 C48.595515,23.1123048 49.9953822,23.5565431 51.9376333,23.5565431 L51.9376333,23.5565431 L59.5929955,23.5565431 Z M58.8491546,20.3642261 L51.9686267,20.3642261 C51.1421368,20.3642261 50.5532628,20.1834314 50.2020046,19.8218421 C49.8507465,19.4602528 49.6751174,18.9798556 49.6751174,18.3806504 C49.6751174,17.7814453 49.8507465,17.3113792 50.2020046,16.9704522 C50.5532628,16.6295251 51.1627991,16.4590616 52.0306134,16.4590616 L52.0306134,16.4590616 L59.7479623,16.4590616 L59.7479623,19.5274051 C59.7479623,20.0852857 59.4483597,20.3642261 58.8491546,20.3642261 L58.8491546,20.3642261 Z M70.8745818,23.5565431 L70.8745818,12.460917 C70.8745818,11.0558842 71.5770982,10.3533679 72.9821309,10.3533679 L72.9821309,10.3533679 L78.7468976,10.3533679 L78.7468976,7.19204421 L72.0213365,7.19204421 C70.4096813,7.19204421 69.2680922,7.57429576 68.5965692,8.33879887 C67.9250462,9.10330197 67.5892847,10.3120434 67.5892847,11.965023 L67.5892847,11.965023 L67.5892847,23.5565431 L70.8745818,23.5565431 Z M85.2864984,4.83654816 L85.2864984,1.02436377 L81.9702079,1.02436377 L81.9702079,4.83654816 L85.2864984,4.83654816 Z M85.2555051,23.5565431 L85.2555051,7.19204421 L81.9702079,7.19204421 L81.9702079,23.5565431 L85.2555051,23.5565431 Z M102.766759,23.5565431 C103.448613,23.5565431 104.011659,23.4945563 104.455897,23.3705829 C104.900135,23.2466094 105.246228,23.0554836 105.494175,22.7972055 C105.742122,22.5389275 105.912586,22.203166 106.005566,21.789921 C106.098546,21.3766761 106.145036,20.8704511 106.145036,20.271246 L106.145036,20.271246 L106.145036,12.5848904 C106.145036,11.8203873 106.041725,11.1075398 105.835102,10.446348 C105.62848,9.78515609 105.292718,9.21177876 104.827818,8.72621598 C104.362917,8.2406532 103.768878,7.86356721 103.045699,7.59495801 C102.32252,7.32634881 101.454706,7.19204421 100.442256,7.19204421 L100.442256,7.19204421 L90.6173579,7.19204421 L90.6173579,10.3533679 L100.411263,10.3533679 C101.320401,10.3533679 101.966097,10.5703214 102.348348,11.0042286 C102.7306,11.4381358 102.921725,11.9753542 102.921725,12.6158838 L102.921725,12.6158838 L102.921725,13.8556186 L95.1423898,13.8556186 C94.1299397,13.8556186 93.2724565,13.9640954 92.5699402,14.1810489 C91.8674238,14.3980025 91.299212,14.7079362 90.8653049,15.11085 C90.4313977,15.5137638 90.1162984,16.0044922 89.9200071,16.583035 C89.7237158,17.1615779 89.6255701,17.8227698 89.6255701,18.5666107 C89.6255701,20.1162791 90.0543117,21.3353516 90.9117949,22.2238282 C91.7692781,23.1123048 93.1691453,23.5565431 95.1113964,23.5565431 L95.1113964,23.5565431 L102.766759,23.5565431 Z M102.022918,20.3642261 L95.1423898,20.3642261 C94.3158999,20.3642261 93.7270259,20.1834314 93.3757678,19.8218421 C93.0245096,19.4602528 92.8488805,18.9798556 92.8488805,18.3806504 C92.8488805,17.7814453 93.0245096,17.3113792 93.3757678,16.9704522 C93.7270259,16.6295251 94.3365622,16.4590616 95.2043765,16.4590616 L95.2043765,16.4590616 L102.921725,16.4590616 L102.921725,19.5274051 C102.921725,20.0852857 102.622123,20.3642261 102.022918,20.3642261 L102.022918,20.3642261 Z" id="Talaria"></path>
                        </g>
                        <g id="icon">
                            <g id="Group-6">
                                <path d="M32.7234639,5.71760825 C33.7126598,8.14663918 34.3892784,10.6764536 34.7351753,13.2371134 L34.7351753,13.2371134 C35.1323711,16.1670928 35.1035052,19.1350103 34.6492371,22.0583918 L34.6492371,22.0583918 C34.4841237,23.113732 34.2586392,24.1812784 33.977732,25.2389278 L33.977732,25.2389278 C33.7694021,27.3667629 33.0137732,29.4205361 31.7921649,31.1778969 L31.7921649,31.1778969 C30.595134,32.8996289 28.9751753,34.3074639 27.1074639,35.2496495 L27.1074639,35.2496495 L27.1411134,35.3364124 C27.2277113,35.3118351 27.3144742,35.2865979 27.3992577,35.2603711 L27.3992577,35.2603711 C27.6684536,35.1815258 27.9409485,35.0964124 28.2084948,35.0071753 L28.2084948,35.0071753 C28.3940619,34.947134 28.5621443,34.8903918 28.7218144,34.8336495 L28.7218144,34.8336495 L28.7335258,34.8300206 C28.8940206,34.7737732 29.0545155,34.7160412 29.212866,34.6581443 L29.212866,34.6581443 C29.2803299,34.6340619 29.3481237,34.6084948 29.4216907,34.5802887 L29.4216907,34.5802887 C29.5691546,34.5255258 29.7181031,34.4676289 29.865567,34.409567 L29.865567,34.409567 C32.5054021,33.3682474 34.9852371,31.9673402 37.2359588,30.2452784 L37.2359588,30.2452784 C39.3345979,28.6406598 41.2306804,26.7562887 42.8715876,24.6444536 L42.8715876,24.6444536 L42.8814845,24.6317526 L42.8814845,13.6687835 L42.8798351,13.6202887 L42.8785155,13.6202887 C42.8763711,13.558433 42.8724124,13.4924536 42.8663093,13.4157526 L42.8663093,13.4157526 C42.8644948,13.4004124 42.8623505,13.3854021 42.8603711,13.3702268 L42.8603711,13.3702268 C42.8583918,13.3555464 42.8562474,13.340866 42.8549278,13.3281649 L42.8549278,13.3281649 C42.8532784,13.3072165 42.8506392,13.2875876 42.8475052,13.2669691 L42.8475052,13.2669691 L42.8163299,13.059134 C42.809567,13.0202062 42.8009897,12.9814433 42.7930722,12.9466392 L42.7930722,12.9466392 C42.7846598,12.899134 42.774433,12.8536082 42.7627216,12.8080825 L42.7627216,12.8080825 C42.7577732,12.7879588 42.7524948,12.7676701 42.7477113,12.7498557 L42.7477113,12.7498557 C42.460701,11.6418969 41.7190928,10.694268 40.7120825,10.1497732 L40.7120825,10.1497732 L40.6845361,10.1360825 C40.604866,10.0913814 40.3912577,9.97542268 40.3706392,9.96420619 L40.3706392,9.96420619 C40.3706392,9.96420619 37.2156701,8.17121649 33.6262268,6.13360825 L33.6262268,6.13360825 C33.350268,5.97641237 33.0708454,5.81773196 32.7899381,5.65905155 L32.7899381,5.65905155 L32.6729897,5.59307216 L32.7234639,5.71760825 Z M31.868866,31.2313402 C33.0995464,29.4609485 33.8611134,27.392 34.0694433,25.2554227 L34.0694433,25.2554227 C34.3498557,24.2022268 34.576,23.1315464 34.7417732,22.0729072 L34.7417732,22.0729072 C35.1973608,19.1404536 35.2263918,16.163299 34.8278763,13.2245773 L34.8278763,13.2245773 C34.4867629,10.6998763 33.8249897,8.20486598 32.860701,5.80651546 L32.860701,5.80651546 C33.1020206,5.94309278 33.3421856,6.07950515 33.5800412,6.21492784 L33.5800412,6.21492784 C37.1693196,8.25253608 40.3244536,10.0455258 40.3252784,10.0460206 L40.3252784,10.0460206 C40.3465567,10.057567 40.5595052,10.1730309 40.6403299,10.2185567 L40.6403299,10.2185567 L40.6690309,10.2327423 C41.6519588,10.7643711 42.3765773,11.6902268 42.6574845,12.7739381 L42.6574845,12.7739381 C42.6621031,12.7917526 42.6670515,12.8110515 42.672,12.8310103 L42.672,12.8310103 C42.6832165,12.8745567 42.6929485,12.9179381 42.7015258,12.9652784 L42.7015258,12.9652784 C42.7094433,13.0010722 42.7175258,13.0380206 42.7241237,13.075134 L42.7241237,13.075134 L42.755134,13.2803299 C42.7577732,13.2988041 42.7602474,13.3162887 42.761732,13.3367423 L42.761732,13.3367423 C42.7635464,13.3520825 42.7656907,13.3675876 42.7676701,13.3827629 L42.7676701,13.3827629 C42.7696495,13.3974433 42.7716289,13.4116289 42.7731134,13.4244948 L42.7731134,13.4244948 C42.7805361,13.5173608 42.7848247,13.5947216 42.7863093,13.6679588 L42.7863093,13.6679588 L42.787299,13.7136495 L42.7877938,24.5997526 C41.1543093,26.7002062 39.267134,28.5745155 37.1790515,30.1710515 L37.1790515,30.1710515 C34.9350928,31.8876701 32.4630103,33.2844536 29.8310928,34.3226392 L29.8310928,34.3226392 C29.6842887,34.3803711 29.536,34.4381031 29.382268,34.4951753 L29.382268,34.4951753 C29.3154639,34.5205773 29.2484948,34.5461443 29.1811959,34.5702268 L29.1811959,34.5702268 C29.0246598,34.627299 28.8663093,34.6842062 28.7084536,34.7397938 L28.7084536,34.7397938 L28.6955876,34.7435876 C28.5352577,34.8004948 28.3663505,34.857732 28.179299,34.918433 L28.179299,34.918433 C27.9762474,34.9858969 27.7708866,35.0512165 27.5660206,35.1130722 L27.5660206,35.1130722 C29.2720825,34.1710515 30.7528247,32.8364536 31.868866,31.2313402 L31.868866,31.2313402 Z" id="Fill-9" fill="url(#linearGradient-1)"></path>
                                <path d="M20.0905567,0.355628866 C19.9361649,0.424412371 19.7816082,0.504742268 19.6310103,0.594474227 L19.6310103,0.594474227 L19.3994227,0.732371134 C19.3667629,0.747216495 19.3319588,0.763381443 19.3016082,0.783835052 L19.3016082,0.783835052 L11.8596289,4.93393814 L11.9905979,4.95620619 C14.044866,5.30424742 16.0570722,5.856 17.9708041,6.59628866 L17.9708041,6.59628866 C18.2868454,6.71752577 18.614433,6.85030928 18.9441649,6.99051546 L18.9441649,6.99051546 C21.6267216,8.1337732 24.1289897,9.65228866 26.3811959,11.5036701 L26.3811959,11.5036701 C27.2717526,12.2353814 28.1413608,13.0395052 28.9715464,13.8982268 L28.9715464,13.8982268 C30.5098557,15.0470928 31.7849072,16.5548866 32.6586392,18.2589691 L32.6586392,18.2589691 C33.574433,20.0451959 34.0385979,21.9755876 34.0385979,23.9971959 L34.0385979,23.9971959 C34.0385979,24.2439588 34.0306804,24.5032577 34.0143505,24.7683299 L34.0143505,24.7683299 L34.1065567,24.7823505 L34.1136495,24.7541443 C34.1374021,24.6568247 34.1613196,24.5596701 34.1835876,24.4644948 L34.1835876,24.4644948 C34.1989278,24.4090722 34.2122887,24.3536495 34.2236701,24.2997113 L34.2236701,24.2997113 C34.2568247,24.1618144 34.2866804,24.0244124 34.3162062,23.888 L34.3162062,23.888 C34.326268,23.8457732 34.3364948,23.8022268 34.3445773,23.7601649 L34.3445773,23.7601649 C34.3628866,23.6783505 34.3797113,23.5962062 34.3965361,23.513567 L34.3965361,23.513567 L34.419299,23.4030515 C34.4242474,23.3761649 34.4298557,23.3492784 34.435134,23.3222268 L34.435134,23.3222268 C34.4405773,23.2963299 34.4458557,23.270433 34.4506392,23.2451959 L34.4506392,23.2451959 C34.4626804,23.1863093 34.473567,23.1270928 34.4842887,23.0691959 L34.4842887,23.0691959 L34.4950103,23.0121237 C34.5220619,22.8682887 34.5491134,22.7247835 34.5730309,22.5811134 L34.5730309,22.5811134 C34.6028866,22.4070928 34.6327423,22.2332371 34.659134,22.0597113 L34.659134,22.0597113 C35.1145567,19.1369897 35.1440825,16.1684124 34.7467216,13.2362887 L34.7467216,13.2362887 C34.3970309,10.6424742 33.7065567,8.07868041 32.694433,5.616 L32.694433,5.616 L32.6883299,5.60115464 L32.6744742,5.59323711 C32.1956289,5.32008247 31.7118351,5.04626804 31.2313402,4.77393814 L31.2313402,4.77393814 L30.9621443,4.62136082 C29.2240825,3.63463918 23.5432577,0.410721649 23.4147629,0.355134021 L23.4147629,0.355134021 C23.0091546,0.184247423 22.6145979,0.0752164948 22.2436289,0.0313402062 L22.2436289,0.0313402062 C22.1989278,0.024742268 22.1527423,0.0212783505 22.1270103,0.019628866 L22.1270103,0.019628866 C21.9945567,0.00643298969 21.8625979,1.82836564e-13 21.731134,1.82836564e-13 L21.731134,1.82836564e-13 C21.1709691,1.82836564e-13 20.620866,0.118927835 20.0905567,0.355628866 M34.1321237,23.9971959 C34.1321237,21.9605773 33.6643299,20.0156701 32.7417732,18.2162474 L32.7417732,18.2162474 C31.8617732,16.4996289 30.5774845,14.9806186 29.0334021,13.8284536 L29.0334021,13.8284536 C28.2060206,12.9718763 27.3339381,12.1652784 26.4405773,11.4314227 L26.4405773,11.4314227 C24.1814433,9.57443299 21.6717526,8.05146392 18.9809485,6.90457732 L18.9809485,6.90457732 C18.6500619,6.76387629 18.3214845,6.63059794 18.0044536,6.50903093 L18.0044536,6.50903093 C16.1255258,5.78226804 14.1520825,5.23645361 12.1367423,4.88626804 L12.1367423,4.88626804 L19.350433,0.863505155 C19.3778144,0.845360825 19.4075052,0.831505155 19.4426392,0.815340206 L19.4426392,0.815340206 L19.6788454,0.674804124 C19.8263093,0.587216495 19.977567,0.508536082 20.1286598,0.441072165 L20.1286598,0.441072165 C20.7683299,0.155546392 21.4375258,0.0453608247 22.1194227,0.112824742 L22.1194227,0.112824742 C22.1449897,0.114309278 22.1880412,0.117608247 22.2309278,0.124041237 L22.2309278,0.124041237 C22.5948041,0.167257732 22.9809485,0.273979381 23.3779794,0.441237113 L23.3779794,0.441237113 C23.4654021,0.479835052 26.4244124,2.15241237 30.9161237,4.70251546 L30.9161237,4.70251546 L31.1851546,4.85542268 C31.660866,5.12478351 32.1397113,5.39612371 32.6141031,5.66647423 L32.6141031,5.66647423 C33.6197938,8.1171134 34.3059794,10.6682062 34.6541856,13.2486598 L34.6541856,13.2486598 C35.0500619,16.1720412 35.020701,19.1315464 34.5667629,22.0455258 L34.5667629,22.0455258 C34.5402062,22.2187216 34.5105155,22.3919175 34.4808247,22.5656082 L34.4808247,22.5656082 C34.4569072,22.7084536 34.4300206,22.8516289 34.4029691,22.9948041 L34.4029691,22.9948041 L34.3924124,23.0520412 C34.3815258,23.1094433 34.3706392,23.168 34.3587629,23.2270515 L34.3587629,23.2270515 C34.3538144,23.2527835 34.348701,23.2781856 34.3435876,23.3035876 L34.3435876,23.3035876 C34.3379794,23.3309691 34.3323711,23.3586804 34.3275876,23.3849072 L34.3275876,23.3849072 L34.3049897,23.4950928 C34.2881649,23.5769072 34.2715052,23.6583918 34.252866,23.740866 L34.252866,23.740866 C34.2447835,23.7832577 34.2350515,23.8253196 34.2249897,23.8672165 L34.2249897,23.8672165 C34.1954639,24.0039588 34.1657732,24.140866 34.1322887,24.2789278 L34.1322887,24.2789278 C34.131134,24.2850309 34.1298144,24.291299 34.1283299,24.297567 L34.1283299,24.297567 C34.1309691,24.1957938 34.1321237,24.0955052 34.1321237,23.9971959" id="Fill-15" fill="url(#linearGradient-2)"></path>
                                <path d="M9.88684536,6.03414433 L2.10969072,10.3704742 L2.08560825,10.384 L2.08560825,10.3854845 C2.02259794,10.4237526 1.95975258,10.4643299 1.89641237,10.5058969 L1.89641237,10.5058969 L1.86969072,10.5250309 C1.85352577,10.5365773 1.83769072,10.5479588 1.824,10.5588454 L1.824,10.5588454 C1.81426804,10.5656082 1.80453608,10.5731959 1.79480412,10.5807835 L1.79480412,10.5807835 L1.77154639,10.5985979 C1.7548866,10.6093196 1.7388866,10.6210309 1.72272165,10.6329072 L1.72272165,10.6329072 L1.66812371,10.6744742 C1.64931959,10.6896495 1.63018557,10.7046598 1.60841237,10.7208247 L1.60841237,10.7208247 C1.58103093,10.7435876 1.55364948,10.7676701 1.52775258,10.7907629 L1.52775258,10.7907629 L1.52016495,10.7975258 C1.48536082,10.8275464 1.45039175,10.8574021 1.41509278,10.8889072 L1.41509278,10.8889072 C1.40090722,10.9032577 1.38672165,10.9174433 1.37121649,10.931299 L1.37121649,10.931299 C0.544989691,11.7171134 0.0795051546,12.8194639 0.0943505155,13.9546392 L0.0943505155,13.9546392 L0.0943505155,13.9894433 C0.0943505155,14.0006598 0.0892371134,15.0404948 0.0816494845,16.6434639 L0.0816494845,16.6434639 L0.0529484536,22.716866 C0.0529484536,22.8641649 0.0512989691,23.0127835 0.0496494845,23.161732 L0.0496494845,23.161732 L0.0481649485,23.3223918 L0.132783505,23.2153402 C0.202391753,23.1279175 0.271505155,23.0401649 0.340948454,22.9543918 L0.340948454,22.9543918 C0.415175258,22.8620206 0.491051546,22.7681649 0.567257732,22.6771134 L0.567257732,22.6771134 C0.653030928,22.5713814 0.740453608,22.4674639 0.82771134,22.3637113 L0.82771134,22.3637113 C0.920247423,22.2548454 1.01261856,22.1458144 1.10680412,22.038433 L1.10680412,22.038433 C1.29913402,21.8164124 1.48107216,21.6125361 1.66334021,21.414433 L1.66334021,21.414433 C1.70424742,21.3685773 1.74498969,21.3242062 1.78820619,21.2795052 L1.78820619,21.2795052 C1.86754639,21.193567 1.9468866,21.1094433 2.0265567,21.0246598 L2.0265567,21.0246598 C2.04519588,21.0058557 2.064,20.985567 2.08164948,20.9661031 L2.08164948,20.9661031 L2.38383505,20.6540206 C2.48626804,20.5499381 2.58853608,20.4476701 2.69096907,20.3452371 L2.69096907,20.3452371 C2.75843299,20.2781031 2.82589691,20.2103093 2.8956701,20.1441649 L2.8956701,20.1441649 C2.97138144,20.0701031 3.04709278,19.9958763 3.12478351,19.9229691 L3.12478351,19.9229691 C3.53105155,19.5343505 3.96865979,19.1401237 4.42556701,18.7510103 L4.42556701,18.7510103 C4.49121649,18.6939381 4.55818557,18.6383505 4.62713402,18.5807835 L4.62713402,18.5807835 C4.66639175,18.5466392 4.70713402,18.5139794 4.74886598,18.4804948 L4.74886598,18.4804948 C4.83282474,18.4098969 4.91645361,18.3409485 5.0028866,18.2728247 L5.0028866,18.2728247 C5.21649485,18.0986392 5.43637113,17.9252784 5.65608247,17.7581856 L5.65608247,17.7581856 C7.90927835,16.0348041 10.3881237,14.6345567 13.0236701,13.5965361 L13.0236701,13.5965361 C14.0443711,13.1938969 15.1110928,12.8395876 16.2014021,12.5410309 L16.2014021,12.5410309 C17.8515464,11.7849072 19.6151753,11.401567 21.4429691,11.401567 L21.4429691,11.401567 C24.0044536,11.401567 26.470433,12.1665979 28.5740206,13.6141856 L28.5740206,13.6141856 L28.633732,13.5425979 C27.9190103,12.825732 27.1666804,12.1413608 26.3965361,11.5081237 L26.3965361,11.5081237 L26.3793814,11.4941031 C24.131134,9.64618557 21.6290309,8.12915464 18.9430103,6.98556701 L18.9430103,6.98556701 C16.7063093,6.03101031 14.3294021,5.34053608 11.8787629,4.93327835 L11.8787629,4.93327835 L11.8625979,4.93063918 L9.88684536,6.03414433 Z M0.146309278,22.7170309 L0.175175258,16.6441237 C0.182927835,14.9943093 0.187876289,13.9985155 0.187876289,13.9894433 L0.187876289,13.9894433 L0.187876289,13.9541443 C0.173195876,12.8442062 0.62828866,11.7670928 1.43472165,11.0000825 L1.43472165,11.0000825 C1.45006186,10.9863918 1.46573196,10.9705567 1.47942268,10.956866 L1.47942268,10.956866 C1.51208247,10.9275052 1.54672165,10.8978144 1.58169072,10.8679588 L1.58169072,10.8679588 L1.5894433,10.860866 C1.61501031,10.838433 1.64156701,10.8150103 1.66614433,10.7945567 L1.66614433,10.7945567 C1.68676289,10.7792165 1.70672165,10.7633814 1.72651546,10.7475464 L1.72651546,10.7475464 L1.77764948,10.7084536 C1.7923299,10.697567 1.80684536,10.6870103 1.82449485,10.6757938 L1.82449485,10.6757938 C1.83356701,10.668866 1.84296907,10.6617732 1.85187629,10.6548454 L1.85187629,10.6548454 C1.86094845,10.6479175 1.86985567,10.6409897 1.88041237,10.6332371 L1.88041237,10.6332371 C1.89443299,10.6223505 1.90894845,10.6121237 1.92379381,10.6014021 L1.92379381,10.6014021 L1.94969072,10.5827629 C2.01369072,10.540701 2.07917526,10.4986392 2.14449485,10.4595464 L2.14449485,10.4595464 L2.17913402,10.4582268 L2.17913402,10.4390928 L9.93237113,6.11579381 L11.8799175,5.02828866 C14.3175258,5.43472165 16.6812371,6.12206186 18.9062268,7.0716701 L18.9062268,7.0716701 C21.5823505,8.21096907 24.0750515,9.72189691 26.3152165,11.5623918 L26.3152165,11.5623918 C26.3206598,11.5686598 26.3265979,11.5724536 26.3300619,11.5745979 L26.3300619,11.5745979 C26.979134,12.1080412 27.6161649,12.6779381 28.2277938,13.2730722 L28.2277938,13.2730722 C26.1989278,11.9859794 23.8632577,11.3078763 21.4429691,11.3078763 L21.4429691,11.3078763 C19.6016495,11.3078763 17.8249897,11.6941856 16.169732,12.4532784 L16.169732,12.4532784 C15.0832165,12.7501856 14.0131959,13.1056495 12.9893608,13.5096082 L12.9893608,13.5096082 C10.345567,14.5509278 7.85929897,15.955299 5.59934021,17.6837938 L5.59934021,17.6837938 C5.37880412,17.8515464 5.15810309,18.0254021 4.9443299,18.1997526 L4.9443299,18.1997526 C4.85789691,18.2680412 4.77327835,18.3378144 4.68931959,18.4082474 L4.68931959,18.4082474 C4.64742268,18.4418969 4.60585567,18.4753814 4.5654433,18.5105155 L4.5654433,18.5105155 C4.49764948,18.5665979 4.43002062,18.6228454 4.36453608,18.6802474 L4.36453608,18.6802474 C3.90663918,19.0700206 3.46771134,19.465567 3.06045361,19.8550103 L3.06045361,19.8550103 C2.98259794,19.9279175 2.90639175,20.0024742 2.83051546,20.076701 L2.83051546,20.076701 C2.76090722,20.1431753 2.69278351,20.211299 2.62482474,20.2792577 L2.62482474,20.2792577 C2.5222268,20.3820206 2.41979381,20.4844536 2.31686598,20.588866 L2.31686598,20.588866 L2.01352577,20.9021031 C1.99587629,20.921567 1.9782268,20.940701 1.95942268,20.9595052 L1.95942268,20.9595052 C1.87843299,21.0454433 1.79892784,21.1300619 1.72008247,21.2153402 L1.72008247,21.2153402 C1.67670103,21.2602062 1.63513402,21.3054021 1.59389691,21.3515876 L1.59389691,21.3515876 C1.41146392,21.5498557 1.22903093,21.7545567 1.03620619,21.9769072 L1.03620619,21.9769072 C0.94185567,22.0847835 0.849154639,22.1938144 0.75628866,22.3031753 L0.75628866,22.3031753 C0.668536082,22.4075876 0.580618557,22.512 0.495010309,22.617567 L0.495010309,22.617567 C0.418969072,22.7084536 0.342762887,22.8029691 0.267876289,22.8956701 L0.267876289,22.8956701 C0.226969072,22.9466392 0.185731959,22.998268 0.144494845,23.0502268 L0.144494845,23.0502268 C0.145649485,22.9385567 0.146309278,22.8273814 0.146309278,22.7170309 L0.146309278,22.7170309 Z" id="Fill-21" fill="url(#linearGradient-3)"></path>
                                <path d="M15.6578969,12.6835464 C15.6179794,12.6950928 15.5778969,12.7064742 15.5386392,12.7181856 L15.5386392,12.7181856 C15.4589691,12.7414433 15.3807835,12.764866 15.3037526,12.7892784 L15.3037526,12.7892784 C15.2240825,12.8125361 15.1460619,12.8376082 15.0711753,12.8618557 L15.0711753,12.8618557 C15.0424742,12.8701031 15.0147629,12.8791753 14.9865567,12.8889072 L14.9865567,12.8889072 L14.9685773,12.8951753 C14.9444948,12.9017732 14.9202474,12.908866 14.8988041,12.9166186 L14.8988041,12.9166186 C14.8303505,12.9367423 14.7635464,12.9583505 14.700701,12.9804536 L14.700701,12.9804536 C14.6957526,12.9817732 14.6903093,12.9834227 14.6774433,12.9882062 L14.6774433,12.9882062 L14.5954639,13.0150928 C14.5383918,13.033732 14.4808247,13.0525361 14.4242474,13.0723299 L14.4242474,13.0723299 L14.368,13.0916289 C14.3000412,13.1147216 14.2319175,13.1376495 14.1644536,13.161567 L14.1644536,13.161567 L14.1529072,13.1651959 C13.9924124,13.2214433 13.8320825,13.2793402 13.6734021,13.3370722 L13.6734021,13.3370722 C13.6059381,13.3613196 13.5383093,13.3870515 13.4642474,13.4150928 L13.4642474,13.4150928 C13.3154639,13.4715052 13.1681649,13.5277526 13.020701,13.5856495 L13.020701,13.5856495 C10.3820206,14.6249897 7.90169072,16.0263918 5.64898969,17.7501031 L5.64898969,17.7501031 C5.35983505,17.9701443 5.09723711,18.1788041 4.84618557,18.3869691 L4.84618557,18.3869691 C4.73039175,18.4814845 4.61443299,18.5774845 4.49814433,18.675299 L4.49814433,18.675299 L4.40527835,18.7544742 C4.31175258,18.8341443 4.21789691,18.9139794 4.12602062,18.9948041 L4.12602062,18.9948041 L4.04898969,19.062433 C3.95051546,19.1485361 3.85253608,19.2346392 3.75703093,19.3222268 L3.75703093,19.3222268 C3.27472165,19.7557113 2.79587629,20.2155876 2.33336082,20.6894845 L2.33336082,20.6894845 L2.31802062,20.7056495 C2.22548454,20.8011546 2.1331134,20.8969897 2.04074227,20.9939794 L2.04074227,20.9939794 C1.80750515,21.238268 1.56635052,21.5003711 1.32404124,21.7733608 L1.32404124,21.7733608 C1.21468041,21.8960825 1.10696907,22.0202887 0.999752577,22.1458144 L0.999752577,22.1458144 C0.901938144,22.2584742 0.805938144,22.3727835 0.711587629,22.4852784 L0.711587629,22.4852784 C0.690474227,22.5077113 0.671505155,22.5317938 0.655340206,22.5530722 L0.655340206,22.5530722 C0.557525773,22.6706804 0.461690722,22.7864742 0.367340206,22.9039175 L0.367340206,22.9039175 C0.263092784,23.0330722 0.160494845,23.1622268 0.0593814433,23.2912165 L0.0593814433,23.2912165 L0.0496494845,23.3039175 L0.0496494845,23.3199175 C0.0478350515,23.929732 0.0445360825,24.5444948 0.0414020619,25.1510103 L0.0414020619,25.1510103 L2.34405851e-15,34.2447835 C0.00148453608,34.3188454 0.00560824742,34.3952165 0.0135257732,34.4936907 L0.0135257732,34.4936907 L0.0171546392,34.5230515 C0.019628866,34.5420206 0.0219381443,34.5611546 0.0235876289,34.5847423 L0.0235876289,34.5847423 L0.0433814433,34.7323711 C0.0471752577,34.761732 0.0519587629,34.790268 0.0570721649,34.8197938 L0.0570721649,34.8197938 L0.062185567,34.8504742 C0.0659793814,34.8681237 0.0692783505,34.8854433 0.0729072165,34.9027629 L0.0729072165,34.9027629 C0.0768659794,34.9232165 0.0809896907,34.9435052 0.0852783505,34.9628041 L0.0852783505,34.9628041 C0.0925360825,34.9954639 0.0992989691,35.0268041 0.106391753,35.0579794 L0.106391753,35.0579794 L0.115463918,35.0980619 C0.120412371,35.1181856 0.125360825,35.1383093 0.130474227,35.1562887 L0.130474227,35.1562887 C0.417319588,36.2583093 1.15463918,37.2001649 2.15191753,37.7400412 L2.15191753,37.7400412 C2.15191753,37.7400412 2.16461856,37.747134 2.18441237,37.7571959 L2.18441237,37.7571959 C2.26325773,37.7999175 2.47406186,37.9150515 2.49435052,37.9267629 L2.49435052,37.9267629 L10.166433,42.2827216 L10.1113402,42.1545567 C10.1062268,42.1433402 10.1019381,42.1317938 10.0974845,42.1200825 L10.0974845,42.1200825 C10.092866,42.1078763 10.0882474,42.0956701 10.0836289,42.0846186 L10.0836289,42.0846186 C10.0341443,41.9627216 9.98630928,41.8390103 9.93995876,41.7149691 L9.93995876,41.7149691 C9.6476701,40.956701 9.38325773,40.1812784 9.15447423,39.4093196 L9.15447423,39.4093196 C9.11026804,39.267134 9.06936082,39.1236289 9.02861856,38.9797938 L9.02861856,38.9797938 L9.02746392,38.9647835 L9.02268041,38.9598351 C8.98259794,38.816 8.94383505,38.6721649 8.90507216,38.5283299 L8.90507216,38.5283299 L8.90045361,38.5103505 C8.81468041,38.1896907 8.73715464,37.8767835 8.66936082,37.5797113 L8.66936082,37.5797113 C8.63307216,37.4246598 8.59678351,37.2679588 8.56362887,37.1132371 L8.56362887,37.1132371 L8.55769072,37.0837113 C8.52668041,36.9365773 8.49583505,36.7896082 8.46647423,36.6424742 L8.46647423,36.6424742 C8.43661856,36.4953402 8.40857732,36.3485361 8.37954639,36.1956289 L8.37954639,36.1956289 C8.37674227,36.1812784 8.37410309,36.1679175 8.37228866,36.1507629 L8.37228866,36.1507629 L8.3683299,36.1291546 C8.34342268,35.9910928 8.31835052,35.8530309 8.29492784,35.715299 L8.29492784,35.715299 C8.23587629,35.3604948 8.18837113,35.0469278 8.14960825,34.7566186 L8.14960825,34.7566186 C7.75307216,31.8195464 7.78243299,28.8522887 8.23703093,25.9368247 L8.23703093,25.9368247 C8.40247423,24.8786804 8.62779381,23.8106392 8.90804124,22.755299 L8.90804124,22.755299 C9.11637113,20.6274639 9.872,18.5743505 11.0932784,16.8173196 L11.0932784,16.8173196 C12.2896495,15.0959175 13.9089485,13.6880825 15.7761649,12.7458969 L15.7761649,12.7458969 L15.7418557,12.659299 L15.6578969,12.6835464 Z M14.9276701,13.0055258 C14.9501031,12.9976082 14.9722062,12.9911753 14.9961237,12.9845773 L14.9961237,12.9845773 L15.0165773,12.9774845 C15.043299,12.9684124 15.0695258,12.9596701 15.0983918,12.9514227 L15.0983918,12.9514227 C15.1693196,12.9281649 15.241567,12.9052371 15.3161237,12.883134 L15.3161237,12.883134 C13.6112165,13.8254845 12.1314639,15.1595876 11.0164124,16.7640412 L11.0164124,16.7640412 C9.78606186,18.5339381 9.02482474,20.6025567 8.8163299,22.7384742 L8.8163299,22.7384742 C8.53657732,23.7896907 8.31076289,24.8610309 8.14465979,25.9224742 L8.14465979,25.9224742 C7.68857732,28.8468454 7.65921649,31.8233402 8.05707216,34.7689897 L8.05707216,34.7689897 C8.09583505,35.0601237 8.14350515,35.3746804 8.20272165,35.7308041 L8.20272165,35.7308041 C8.22614433,35.8691959 8.25121649,36.0074227 8.27645361,36.1459794 L8.27645361,36.1459794 L8.27991753,36.1639588 C8.28140206,36.1799588 8.28437113,36.1956289 8.28882474,36.2192165 L8.28882474,36.2192165 C8.31686598,36.3663505 8.34507216,36.5138144 8.37476289,36.6609485 L8.37476289,36.6609485 C8.40412371,36.8084124 8.43529897,36.9555464 8.46597938,37.1030103 L8.46597938,37.1030103 L8.47224742,37.1325361 C8.50556701,37.2880825 8.54185567,37.4452784 8.57830928,37.6008247 L8.57830928,37.6008247 C8.64610309,37.8985567 8.72395876,38.2127835 8.81006186,38.5345979 L8.81006186,38.5345979 L8.81484536,38.5527423 C8.85459794,38.7005361 8.89451546,38.8483299 8.93575258,38.9961237 L8.93575258,38.9961237 L8.93905155,39.0071753 L8.93921649,39.0076701 C8.97995876,39.1513402 9.02086598,39.2950103 9.06490722,39.4365361 L9.06490722,39.4365361 C9.29418557,40.2101443 9.55942268,40.9880412 9.85237113,41.7481237 L9.85237113,41.7481237 C9.89212371,41.8545155 9.93319588,41.9609072 9.97542268,42.0664742 L9.97542268,42.0664742 L2.54086598,37.8456082 C2.52090722,37.8342268 2.30878351,37.7181031 2.22762887,37.6740619 L2.22762887,37.6740619 C2.20981443,37.6651546 2.19925773,37.6592165 2.19760825,37.6582268 L2.19760825,37.6582268 C1.2217732,37.1303918 0.501278351,36.2098144 0.220701031,35.1320412 L0.220701031,35.1320412 C0.215917526,35.1143918 0.210969072,35.0949278 0.206515464,35.0764536 L0.206515464,35.0764536 L0.197773196,35.0373608 C0.190680412,35.0063505 0.183752577,34.9756701 0.176659794,34.9423505 L0.176659794,34.9423505 C0.172371134,34.9235464 0.16857732,34.9042474 0.164618557,34.8846186 L0.164618557,34.8846186 C0.161154639,34.8666392 0.157690722,34.8486598 0.153896907,34.8326598 L0.153896907,34.8326598 L0.149113402,34.8041237 C0.144329897,34.7757526 0.139876289,34.7485361 0.136247423,34.7211546 L0.136247423,34.7211546 L0.116453608,34.5751753 C0.115463918,34.553567 0.112659794,34.5321237 0.110020619,34.5106804 L0.110020619,34.5106804 L0.106556701,34.4846186 C0.0989690722,34.3897732 0.0950103093,34.3152165 0.0935257732,34.2423093 L0.0935257732,34.2423093 L0.134762887,25.1513402 C0.138226804,24.550268 0.141360825,23.9407835 0.143010309,23.3364124 L0.143010309,23.3364124 C0.240659794,23.2117113 0.339463918,23.0871753 0.440247423,22.9628041 L0.440247423,22.9628041 C0.534103093,22.8456907 0.629938144,22.7302268 0.728247423,22.6114639 L0.728247423,22.6114639 C0.744082474,22.5911753 0.761237113,22.5690722 0.781525773,22.5469691 L0.781525773,22.5469691 C0.877195876,22.4331546 0.973195876,22.3195052 1.07051546,22.2066804 L1.07051546,22.2066804 C1.17789691,22.0814845 1.28494845,21.9577732 1.39397938,21.8355464 L1.39397938,21.8355464 C1.63562887,21.5635464 1.87579381,21.3019381 2.10837113,21.0586392 L2.10837113,21.0586392 C2.20074227,20.9614845 2.29294845,20.8659794 2.38498969,20.7706392 L2.38498969,20.7706392 L2.4003299,20.7548041 C2.86152577,20.2823918 3.3388866,19.8238351 3.81987629,19.3916701 L3.81987629,19.3916701 C3.91521649,19.3040825 4.01286598,19.2184742 4.11068041,19.132701 L4.11068041,19.132701 L4.18754639,19.0650722 C4.27925773,18.9847423 4.37278351,18.9050722 4.46597938,18.825732 L4.46597938,18.825732 L4.55868041,18.7467216 C4.67414433,18.6494021 4.7897732,18.553567 4.90556701,18.4593814 L4.90556701,18.4593814 C5.15595876,18.2515464 5.41773196,18.0438763 5.70573196,17.8243299 L5.70573196,17.8243299 C7.9516701,16.1058969 10.4244124,14.7091134 13.0550103,13.6725773 L13.0550103,13.6725773 C13.2019794,13.6148454 13.3487835,13.5587629 13.504,13.5000412 L13.504,13.5000412 C13.5709691,13.4746392 13.6377732,13.4492371 13.7050722,13.4253196 L13.7050722,13.4253196 C13.8616082,13.3679175 14.0197938,13.3110103 14.1779794,13.2555876 L14.1779794,13.2555876 L14.1908454,13.2517938 C14.259299,13.2272165 14.3289072,13.2036289 14.3976907,13.1803711 L14.3976907,13.1803711 L14.4550928,13.1609072 C14.5113402,13.1407835 14.5679175,13.1226392 14.6244948,13.104 L14.6244948,13.104 L14.7041649,13.0777732 C14.7089485,13.0767835 14.713567,13.0749691 14.7183505,13.0731546 L14.7183505,13.0731546 L14.7018557,13.0294433 L14.7275876,13.0700206 C14.7927423,13.0470928 14.8582268,13.0261443 14.9276701,13.0055258 L14.9276701,13.0055258 Z" id="Fill-27" fill="url(#linearGradient-4)"></path>
                                <path d="M8.77113402,23.2484948 C8.74127835,23.366433 8.71125773,23.4843711 8.68404124,23.6016495 L8.68404124,23.6016495 C8.64131959,23.7783093 8.60618557,23.932866 8.57731959,24.0701031 L8.57731959,24.0701031 C8.57204124,24.0882474 8.56824742,24.1042474 8.56494845,24.121732 L8.56494845,24.121732 L8.51529897,24.3564536 C8.45360825,24.6484124 8.39241237,24.9639588 8.32808247,25.3232165 L8.32808247,25.3232165 L8.32593814,25.3341031 C8.32296907,25.347134 8.32115464,25.36 8.32016495,25.3710515 L8.32016495,25.3710515 C8.28684536,25.5581031 8.25550515,25.7451546 8.22564948,25.9340206 L8.22564948,25.9340206 C7.77006186,28.8593814 7.74103093,31.8284536 8.13954639,34.7590928 L8.13954639,34.7590928 L8.144,34.7917526 C8.16082474,34.915299 8.17764948,35.0403299 8.1974433,35.1630515 L8.1974433,35.1630515 L8.20140206,35.1901031 C8.22004124,35.3154639 8.23884536,35.4421443 8.26028866,35.5666804 L8.26028866,35.5666804 C8.28189691,35.7009485 8.30498969,35.8347216 8.32824742,35.9691546 L8.32824742,35.9691546 L8.42259794,36.4808247 C8.43249485,36.5293196 8.44189691,36.5776495 8.45129897,36.6259794 L8.45129897,36.6259794 C8.46103093,36.6749691 8.47043299,36.7241237 8.48049485,36.7734433 L8.48049485,36.7734433 C8.54152577,37.0715052 8.59909278,37.3331134 8.65583505,37.5726186 L8.65583505,37.5726186 C8.67579381,37.6605361 8.69723711,37.7482887 8.71884536,37.8358763 L8.71884536,37.8358763 C8.85426804,38.4036289 9.01047423,38.9811134 9.184,39.5524948 L9.184,39.5524948 C9.24503093,39.7529072 9.30787629,39.9511753 9.37270103,40.1496082 L9.37270103,40.1496082 C9.4022268,40.2424742 9.43224742,40.3355052 9.46358763,40.4260619 L9.46358763,40.4260619 C9.50004124,40.5370722 9.53814433,40.6479175 9.57608247,40.7574433 L9.57608247,40.7574433 C9.61764948,40.8765361 9.65905155,40.9939794 9.70210309,41.1114227 L9.70210309,41.1114227 C9.73905155,41.2145155 9.77698969,41.3164536 9.81509278,41.4192165 L9.81509278,41.4192165 L9.84428866,41.4970722 C9.92874227,41.7237113 10.0250722,41.9717938 10.1387216,42.2550103 L10.1387216,42.2550103 L10.1522474,42.2842062 L10.1713814,42.2842062 L18.9093608,47.2458557 L18.9679175,47.2801649 C19.1016907,47.3591753 19.3505979,47.5064742 19.6598763,47.6367835 L19.6598763,47.6367835 L19.6701031,47.6404124 C20.0714227,47.8099794 20.4653196,47.9181856 20.8410722,47.9622268 L20.8410722,47.9622268 C20.8856082,47.9691546 20.9336082,47.9722887 20.9593402,47.9739381 L20.9593402,47.9739381 C21.0926186,47.987134 21.2250722,47.993732 21.3573608,47.993732 L21.3573608,47.993732 C21.9221443,47.993732 22.4771959,47.8741443 23.0121237,47.6366186 L23.0121237,47.6366186 C23.1660206,47.5691546 23.3179381,47.491134 23.4759588,47.3979381 L23.4759588,47.3979381 C23.4759588,47.3979381 27.0256495,45.3718763 30.9524124,43.132701 L30.9524124,43.132701 L31.0677113,43.0668866 L30.9365773,43.0459381 C30.8443711,43.0309278 30.752,43.014433 30.6611134,42.9979381 L30.6611134,42.9979381 C30.5194227,42.9731959 30.3792165,42.9469691 30.236866,42.918433 L30.236866,42.918433 C30.1222268,42.8971546 30.0075876,42.8758763 29.8919588,42.851134 L29.8919588,42.851134 C29.7651134,42.8263918 29.6364536,42.8001649 29.5096082,42.7717938 L29.5096082,42.7717938 C29.3825979,42.7437526 29.2555876,42.7157113 29.1284124,42.6861856 L29.1284124,42.6861856 C28.9021031,42.6345567 28.6604536,42.5758351 28.3676701,42.5012784 L28.3676701,42.5012784 C28.0816495,42.4275464 27.8446186,42.3637113 27.6298557,42.3048247 L27.6298557,42.3048247 L27.6133608,42.2982268 C27.4139381,42.243134 27.1990103,42.1794639 26.9354227,42.0981443 L26.9354227,42.0981443 C26.9118351,42.0918763 26.8882474,42.0841237 26.8643299,42.0755464 L26.8643299,42.0755464 C26.7571134,42.0425567 26.6515464,42.0094021 26.5438351,41.9747629 L26.5438351,41.9747629 C26.5303093,41.9704742 26.5167835,41.9658557 26.5029278,41.9612371 L26.5029278,41.9612371 L26.4649897,41.9483711 C26.3429278,41.9089485 26.2225155,41.8691959 26.1019381,41.8277938 L26.1019381,41.8277938 C25.8701856,41.7496082 25.6364536,41.667299 25.3870515,41.5754227 L25.3870515,41.5754227 C25.2649897,41.5323711 25.1430928,41.4863505 25.0221856,41.4401649 L25.0221856,41.4401649 C25.0043711,41.433567 24.9863918,41.4268041 24.9685773,41.4197113 L24.9685773,41.4197113 C24.9499381,41.4124536 24.9314639,41.4053608 24.9141443,41.3990928 L24.9141443,41.3990928 C24.8301856,41.3661031 24.7462268,41.3332784 24.6616082,41.2984742 L24.6616082,41.2984742 L24.6503918,41.2938557 C24.5336082,41.2475052 24.4168247,41.2011546 24.2997113,41.1529897 L24.2997113,41.1529897 C24.1806186,41.1056495 24.0631753,41.0550103 23.9421031,41.0030515 L23.9421031,41.0030515 C21.2593814,39.8612784 18.7574433,38.3430928 16.5052371,36.4900619 L16.5052371,36.4900619 C16.3996701,36.4026392 16.2939381,36.3152165 16.1882062,36.2258144 L16.1882062,36.2258144 C15.5696495,35.7049072 14.956866,35.1429278 14.3665155,34.5560412 L14.3665155,34.5560412 C14.2281237,34.4189691 14.0842887,34.2729897 13.9081237,34.0917113 L13.9081237,34.0917113 C12.371299,32.9426804 11.0980619,31.4352165 10.2254845,29.7319588 L10.2254845,29.7319588 C9.31101031,27.9468866 8.84717526,26.0174845 8.84717526,23.9971959 L8.84717526,23.9971959 C8.84717526,23.7496082 8.85492784,23.4992165 8.87109278,23.2318351 L8.87109278,23.2318351 L8.77905155,23.2174845 L8.77113402,23.2484948 Z M20.9667629,47.8807423 C20.9413608,47.8792577 20.8968247,47.8761237 20.8521237,47.8696907 L20.8521237,47.8696907 C20.4824742,47.8258144 20.0941856,47.7185979 19.6981443,47.5506804 L19.6981443,47.5506804 L19.6875876,47.5470515 C19.3882062,47.4198763 19.1462268,47.276866 19.0154227,47.1995052 L19.0154227,47.1995052 L10.2190515,42.2037113 C10.1085361,41.9279175 10.0145155,41.6857732 9.93204124,41.4642474 L9.93204124,41.4642474 L9.90284536,41.3863918 C9.86490722,41.2842887 9.82680412,41.1825155 9.78985567,41.0795876 L9.78985567,41.0795876 C9.74696907,40.9623093 9.70589691,40.8453608 9.66465979,40.7265979 L9.66465979,40.7265979 C9.6265567,40.617732 9.58878351,40.5072165 9.5523299,40.3962062 L9.5523299,40.3962062 C9.52098969,40.3054845 9.49129897,40.2134433 9.46160825,40.1209072 L9.46160825,40.1209072 C9.39727835,39.9228041 9.33443299,39.724866 9.27340206,39.5252784 L9.27340206,39.5252784 C9.10086598,38.9557113 8.94482474,38.3800412 8.80973196,37.8139381 L8.80973196,37.8139381 C8.78828866,37.7265155 8.76701031,37.6392577 8.7468866,37.5515052 L8.7468866,37.5515052 C8.69014433,37.3124948 8.63307216,37.0518763 8.57220619,36.7548041 L8.57220619,36.7548041 C8.56230928,36.7058144 8.55290722,36.6569897 8.54317526,36.6081649 L8.54317526,36.6081649 C8.5337732,36.5595052 8.52437113,36.5106804 8.51447423,36.4628454 L8.51447423,36.4628454 L8.42045361,35.9529897 C8.39719588,35.8193814 8.37410309,35.6857732 8.35282474,35.5513402 L8.35282474,35.5513402 C8.33121649,35.4269691 8.31257732,35.3011134 8.29393814,35.1764124 L8.29393814,35.1764124 L8.28997938,35.148701 C8.27002062,35.0259794 8.25336082,34.9021031 8.23686598,34.7792165 L8.23686598,34.7792165 L8.23224742,34.7465567 C7.83521649,31.8249897 7.86408247,28.8646598 8.31818557,25.9483711 L8.31818557,25.9483711 C8.34771134,25.7603299 8.37921649,25.5736082 8.41220619,25.3850722 L8.41220619,25.3850722 C8.41369072,25.3736907 8.41501031,25.3624742 8.41797938,25.3510928 L8.41797938,25.3510928 L8.42045361,25.3378969 C8.48428866,24.9814433 8.54548454,24.6667216 8.60668041,24.3759175 L8.60668041,24.3759175 L8.6563299,24.140701 C8.65946392,24.1256907 8.66259794,24.112 8.66787629,24.0933608 L8.66787629,24.0933608 C8.69327835,23.9729485 8.72263918,23.8428041 8.7574433,23.6971546 L8.7574433,23.6971546 C8.75496907,23.7981031 8.75364948,23.897732 8.75364948,23.9971959 L8.75364948,23.9971959 C8.75364948,26.0323299 9.22078351,27.9760825 10.1421856,29.7748454 L10.1421856,29.7748454 C11.0211959,31.4904742 12.304,33.0091546 13.846433,34.1616495 L13.846433,34.1616495 C14.0174845,34.3383093 14.1616495,34.4851134 14.3005361,34.6225155 L14.3005361,34.6225155 C14.892701,35.2110515 15.5074639,35.7748454 16.1278351,36.297567 L16.1278351,36.297567 C16.2338969,36.3868041 16.3396289,36.4745567 16.4458557,36.5623093 L16.4458557,36.5623093 C18.7048247,38.4207835 21.2148454,39.9437526 23.9086186,41.0904742 L23.9086186,41.0904742 C24.0270515,41.1414433 24.1451546,41.1922474 24.2645773,41.2397526 L24.2645773,41.2397526 C24.3816907,41.2877526 24.4988041,41.334433 24.6159175,41.3809485 L24.6159175,41.3809485 L24.6263093,41.3852371 C24.7109278,41.4198763 24.7955464,41.4530309 24.8811546,41.4865155 L24.8811546,41.4865155 C24.8989691,41.4931134 24.9169485,41.4998763 24.9347629,41.5069691 L24.9347629,41.5069691 C24.9532371,41.5142268 24.9718763,41.5211546 24.9895258,41.5277526 L24.9895258,41.5277526 C25.110433,41.5739381 25.2333196,41.6206186 25.3552165,41.6635052 L25.3552165,41.6635052 C25.6047835,41.7550515 25.8393402,41.8381856 26.0719175,41.9165361 L26.0719175,41.9165361 C26.1928247,41.9579381 26.313567,41.9976907 26.4364536,42.0374433 L26.4364536,42.0374433 L26.4725773,42.0494845 C26.4872577,42.0545979 26.5016082,42.0595464 26.5156289,42.0638351 L26.5156289,42.0638351 C26.6231753,42.0986392 26.7290722,42.1319588 26.8349691,42.1642887 L26.8349691,42.1642887 C26.8588866,42.1730309 26.8851134,42.1814433 26.9093608,42.1882062 L26.9093608,42.1882062 C27.1722887,42.2690309 27.3880412,42.332866 27.5800412,42.3853196 L27.5800412,42.3853196 L27.5965361,42.3917526 C27.8198763,42.454268 28.057567,42.5179381 28.3445773,42.592 L28.3445773,42.592 C28.6381856,42.6667216 28.8806598,42.7257732 29.1074639,42.7774021 L29.1074639,42.7774021 C29.2348041,42.8069278 29.3621443,42.835299 29.4896495,42.8633402 L29.4896495,42.8633402 C29.6171546,42.8915464 29.7463093,42.9179381 29.8733196,42.9426804 L29.8733196,42.9426804 C29.9887835,42.9674227 30.1042474,42.9890309 30.2210309,43.0106392 L30.2210309,43.0106392 C30.361732,43.0388454 30.5027629,43.0654021 30.6447835,43.0899794 L30.6447835,43.0899794 C30.6934433,43.0988866 30.742433,43.1076289 30.7919175,43.1163711 L30.7919175,43.1163711 C26.9110103,45.3298144 23.4296082,47.3167835 23.4291134,47.3171134 L23.4291134,47.3171134 C23.273732,47.4086598 23.1251134,47.4850309 22.9743505,47.5510103 L22.9743505,47.5510103 C22.4516289,47.7830928 21.9096082,47.9002062 21.3573608,47.9002062 L21.3573608,47.9002062 C21.2277113,47.9002062 21.0974021,47.8936082 20.9667629,47.8807423 L20.9667629,47.8807423 Z" id="Fill-33" fill="url(#linearGradient-5)"></path>
                                <path d="M42.7978557,24.7206598 C41.1698144,26.8004948 39.296,28.6564948 37.228701,30.2370309 L37.228701,30.2370309 C34.9722062,31.961732 32.4933608,33.3618144 29.8609485,34.3986804 L29.8609485,34.3986804 C28.8389278,34.8014845 27.7718763,35.1557938 26.6827216,35.4540206 L26.6827216,35.4540206 C25.0330722,36.2098144 23.270268,36.5929897 21.4429691,36.5929897 L21.4429691,36.5929897 C18.8730722,36.5929897 16.4004948,35.8231753 14.2924536,34.3668454 L14.2924536,34.3668454 L14.2327423,34.438433 L14.2602887,34.4663093 C14.2743093,34.4804948 14.2883299,34.4946804 14.3023505,34.5083711 L14.3023505,34.5083711 C14.4065979,34.6127835 14.5108454,34.7170309 14.6178969,34.8189691 L14.6178969,34.8189691 L14.6530309,34.854268 C14.7793814,34.9773196 14.9070515,35.0982268 15.0357113,35.2173196 L15.0357113,35.2173196 C15.0419794,35.2240825 15.0477526,35.2300206 15.0553402,35.2359588 L15.0553402,35.2359588 C15.0756289,35.2549278 15.097567,35.2752165 15.1178557,35.2925361 L15.1178557,35.2925361 C15.2113814,35.3812784 15.3101856,35.4718351 15.4108041,35.5609072 L15.4108041,35.5609072 C15.484866,35.6283711 15.5587629,35.6945155 15.6328247,35.7604948 L15.6328247,35.7604948 L15.6427216,35.7694021 C15.6461856,35.772701 15.6496495,35.7758351 15.6532784,35.779134 L15.6532784,35.779134 L15.6837938,35.7436701 L15.6610309,35.7860619 C15.7786392,35.8904742 15.8962474,35.9930722 16.0151753,36.0936907 L16.0151753,36.0936907 C16.1860619,36.2413196 16.3435876,36.374268 16.4968247,36.4994639 L16.4968247,36.4994639 C18.7493608,38.3511753 21.2522887,39.8705155 23.9368247,41.0145979 L23.9368247,41.0145979 C24.0773608,41.0741443 24.2200412,41.1338557 24.3622268,41.1919175 L24.3622268,41.1919175 C24.678268,41.3204124 24.9593402,41.4297732 25.2212784,41.526268 L25.2212784,41.526268 C25.3505979,41.5741031 25.4812371,41.622268 25.6102268,41.6684536 L25.6102268,41.6684536 L25.7491134,41.718268 C25.9699794,41.7956289 26.2045361,41.875134 26.4870928,41.9678351 L26.4870928,41.9678351 C26.4941856,41.9703093 26.5011134,41.9724536 26.5083711,41.974433 L26.5083711,41.974433 C26.515299,41.9764124 26.5220619,41.9782268 26.5304742,41.9811959 L26.5304742,41.9811959 C26.6777732,42.0293608 26.8250722,42.0757113 26.9722062,42.1202474 L26.9722062,42.1202474 C27.1162062,42.1649485 27.2603711,42.208 27.4042062,42.2494021 L27.4042062,42.2494021 C27.7322887,42.3450722 28.0539381,42.4329897 28.3610722,42.5108454 L28.3610722,42.5108454 C28.633732,42.5811134 28.912,42.6484124 29.2115464,42.7162062 L29.2115464,42.7162062 C29.3623093,42.7510103 29.5130722,42.784 29.6646598,42.8153402 L29.6646598,42.8153402 C29.8155876,42.8484948 29.9678351,42.8783505 30.1204124,42.9082062 L30.1204124,42.9082062 C30.2710103,42.9380619 30.4234227,42.9679175 30.5753402,42.9941443 L30.5753402,42.9941443 C30.7275876,43.0223505 30.8783505,43.0489072 31.0398351,43.0743093 L31.0398351,43.0743093 L31.0517113,43.0743093 L31.0619381,43.068866 C31.0967423,43.0500619 31.1307216,43.0305979 31.1653608,43.0108041 L31.1653608,43.0108041 L31.2001649,42.9903505 C31.7985979,42.6500619 32.403299,42.3044948 33.0033814,41.9610722 L33.0033814,41.9610722 C34.3623918,41.1848247 41.1472165,37.3100206 41.2461856,37.2362887 L41.2461856,37.2362887 L41.2649897,37.2206186 L41.2649897,37.2199588 C41.5945567,36.9619794 41.8711753,36.681732 42.0882474,36.3861443 L42.0882474,36.3861443 L42.1027629,36.3684948 C42.1298144,36.3346804 42.1550515,36.2964124 42.1708866,36.2718351 L42.1708866,36.2718351 C42.5707216,35.696 42.806268,35.0411546 42.8714227,34.3251134 L42.8714227,34.3251134 C42.8851134,34.1494433 42.8894021,33.9754227 42.8846186,33.808 L42.8846186,33.808 L42.8760412,33.5414433 C42.8814845,33.5035052 42.8814845,33.4649072 42.8814845,33.4274639 L42.8814845,33.4274639 L42.8814845,24.6137732 L42.7978557,24.7206598 Z M26.7145567,35.5417732 C27.7997526,35.2450309 28.8699381,34.889732 29.8952577,34.4856082 L29.8952577,34.4856082 C32.5357526,33.4457732 35.0220206,32.0414021 37.2856082,30.3114227 L37.2856082,30.3114227 C39.3238763,28.7529897 41.174268,26.9278351 42.7877938,24.8847835 L42.7877938,24.8847835 L42.7877938,33.4274639 C42.7877938,33.4632577 42.7877938,33.4969072 42.7830103,33.5361649 L42.7830103,33.5361649 L42.7910928,33.8106392 C42.7960412,33.9747629 42.7914227,34.1454845 42.7780619,34.3173608 L42.7780619,34.3173608 C42.7147216,35.0165773 42.4844536,35.6562474 42.0930309,36.2198763 L42.0930309,36.2198763 C42.0813196,36.2380206 42.0633402,36.265732 42.0432165,36.2924536 L42.0432165,36.2924536 L42.0267216,36.3119175 C41.8086598,36.6126186 41.5272577,36.8981443 41.1897732,37.1602474 L41.1897732,37.1602474 L41.1828454,37.1663505 C40.9868866,37.2880825 37.7847423,39.1229691 32.956866,41.8797526 L32.956866,41.8797526 C32.3569485,42.2233402 31.7522474,42.5687423 31.1539794,42.9093608 L31.1539794,42.9093608 L31.1185155,42.9294845 C31.0893196,42.9463093 31.0606186,42.9629691 31.0314227,42.9789691 L31.0314227,42.9789691 C30.8846186,42.9550515 30.739299,42.9293196 30.592,42.902268 L30.592,42.902268 C30.4400825,42.8758763 30.2881649,42.8460206 30.1383918,42.8164948 L30.1383918,42.8164948 C29.9866392,42.7866392 29.8348866,42.7569485 29.6842887,42.7241237 L29.6842887,42.7241237 C29.532701,42.6926186 29.3825979,42.6596289 29.2323299,42.6248247 L29.2323299,42.6248247 C28.9336082,42.5573608 28.656,42.4902268 28.3841649,42.4201237 L28.3841649,42.4201237 C28.0780206,42.3425979 27.7573608,42.2550103 27.430268,42.1596701 L27.430268,42.1596701 C27.2867629,42.118433 27.1434227,42.0755464 26.9997526,42.0310103 L26.9997526,42.0310103 C26.8529485,41.9863093 26.7061443,41.9401237 26.5611546,41.8929485 L26.5611546,41.8929485 C26.5527423,41.8898144 26.5435052,41.8871753 26.5341031,41.8843711 L26.5341031,41.8843711 L26.5164536,41.8790928 C26.2342268,41.7862268 26.0004948,41.7073814 25.7804536,41.6300206 L25.7804536,41.6300206 L25.641567,41.5803711 C25.5130722,41.5341856 25.3825979,41.4861856 25.2539381,41.4385155 L25.2539381,41.4385155 C24.9926598,41.3423505 24.7125773,41.2333196 24.3975258,41.1053196 L24.3975258,41.1053196 C24.2555052,41.0472577 24.1138144,40.9880412 23.9736082,40.9284948 L23.9736082,40.9284948 C21.2973196,39.7878763 18.8018144,38.2733196 16.5562062,36.4268866 L16.5562062,36.4268866 C16.4034639,36.3021856 16.2465979,36.1700619 16.0760412,36.0227629 L16.0760412,36.0227629 C15.9572784,35.9221443 15.8401649,35.8198763 15.7250309,35.7177732 L15.7250309,35.7177732 C15.721732,35.7144742 15.7179381,35.7113402 15.7143093,35.7080412 L15.7143093,35.7080412 L15.6837938,35.7436701 L15.7067216,35.7012784 L15.6951753,35.6907216 C15.6214433,35.6252371 15.5478763,35.5592577 15.4736495,35.491299 L15.4736495,35.491299 C15.3730309,35.4025567 15.2750515,35.3128247 15.1803711,35.2229278 L15.1803711,35.2229278 C15.1594227,35.2051134 15.1384742,35.1856495 15.1140619,35.1632165 L15.1140619,35.1632165 L15.0957526,35.1449072 C14.9710515,35.0301031 14.8442062,34.9096907 14.7186804,34.7874639 L14.7186804,34.7874639 L14.6832165,34.7521649 C14.6678763,34.7374845 14.652701,34.7228041 14.6375258,34.7081237 L14.6375258,34.7081237 C16.6713402,36.0039588 19.0141031,36.6865155 21.4429691,36.6865155 L21.4429691,36.6865155 C23.2837938,36.6865155 25.0597938,36.3003711 26.7145567,35.5417732 L26.7145567,35.5417732 Z" id="Fill-39" fill="url(#linearGradient-6)"></path>
                                <path d="M34.7813608,13.2308454 C35.1797113,16.1674227 35.1500206,19.1406186 34.6955876,22.0656495 L34.6955876,22.0656495 C34.5286598,23.1322062 34.3038351,24.1943093 34.0242474,25.2433814 L34.0242474,25.2433814 C33.5934021,29.6468454 30.9034227,33.3873814 27.1284124,35.2913814 L27.1284124,35.2913814 C27.2146804,35.2668041 27.3011134,35.241732 27.3858969,35.2156701 L27.3858969,35.2156701 C27.6570722,35.1361649 27.926268,35.0520412 28.1939794,34.9628041 L28.1939794,34.9628041 C28.3676701,34.9065567 28.5395464,34.8488247 28.7114227,34.7874639 L28.7114227,34.7874639 C28.7145567,34.7874639 28.7162062,34.7858144 28.7180206,34.7858144 L28.7180206,34.7858144 C28.8783505,34.7298969 29.0385155,34.6718351 29.1971959,34.6141031 L29.1971959,34.6141031 C29.2668041,34.5891959 29.3362474,34.5628041 29.4053608,34.5364124 L29.4053608,34.5364124 C29.5524948,34.4819794 29.7012784,34.4239175 29.8484124,34.3661856 L29.8484124,34.3661856 C32.4793402,33.3283299 34.956701,31.9302268 37.2074227,30.2081649 L37.2074227,30.2081649 C39.3063918,28.6035464 41.2052784,26.7129072 42.8346392,24.6159175 L42.8346392,24.6159175 L42.8346392,13.6687835 C42.8328247,13.667134 42.8346392,13.667134 42.8328247,13.667134 L42.8328247,13.667134 C42.8311753,13.5844948 42.8263918,13.5035052 42.8196289,13.420866 L42.8196289,13.420866 C42.8164948,13.3913402 42.8115464,13.3614845 42.8082474,13.3316289 L42.8082474,13.3316289 C42.806433,13.3085361 42.803299,13.2870928 42.7998351,13.2638351 L42.7998351,13.2638351 C42.796701,13.2372784 42.7932371,13.2094021 42.7901031,13.1813608 L42.7901031,13.1813608 C42.7835052,13.1434227 42.7769072,13.1069691 42.7701443,13.0673814 L42.7701443,13.0673814 C42.7637113,13.0292784 42.755299,12.9911753 42.7470515,12.9548866 L42.7470515,12.9548866 C42.7389691,12.908701 42.7287423,12.864 42.7171959,12.8194639 L42.7171959,12.8194639 C42.7124124,12.7995052 42.7074639,12.7798763 42.7023505,12.761567 L42.7023505,12.761567 C42.4214433,11.6773608 41.7025979,10.7386392 40.691134,10.1916701 L40.691134,10.1916701 C40.691134,10.1916701 40.6814021,10.1865567 40.6616082,10.1768247 L40.6616082,10.1768247 C40.5821031,10.1322887 40.3689897,10.0164948 40.3473814,10.0049485 L40.3473814,10.0049485 C40.3473814,10.0049485 37.1927423,8.21179381 33.603134,6.17418557 L33.603134,6.17418557 C33.3271753,6.01715464 33.0479175,5.85863918 32.7668454,5.69995876 L32.7668454,5.69995876 C33.7519175,8.11942268 34.4344742,10.6611134 34.7813608,13.2308454" id="Fill-6" fill="url(#linearGradient-7)"></path>
                                <path d="M20.1095258,0.398350515 C19.9543093,0.467793814 19.8022268,0.547134021 19.6550928,0.634721649 L19.6550928,0.634721649 L19.4187216,0.775092784 C19.385732,0.789938144 19.3542268,0.804783505 19.3245361,0.824742268 L19.3245361,0.824742268 L11.9985155,4.91002062 C14.0460206,5.25707216 16.060701,5.80734021 17.9874639,6.55257732 L17.9874639,6.55257732 C18.3147216,6.67826804 18.6403299,6.81039175 18.9626392,6.94762887 L18.9626392,6.94762887 C21.6496495,8.09303093 24.1550515,9.61319588 26.4108866,11.4675464 L26.4108866,11.4675464 C27.3176082,12.2126186 28.1817732,13.0139381 28.9997526,13.8607835 L28.9997526,13.8607835 C32.0867629,16.1661031 34.0856082,19.8482474 34.0856082,23.9971959 L34.0856082,23.9971959 C34.0856082,24.2571546 34.076701,24.515134 34.0611959,24.771299 L34.0611959,24.771299 C34.0872577,24.6647423 34.1136495,24.5581856 34.1385567,24.4521237 L34.1385567,24.4521237 C34.153567,24.3976907 34.1667629,24.3429278 34.1783093,24.2884948 L34.1783093,24.2884948 C34.211299,24.1514227 34.2411546,24.0141856 34.2708454,23.8769485 L34.2708454,23.8769485 C34.2807423,23.8357113 34.2904742,23.7926598 34.2988866,23.7497732 L34.2988866,23.7497732 C34.3252784,23.6323299 34.3485361,23.5134021 34.3732784,23.3944742 L34.3732784,23.3944742 C34.3831753,23.3416907 34.3947216,23.2887423 34.4046186,23.2357938 L34.4046186,23.2357938 C34.4196289,23.1628866 34.4328247,23.0903093 34.4460206,23.0192165 L34.4460206,23.0192165 C34.4740619,22.8705979 34.502268,22.7216495 34.5268454,22.5731959 L34.5268454,22.5731959 C34.556701,22.3996701 34.5863918,22.2259794 34.6127835,22.0524536 L34.6127835,22.0524536 C35.0672165,19.1355052 35.0970722,16.1708866 34.7005361,13.2423918 L34.7005361,13.2423918 C34.3501856,10.6444536 33.654268,8.07472165 32.6512165,5.63381443 L32.6512165,5.63381443 C32.0828041,5.30985567 31.5074639,4.98441237 30.9390515,4.66210309 L30.9390515,4.66210309 C27.0851959,2.47406186 23.4922887,0.439587629 23.3966186,0.398350515 L23.3966186,0.398350515 C23.0710103,0.261113402 22.6695258,0.128989691 22.2363711,0.0776907216 L22.2363711,0.0776907216 C22.1933196,0.0709278351 22.1487835,0.0677938144 22.1223918,0.0663092784 L22.1223918,0.0663092784 C21.9919175,0.0532783505 21.862268,0.0468453608 21.734268,0.0468453608 L21.734268,0.0468453608 C21.1600825,0.0468453608 20.6122887,0.174020619 20.1095258,0.398350515" id="Fill-12" fill="url(#linearGradient-8)"></path>
                                <path d="M11.6828041,5.08519588 L9.90960825,6.07505155 L2.13245361,10.4115464 C2.13245361,10.4131959 2.13080412,10.4131959 2.13080412,10.4131959 L2.13080412,10.4131959 C2.06136082,10.454433 1.99191753,10.499134 1.92412371,10.5438351 L1.92412371,10.5438351 C1.89938144,10.5618144 1.87447423,10.5783093 1.85154639,10.5966186 L1.85154639,10.5966186 C1.83323711,10.6098144 1.81492784,10.6246598 1.79694845,10.6378557 L1.79694845,10.6378557 C1.77385567,10.652866 1.75224742,10.6691959 1.72915464,10.6858557 L1.72915464,10.6858557 C1.69929897,10.7087835 1.66960825,10.7336907 1.63826804,10.7567835 L1.63826804,10.7567835 C1.60841237,10.7816907 1.5788866,10.8082474 1.55068041,10.8329897 L1.55068041,10.8329897 C1.51587629,10.8626804 1.48123711,10.8923711 1.44808247,10.9222268 L1.44808247,10.9222268 C1.43323711,10.9370722 1.4185567,10.9519175 1.40354639,10.9649485 L1.40354639,10.9649485 C0.593649485,11.7352577 0.126020619,12.812701 0.140865979,13.9546392 L0.140865979,13.9546392 L0.140865979,13.9896082 C0.140865979,14.0074227 0.121072165,18.1705567 0.099628866,22.716866 L0.099628866,22.716866 C0.099628866,22.8722474 0.0979793814,23.0291134 0.0963298969,23.1863093 L0.0963298969,23.1863093 C0.165608247,23.0985567 0.235216495,23.011134 0.304659794,22.9250309 L0.304659794,22.9250309 C0.379051546,22.8326598 0.454927835,22.7383093 0.530969072,22.6475876 L0.530969072,22.6475876 C0.616907216,22.5416907 0.704494845,22.4376082 0.791917526,22.3333608 L0.791917526,22.3333608 C0.884618557,22.2243299 0.977319588,22.115299 1.07134021,22.0077526 L1.07134021,22.0077526 C1.25476289,21.7964536 1.43983505,21.5881237 1.62837113,21.3830928 L1.62837113,21.3830928 C1.66960825,21.3369072 1.71084536,21.2922062 1.75389691,21.2476701 L1.75389691,21.2476701 C1.83323711,21.161567 1.91257732,21.0774433 1.99356701,20.9916701 L1.99356701,20.9916701 C2.01171134,20.9733608 2.03002062,20.953567 2.048,20.9336082 L2.048,20.9336082 C2.14878351,20.8295258 2.24973196,20.7254433 2.35051546,20.6213608 L2.35051546,20.6213608 C2.45294845,20.5172784 2.55538144,20.4148454 2.65781443,20.3124124 L2.65781443,20.3124124 C2.72560825,20.2444536 2.79340206,20.1768247 2.86284536,20.1105155 L2.86284536,20.1105155 C2.93872165,20.0362887 3.01476289,19.9620619 3.09261856,19.8891546 L3.09261856,19.8891546 C3.51554639,19.4843711 3.95018557,19.094433 4.3948866,18.7158763 L4.3948866,18.7158763 C4.46086598,18.6581443 4.52849485,18.6020619 4.59645361,18.5456495 L4.59645361,18.5456495 C4.63604124,18.5108454 4.67727835,18.4778557 4.71868041,18.444866 L4.71868041,18.444866 C4.80296907,18.3737732 4.88725773,18.3043299 4.97319588,18.236701 L4.97319588,18.236701 C5.18812371,18.0615258 5.40618557,17.8894845 5.62771134,17.7209072 L5.62771134,17.7209072 C7.88354639,15.9955464 10.3673402,14.5924948 13.0066804,13.5531546 L13.0066804,13.5531546 C14.041732,13.1445773 15.1031753,12.7932371 16.1821031,12.4984742 L16.1821031,12.4984742 C17.7840825,11.7644536 19.5655258,11.3547216 21.4429691,11.3547216 L21.4429691,11.3547216 C24.1001237,11.3547216 26.5652784,12.1750103 28.6004124,13.5755876 L28.6004124,13.5755876 C27.8860206,12.8585567 27.1374845,12.1774845 26.3597526,11.5386392 L26.3597526,11.5386392 C26.3548041,11.5353402 26.3496907,11.5320412 26.3496907,11.5302268 L26.3496907,11.5302268 C24.1037526,9.68428866 21.6067629,8.1705567 18.9245361,7.02878351 L18.9245361,7.02878351 C16.6787629,6.06993814 14.2972371,5.38243299 11.8711753,4.97929897 L11.8711753,4.97929897 L11.6828041,5.08519588 Z" id="Fill-18" fill="url(#linearGradient-9)"></path>
                                <path d="M15.5515052,12.7632165 C15.4723299,12.7861443 15.3946392,12.8094021 15.3169485,12.8343093 L15.3169485,12.8343093 C15.2376082,12.8574021 15.1599175,12.8823093 15.0838763,12.9068866 L15.0838763,12.9068866 C15.0492371,12.9167835 15.0160825,12.9283299 14.9814433,12.9400412 L14.9814433,12.9400412 C14.9581856,12.9466392 14.9350928,12.9532371 14.912,12.9614845 L14.912,12.9614845 C14.8442062,12.9812784 14.7780619,13.0027216 14.7120825,13.0259794 L14.7120825,13.0259794 C14.7054845,13.0277938 14.6988866,13.0307629 14.6922887,13.0324124 L14.6922887,13.0324124 C14.6078351,13.0606186 14.5237113,13.0871753 14.4392577,13.116866 L14.4392577,13.116866 C14.3518351,13.1463918 14.2625979,13.1762474 14.1750103,13.2077526 L14.1750103,13.2077526 C14.1717113,13.2077526 14.1700619,13.2094021 14.1682474,13.2094021 L14.1682474,13.2094021 C14.0080825,13.2654845 13.8477526,13.3233814 13.6890722,13.3811134 L13.6890722,13.3811134 C13.6196289,13.4061856 13.5501856,13.4324124 13.4807423,13.4588041 L13.4807423,13.4588041 C13.3321237,13.5150515 13.1849897,13.571299 13.0378557,13.6290309 L13.0378557,13.6290309 C10.4036289,14.6668866 7.92808247,16.0651546 5.67719588,17.7870515 L5.67719588,17.7870515 C5.40618557,17.993567 5.13847423,18.2051959 4.87587629,18.4232577 L4.87587629,18.4232577 C4.76008247,18.5176082 4.64428866,18.6134433 4.52849485,18.7109278 L4.52849485,18.7109278 C4.40478351,18.8166598 4.27925773,18.9225567 4.15686598,19.0299381 L4.15686598,19.0299381 C4.03282474,19.1389691 3.90894845,19.2463505 3.78820619,19.3570309 L3.78820619,19.3570309 C3.30078351,19.795134 2.82639175,20.2510515 2.36701031,20.7219794 L2.36701031,20.7219794 C2.26936082,20.8229278 2.17204124,20.9238763 2.0745567,21.0263093 L2.0745567,21.0263093 C1.83158763,21.2806598 1.59356701,21.5401237 1.35917526,21.8045361 L1.35917526,21.8045361 C1.24981443,21.9267629 1.14243299,22.0508041 1.03505155,22.1764948 L1.03505155,22.1764948 C0.93756701,22.2888247 0.84156701,22.4028041 0.745896907,22.5169485 L0.745896907,22.5169485 C0.725938144,22.5383918 0.707793814,22.5614845 0.691298969,22.5830928 L0.691298969,22.5830928 C0.593649485,22.7003711 0.497979381,22.816 0.403793814,22.9334433 L0.403793814,22.9334433 C0.299546392,23.062268 0.197113402,23.1910928 0.0963298969,23.3199175 L0.0963298969,23.3199175 C0.0946804124,23.9298969 0.0912164948,24.5446598 0.0880824742,25.1511753 L0.0880824742,25.1511753 C0.0666391753,29.8479175 0.0466804124,34.2421443 0.0466804124,34.2421443 L0.0466804124,34.2421443 L0.0466804124,34.2437938 C0.0483298969,34.326433 0.0532783505,34.4059381 0.0602061856,34.4882474 L0.0602061856,34.4882474 C0.0631752577,34.5181031 0.0682886598,34.5479588 0.0699381443,34.5778144 L0.0699381443,34.5778144 C0.0732371134,34.5992577 0.0765360825,34.6223505 0.0798350515,34.6437938 L0.0798350515,34.6437938 C0.0831340206,34.6718351 0.0864329897,34.6982268 0.0897319588,34.726433 L0.0897319588,34.726433 C0.0946804124,34.7643711 0.101278351,34.8008247 0.107876289,34.8404124 L0.107876289,34.8404124 C0.116123711,34.8785155 0.122721649,34.9164536 0.131134021,34.9527423 L0.131134021,34.9527423 C0.140865979,34.9990928 0.150762887,35.0419794 0.160824742,35.0866804 L0.160824742,35.0866804 C0.165608247,35.1064742 0.170721649,35.126433 0.175835052,35.1444124 L0.175835052,35.1444124 C0.45657732,36.2236701 1.17047423,37.1557938 2.17550515,37.6994639 L2.17550515,37.6994639 C2.17550515,37.6994639 2.1868866,37.7062268 2.20668041,37.7159588 L2.20668041,37.7159588 C2.28602062,37.7590103 2.49764948,37.8746392 2.51727835,37.8861856 L2.51727835,37.8861856 L9.51290722,41.8573196 L10.0682887,42.1731959 C10.0583918,42.1499381 10.0499794,42.1251959 10.0400825,42.1021031 L10.0400825,42.1021031 C9.99059794,41.9798763 9.94259794,41.8558351 9.89641237,41.7319588 L9.89641237,41.7319588 C9.60395876,40.9733608 9.34119588,40.2032165 9.1097732,39.4230103 L9.1097732,39.4230103 C9.06507216,39.2795052 9.0236701,39.1340206 8.98243299,38.9885361 L8.98243299,38.9885361 C8.98243299,38.9868866 8.98243299,38.9852371 8.98078351,38.9834227 L8.98078351,38.9834227 C8.93773196,38.8298557 8.89649485,38.6761237 8.85509278,38.5225567 L8.85509278,38.5225567 C8.77261856,38.2134433 8.69492784,37.9025155 8.62383505,37.590433 L8.62383505,37.590433 C8.58738144,37.4350515 8.55125773,37.2781856 8.51793814,37.1228041 L8.51793814,37.1228041 C8.48494845,36.9657732 8.45195876,36.8087423 8.42061856,36.6517113 L8.42061856,36.6517113 C8.39076289,36.5045773 8.36272165,36.3574433 8.33468041,36.2104742 L8.33468041,36.2104742 C8.33138144,36.1923299 8.32808247,36.176 8.32626804,36.1593402 L8.32626804,36.1593402 C8.29987629,36.0138557 8.27348454,35.8683711 8.24874227,35.7228866 L8.24874227,35.7228866 C8.19579381,35.4040412 8.14630928,35.0833814 8.10325773,34.7627216 L8.10325773,34.7627216 C7.70672165,31.8261443 7.73476289,28.8545979 8.19084536,25.929567 L8.19084536,25.929567 C8.3577732,24.8626804 8.58210309,23.8005773 8.86169072,22.7505155 L8.86169072,22.7505155 C9.29237113,18.3483711 11.9813608,14.6086598 15.7550515,12.7041649 L15.7550515,12.7041649 C15.6872577,12.7239588 15.619134,12.7429278 15.5515052,12.7632165" id="Fill-24" fill="url(#linearGradient-10)"></path>
                                <path d="M8.72956701,23.6125361 C8.69162887,23.769732 8.65534021,23.926433 8.62218557,24.0834639 L8.62218557,24.0834639 C8.61723711,24.1001237 8.61393814,24.1149691 8.61063918,24.1316289 L8.61063918,24.1316289 C8.59397938,24.2093196 8.57764948,24.2884948 8.56098969,24.3661856 L8.56098969,24.3661856 C8.49319588,24.6868454 8.43216495,25.0073402 8.37426804,25.3298144 L8.37426804,25.3298144 C8.37426804,25.3329485 8.37278351,25.3362474 8.37278351,25.3395464 L8.37278351,25.3395464 C8.36931959,25.3527423 8.3676701,25.3659381 8.36602062,25.379299 L8.36602062,25.379299 C8.33303093,25.5660206 8.30152577,25.7527423 8.27183505,25.9411134 L8.27183505,25.9411134 C7.81723711,28.8597113 7.78771134,31.8228454 8.18589691,34.7528247 L8.18589691,34.7528247 C8.20404124,34.8867629 8.22218557,35.0221856 8.24362887,35.1561237 L8.24362887,35.1561237 C8.26358763,35.2898969 8.28338144,35.4254845 8.30663918,35.5594227 L8.30663918,35.5594227 C8.32808247,35.6933608 8.35117526,35.827134 8.37426804,35.9609072 L8.37426804,35.9609072 C8.3942268,36.0715876 8.41385567,36.1806186 8.43381443,36.2898144 L8.43381443,36.2898144 C8.44536082,36.3510103 8.45690722,36.4103918 8.46845361,36.4715876 L8.46845361,36.4715876 C8.48841237,36.5690722 8.5065567,36.6665567 8.52635052,36.7640412 L8.52635052,36.7640412 C8.58078351,37.030268 8.63868041,37.2979794 8.70152577,37.5623918 L8.70152577,37.5623918 C8.72131959,37.6499794 8.74292784,37.7374021 8.76420619,37.8249897 L8.76420619,37.8249897 C8.90160825,38.4001649 9.05682474,38.9718763 9.22870103,39.5388041 L9.22870103,39.5388041 C9.28989691,39.7388866 9.35257732,39.9371546 9.41707216,40.1354227 L9.41707216,40.1354227 C9.44676289,40.2281237 9.47661856,40.3204948 9.50795876,40.4113814 L9.50795876,40.4113814 C9.54424742,40.5222268 9.58218557,40.6327423 9.62028866,40.7419381 L9.62028866,40.7419381 C9.66169072,40.8610309 9.70292784,40.9783093 9.74597938,41.0957526 L9.74597938,41.0957526 C9.79216495,41.2245773 9.84016495,41.3517526 9.888,41.4805773 L9.888,41.4805773 C9.98235052,41.7336082 10.0814845,41.9864742 10.182268,42.2375258 L10.182268,42.2375258 L10.1839175,42.2375258 L11.8182268,43.1663505 L18.9327835,47.2052784 C19.0502268,47.2730722 19.3212371,47.443299 19.6781856,47.593567 L19.6781856,47.593567 L19.6798351,47.593567 C20.0070928,47.7326186 20.4120412,47.8649072 20.8466804,47.9158763 L20.8466804,47.9158763 L20.8481649,47.9158763 C20.8912165,47.9224742 20.9374021,47.9259381 20.9639588,47.9275876 L20.9639588,47.9275876 C21.6844536,47.9985155 22.3719588,47.8696907 22.9933196,47.593567 L22.9933196,47.593567 C23.152,47.5242887 23.3040825,47.4451134 23.452701,47.3575258 L23.452701,47.3575258 C23.452701,47.3575258 27.0025567,45.331299 30.9293196,43.0919588 L30.9293196,43.0919588 C30.8366186,43.0771134 30.7440825,43.0604536 30.6531959,43.0441237 L30.6531959,43.0441237 C30.5110103,43.0193814 30.3706392,42.9929897 30.230268,42.9647835 L30.230268,42.9647835 C30.1146392,42.9431753 29.9988454,42.921732 29.8828866,42.8969897 L29.8828866,42.8969897 C29.7557113,42.8722474 29.6268866,42.8458557 29.4997113,42.8176495 L29.4997113,42.8176495 C29.3723711,42.7896082 29.2450309,42.7614021 29.1178557,42.7318763 L29.1178557,42.7318763 C28.8633402,42.6738144 28.6088247,42.611134 28.3561237,42.5466392 L28.3561237,42.5466392 C28.1063918,42.4823093 27.8568247,42.416 27.6089072,42.3465567 L27.6089072,42.3465567 C27.6057732,42.3450722 27.6041237,42.3450722 27.6008247,42.3434227 L27.6008247,42.3434227 C27.3745155,42.2804124 27.1480412,42.2127835 26.9232165,42.1433402 L26.9232165,42.1433402 C26.8984742,42.1367423 26.873732,42.1284948 26.8504742,42.1202474 L26.8504742,42.1202474 C26.7430928,42.0870928 26.6373608,42.0541031 26.5299794,42.0194639 L26.5299794,42.0194639 C26.5035876,42.0110515 26.4771959,42.0013196 26.4506392,41.9929072 L26.4506392,41.9929072 C26.3282474,41.9534845 26.2075052,41.913732 26.0869278,41.8723299 L26.0869278,41.8723299 C25.8474227,41.7913402 25.6094021,41.7072165 25.3713814,41.6194639 L25.3713814,41.6194639 C25.2491546,41.5765773 25.1269278,41.5302268 25.0061856,41.4840412 L25.0061856,41.4840412 C24.9698969,41.4708454 24.9334433,41.4558351 24.8971546,41.4426392 L24.8971546,41.4426392 C24.812866,41.4096495 24.7285773,41.3764948 24.6442887,41.3418557 L24.6442887,41.3418557 C24.5237113,41.2938557 24.4029691,41.2458557 24.2823918,41.1965361 L24.2823918,41.1965361 C24.1616495,41.1485361 24.0427216,41.0974021 23.9237938,41.0461031 L23.9237938,41.0461031 C21.2366186,39.9023505 18.7312165,38.3820206 16.4755464,36.5260206 L16.4755464,36.5260206 C16.3696495,36.4385979 16.2639175,36.3510103 16.1581856,36.2617732 L16.1581856,36.2617732 C15.5285773,35.731299 14.9202474,35.1726186 14.3336907,34.5891959 L14.3336907,34.5891959 C14.1806186,34.4377732 14.0296907,34.2838763 13.8800825,34.1291546 L13.8800825,34.1291546 C10.7965361,31.8235052 8.8003299,28.1435052 8.8003299,23.9971959 L8.8003299,23.9971959 C8.8003299,23.7392165 8.80907216,23.4832165 8.82441237,23.228866 L8.82441237,23.228866 C8.79208247,23.356866 8.75925773,23.484701 8.72956701,23.6125361" id="Fill-30" fill="url(#linearGradient-11)"></path>
                                <path d="M37.2570722,30.2743093 C34.9997526,31.9996701 32.5174433,33.4027216 29.878268,34.4420619 L29.878268,34.4420619 C28.8432165,34.8499794 27.7817732,35.2014845 26.7023505,35.4965773 L26.7023505,35.4965773 C25.100866,36.2301031 23.3197526,36.6398351 21.4429691,36.6398351 L21.4429691,36.6398351 C18.7772371,36.6398351 16.3048247,35.8139381 14.2658969,34.4054433 L14.2658969,34.4054433 C14.2891546,34.428701 14.3117526,34.4522887 14.3353402,34.4752165 L14.3353402,34.4752165 C14.4392577,34.579299 14.5433402,34.6833814 14.6508866,34.7858144 L14.6508866,34.7858144 L14.6856907,34.8207835 C14.809567,34.9413608 14.9367423,35.0617732 15.0640825,35.1792165 L15.0640825,35.1792165 C15.0706804,35.1858144 15.0756289,35.1924124 15.0822268,35.1975258 L15.0822268,35.1975258 C15.1036701,35.2171546 15.1267629,35.2387629 15.1501856,35.2585567 L15.1501856,35.2585567 C15.2458557,35.3494433 15.3435052,35.4386804 15.4424742,35.5261031 L15.4424742,35.5261031 C15.5201649,35.5973608 15.5978557,35.6668041 15.6755464,35.7360825 L15.6755464,35.7360825 C15.6804948,35.7410309 15.6870928,35.7461443 15.6922062,35.7510928 L15.6922062,35.7510928 C15.8094845,35.8551753 15.9267629,35.9576082 16.0456907,36.0585567 L16.0456907,36.0585567 C16.2045361,36.1956289 16.364701,36.3312165 16.5266804,36.4631753 L16.5266804,36.4631753 C18.7759175,38.3125773 21.2762062,39.8296082 23.955299,40.9715464 L23.955299,40.9715464 C24.0956701,41.0312577 24.2376907,41.0906392 24.3798763,41.1485361 L24.3798763,41.1485361 C24.6640825,41.2641649 24.9499381,41.3764948 25.2376082,41.4823918 L25.2376082,41.4823918 C25.366433,41.5302268 25.4970722,41.5783918 25.6258969,41.6244124 L25.6258969,41.6244124 C25.6722474,41.6409072 25.7185979,41.6574021 25.7647835,41.6738969 L25.7647835,41.6738969 C26.0094021,41.76 26.2556701,41.8424742 26.5019381,41.9236289 L26.5019381,41.9236289 C26.5167835,41.9285773 26.5314639,41.9317113 26.5446598,41.9368247 L26.5446598,41.9368247 C26.6917938,41.9846598 26.8390928,42.0311753 26.9860619,42.0755464 L26.9860619,42.0755464 C27.129732,42.1202474 27.273567,42.163299 27.4172371,42.2045361 L27.4172371,42.2045361 C27.7347629,42.2969072 28.0536082,42.3844948 28.3726186,42.4656495 L28.3726186,42.4656495 C28.6553402,42.5383918 28.937732,42.6060206 29.2221031,42.6705155 L29.2221031,42.6705155 C29.3723711,42.7051546 29.5228041,42.7383093 29.6748866,42.7698144 L29.6748866,42.7698144 C29.8251546,42.8028041 29.9772371,42.8324948 30.1293196,42.8623505 L30.1293196,42.8623505 C30.2797526,42.8920412 30.4318351,42.921732 30.5835876,42.9482887 L30.5835876,42.9482887 C30.7358351,42.9763299 30.886268,43.0027216 31.0381856,43.0274639 L31.0381856,43.0274639 L31.0398351,43.0274639 C31.0861856,43.0027216 31.1307216,42.9763299 31.1772371,42.9499381 L31.1772371,42.9499381 C31.7753402,42.6093196 32.3802062,42.2640825 32.9801237,41.9201649 L32.9801237,41.9201649 C37.1595876,39.5340206 41.1473814,37.2516289 41.2184742,37.1988454 L41.2184742,37.1988454 L41.2184742,37.1971959 C41.4993814,36.979134 41.8083299,36.6931134 42.0646598,36.3394639 L42.0646598,36.3394639 L42.0661443,36.3394639 C42.0925361,36.3063093 42.1172784,36.2682062 42.1321237,36.2451134 L42.1321237,36.2451134 C42.5421856,35.6552577 42.7637113,34.9957938 42.8247423,34.3214845 L42.8247423,34.3214845 C42.8379381,34.1529072 42.8430515,33.9810309 42.8379381,33.8093196 L42.8379381,33.8093196 L42.8296907,33.5350103 C42.8346392,33.5000412 42.8346392,33.4637526 42.8346392,33.4274639 L42.8346392,33.4274639 L42.8346392,24.7496907 C41.2150103,26.8186392 39.334433,28.6861856 37.2570722,30.2743093" id="Fill-36" fill="url(#linearGradient-12)"></path>
                            </g>
                            <circle id="Oval" fill="#FFFFFF" cx="21.443299" cy="24.0824742" r="12.7010309"></circle>
                            <g id="Group-4" transform="translate(13.971517, 16.752412)">
                                <path d="M2.79778639,13.3591753 L2.60050804,13.3591753 C2.5145699,13.3591753 2.4447967,13.4287835 2.4447967,13.5147216 C2.4447967,13.6006598 2.5145699,13.670433 2.60050804,13.670433 L2.79778639,13.670433 C2.88372454,13.670433 2.95333279,13.6006598 2.95333279,13.5147216 C2.95333279,13.4287835 2.88372454,13.3591753 2.79778639,13.3591753 L2.79778639,13.3591753 Z M6.87943588,8.51134021 C6.81494103,8.45476289 6.7167967,8.46086598 6.65988949,8.52503093 C6.60298227,8.58969072 6.60908536,8.688 6.67358021,8.74474227 L6.75209567,8.81402062 C6.78162145,8.84024742 6.81840495,8.8531134 6.85502351,8.8531134 C6.89807505,8.8531134 6.94096165,8.83529897 6.97180701,8.8003299 C7.02854928,8.736 7.02244619,8.63769072 6.95811629,8.58078351 L6.87943588,8.51134021 Z M15.2490854,12.9019381 L15.2490854,12.428866 L11.8384462,12.428866 C11.2002606,12.428866 10.5853328,12.1964536 10.1069823,11.7741856 L7.31555959,9.31134021 C7.25106474,9.25443299 7.24496165,9.15612371 7.30186887,9.09162887 C7.35861114,9.02729897 7.45708536,9.02103093 7.52158021,9.07793814 L10.3128379,11.5409485 C10.7342812,11.9127423 11.2761369,12.1177732 11.8384462,12.1177732 L15.2490854,12.1177732 L15.2490854,11.6463505 C15.2490854,11.3418557 15.086941,11.0551753 14.8256627,10.8984742 L12.9411266,9.76791753 C12.5770854,9.54936082 12.2950235,9.20989691 12.1470647,8.81204124 L11.973374,8.34540206 L11.3871472,8.34540206 C11.301374,8.34540206 11.2316008,8.27579381 11.2316008,8.18985567 C11.2316008,8.10391753 11.301374,8.03430928 11.3871472,8.03430928 L11.8575802,8.03430928 L11.6147761,7.3817732 L11.0141988,7.3817732 C10.9280957,7.3817732 10.8584874,7.312 10.8584874,7.22606186 C10.8584874,7.14012371 10.9280957,7.07051546 11.0141988,7.07051546 L11.4989823,7.07051546 L11.2561781,6.41797938 L10.6410854,6.41797938 C10.5549823,6.41797938 10.485374,6.34820619 10.485374,6.26243299 C10.485374,6.1763299 10.5549823,6.10672165 10.6410854,6.10672165 L11.1403843,6.10672165 L10.8479307,5.32074227 L9.33617815,5.32074227 C8.35720907,5.32074227 7.56067299,4.52420619 7.56067299,3.54523711 L7.56067299,2.56461856 L6.8345699,2.56461856 C6.73461114,2.56461856 6.63646681,2.57979381 6.54162145,2.61047423 C6.44083794,3.16470103 6.00141526,3.59340206 5.44669361,3.68247423 L4.9993534,4.21476289 L5.5708998,4.70334021 C6.26929155,5.30078351 6.35440495,6.35727835 5.76075547,7.05880412 L5.53510598,7.32536082 L6.35572454,8.04948454 C6.42021938,8.1062268 6.42632248,8.20453608 6.36941526,8.26903093 C6.31283794,8.33352577 6.21436371,8.33962887 6.14986887,8.2828866 L3.51597196,5.95876289 L3.23407505,6.24082474 C3.1440132,6.3308866 3.09667299,6.45030928 3.10030186,6.57764948 C3.10393072,6.70482474 3.15852866,6.8214433 3.25353897,6.90589691 L9.86467299,12.7826804 C10.2857864,13.1543093 10.8276421,13.3591753 11.3899513,13.3591753 L14.7918482,13.3591753 C15.0438895,13.3591753 15.2490854,13.1539794 15.2490854,12.9019381 L15.2490854,12.9019381 Z M3.72628124,5.72915464 L5.30170392,7.11934021 L5.52322969,6.85756701 C6.00669361,6.28651546 5.93725031,5.42614433 5.36867299,4.93987629 L4.79910598,4.45294845 L3.72628124,5.72915464 Z M4.26021938,3.38870103 L5.23193072,3.38870103 C5.27102351,3.38870103 5.3094565,3.3862268 5.34739464,3.38210309 C5.34772454,3.38193814 5.34821938,3.3817732 5.34871423,3.3817732 C5.81749773,3.3283299 6.1948998,2.94927835 6.24619877,2.47983505 C6.24619877,2.47934021 6.24636371,2.47884536 6.24636371,2.47835052 C6.24883794,2.45624742 6.25081732,2.43414433 6.25164206,2.41154639 L6.25164206,1.28824742 C6.22871423,0.740123711 5.78120907,0.311092784 5.23193072,0.311092784 L0.443642064,0.311092784 L0.688260621,0.685030928 C0.870528662,0.963463918 1.17799258,1.12940206 1.51052866,1.12940206 L1.51663175,1.12940206 L4.9193534,1.12940206 C5.0054565,1.12940206 5.07506474,1.19917526 5.07506474,1.2851134 C5.07506474,1.37105155 5.0054565,1.44065979 4.9193534,1.44065979 L1.80463175,1.44065979 L2.04925031,1.81459794 C2.23151835,2.09286598 2.53898227,2.25913402 2.87151835,2.25913402 L2.90516784,2.25913402 L4.9193534,2.25913402 C5.0054565,2.25913402 5.07506474,2.32874227 5.07506474,2.41468041 C5.07506474,2.50078351 5.0054565,2.57039175 4.9193534,2.57039175 L3.19300289,2.57039175 L3.43795134,2.94416495 C3.62005444,3.22243299 3.92751835,3.38870103 4.26021938,3.38870103 L4.26021938,3.38870103 Z M15.5603431,11.6463505 L15.5603431,12.2733196 L15.5603431,12.9019381 C15.5603431,13.3256907 15.2156008,13.670433 14.7918482,13.670433 L11.3899513,13.670433 L3.50937402,13.670433 C3.42343588,13.670433 3.35382763,13.6006598 3.35382763,13.5147216 C3.35382763,13.4287835 3.42343588,13.3591753 3.50937402,13.3591753 L10.1523431,13.3591753 C9.9763431,13.2646598 9.81040495,13.1496907 9.65832248,13.0155876 L3.04685856,7.13847423 C2.88685856,6.99645361 2.79531217,6.80049485 2.78920907,6.58672165 C2.78294103,6.37294845 2.86277608,6.17204124 3.01403382,6.02078351 L3.3945699,5.64008247 L5.02558021,3.69979381 L4.26005444,3.69979381 C3.82211629,3.69979381 3.41749773,3.48107216 3.17749773,3.11472165 L2.82054928,2.56940206 C2.40224,2.55290722 2.01939464,2.33731959 1.78896165,1.98515464 L1.43102351,1.43835052 C1.02393072,1.41360825 0.653291549,1.1996701 0.427971961,0.855587629 L0.0253327859,0.240989691 C-0.00584247187,0.193154639 -0.00848164713,0.131958763 0.0187348477,0.0816494845 C0.0459513426,0.0313402062 0.0985698993,3.39888484e-14 0.155642064,3.39888484e-14 L5.23193072,3.39888484e-14 C5.94995134,3.39888484e-14 6.53452866,0.561814433 6.56273485,1.27917526 C6.56273485,1.28098969 6.5628998,1.28313402 6.5628998,1.2851134 L6.5628998,2.28305155 C6.65180701,2.26342268 6.74252866,2.25319588 6.8345699,2.25319588 L7.71621938,2.25319588 C7.80215753,2.25319588 7.87193072,2.32296907 7.87193072,2.40874227 L7.87193072,3.54523711 C7.87193072,4.35249485 8.52875547,5.00948454 9.33617815,5.00948454 L10.955972,5.00948454 C11.0211266,5.00948454 11.0791885,5.04989691 11.1019513,5.11076289 L11.4724256,6.10672165 L11.8674771,6.10672165 C11.9535802,6.10672165 12.0231885,6.1763299 12.0231885,6.26243299 C12.0231885,6.34820619 11.9535802,6.41797938 11.8674771,6.41797938 L11.5882194,6.41797938 L11.8310235,7.07035052 L12.2405905,7.07035052 C12.3266936,7.07035052 12.3961369,7.14012371 12.3961369,7.22589691 C12.3961369,7.312 12.3266936,7.38160825 12.2405905,7.38160825 L11.9468173,7.38160825 L12.1896214,8.03414433 L12.6137039,8.03414433 C12.6996421,8.03414433 12.7692503,8.10391753 12.7692503,8.18969072 C12.7692503,8.27579381 12.6996421,8.34540206 12.6137039,8.34540206 L12.3054153,8.34540206 L12.4385287,8.70334021 C12.5620751,9.03538144 12.7974565,9.31859794 13.1012915,9.50086598 L14.9858276,10.6317526 C15.3401369,10.8442062 15.5603431,11.2329897 15.5603431,11.6463505 L15.5603431,11.6463505 Z" id="Fill-56" fill="#FFFFFF"></path>
                                <path d="M0.443658559,0.311175258 L0.688277116,0.684948454 C0.870545157,0.963381443 1.17784413,1.12948454 1.51054516,1.12948454 L1.51054516,1.12948454 L1.51664825,1.12948454 L4.9193699,1.12948454 C5.00547299,1.12948454 5.07491629,1.19925773 5.07491629,1.28503093 L5.07491629,1.28503093 C5.07491629,1.37113402 5.00547299,1.44074227 4.9193699,1.44074227 L4.9193699,1.44074227 L1.8044833,1.44074227 L2.04926681,1.81451546 C2.23153485,2.09294845 2.53883382,2.25921649 2.87153485,2.25921649 L2.87153485,2.25921649 L2.90534928,2.25921649 L4.9193699,2.25921649 C5.00547299,2.25921649 5.07491629,2.32882474 5.07491629,2.41476289 L5.07491629,2.41476289 C5.07491629,2.50070103 5.00547299,2.57030928 4.9193699,2.57030928 L4.9193699,2.57030928 L3.19318433,2.57030928 L3.43796784,2.94424742 C3.62007093,3.22235052 3.9273699,3.38861856 4.26023588,3.38861856 L4.26023588,3.38861856 L5.23178227,3.38861856 C5.27104,3.38861856 5.30930804,3.38630928 5.34741114,3.38202062 L5.34741114,3.38202062 C5.34757608,3.38202062 5.34823588,3.38185567 5.34873072,3.38185567 L5.34873072,3.38185567 C5.81751423,3.32841237 6.19491629,2.94919588 6.24621526,2.47975258 L6.24621526,2.47975258 C6.24621526,2.47942268 6.24638021,2.47892784 6.24638021,2.47843299 L6.24638021,2.47843299 C6.24868949,2.4563299 6.25066887,2.43406186 6.25165856,2.41146392 L6.25165856,2.41146392 L6.25165856,1.2883299 C6.22873072,0.740206186 5.78106062,0.311175258 5.23178227,0.311175258 L5.23178227,0.311175258 L0.443658559,0.311175258 Z M6.83458639,2.56453608 C6.73462763,2.56453608 6.6364833,2.57987629 6.54163794,2.61039175 L6.54163794,2.61039175 C6.44085444,3.16478351 6.00143175,3.59331959 5.44671011,3.68239175 L5.44671011,3.68239175 L4.99920495,4.21468041 L5.57075134,4.70342268 C6.26930804,5.30070103 6.35442145,6.35719588 5.76077196,7.05872165 L5.76077196,7.05872165 L5.53495753,7.32527835 L6.35574103,8.04940206 C6.42023588,8.10630928 6.42633897,8.20461856 6.36943175,8.2691134 L6.36943175,8.2691134 C6.31268949,8.33360825 6.21438021,8.33971134 6.14988536,8.28280412 L6.14988536,8.28280412 L3.51598846,5.95884536 L3.2339266,6.24090722 C3.14402969,6.33080412 3.09668949,6.45039175 3.10031835,6.57756701 L3.10031835,6.57756701 C3.10411217,6.70490722 3.15838021,6.82152577 3.25355547,6.90597938 L3.25355547,6.90597938 L9.86468949,12.7825979 C10.2856379,13.1543918 10.8274936,13.3592577 11.3898029,13.3592577 L11.3898029,13.3592577 L14.6292256,13.3533196 C15.0081122,13.3056495 15.2291431,12.9389691 15.2491019,12.9044948 L15.2491019,12.9044948 C15.2492668,12.9035052 15.2492668,12.9026804 15.2492668,12.9018557 L15.2492668,12.9018557 L15.2492668,12.4289485 L11.8382977,12.4289485 C11.2002771,12.4289485 10.5853493,12.1965361 10.1068338,11.7741031 L10.1068338,11.7741031 L7.31557608,9.31125773 C7.25108124,9.25451546 7.2448132,9.15604124 7.30172041,9.09154639 L7.30172041,9.09154639 C7.35879258,9.02738144 7.45693691,9.0211134 7.5215967,9.07802062 L7.5215967,9.07802062 L10.3128544,11.540866 C10.7342977,11.9128247 11.2761534,12.1176907 11.8382977,12.1176907 L11.8382977,12.1176907 L15.2492668,12.1176907 L15.2492668,11.646268 C15.2492668,11.3417732 15.0869575,11.0552577 14.8256792,10.8983918 L14.8256792,10.8983918 L12.9411431,9.76783505 C12.5771019,9.5494433 12.29504,9.20997938 12.1469163,8.81195876 L12.1469163,8.81195876 L11.9733905,8.34548454 L11.3871637,8.34548454 C11.3013905,8.34548454 11.3013905,8.03439175 11.3871637,8.03439175 L11.3871637,8.03439175 L11.8574318,8.03439175 L11.6147926,7.38169072 L11.0140503,7.38169072 C10.9281122,7.38169072 10.8585039,7.31191753 10.8585039,7.22614433 L10.8585039,7.22614433 C10.8585039,7.14004124 10.9281122,7.07059794 11.0140503,7.07059794 L11.0140503,7.07059794 L11.4989988,7.07059794 L10.6411019,6.41789691 C10.5551637,6.41789691 10.4853905,6.34812371 10.4853905,6.26235052 L10.4853905,6.26235052 C10.4853905,6.17624742 10.5551637,6.10680412 10.6411019,6.10680412 L10.6411019,6.10680412 L11.1404008,6.10680412 L10.8477823,5.32065979 L9.33619464,5.32065979 C8.35722557,5.32065979 7.56068949,4.52428866 7.56068949,3.54531959 L7.56068949,3.54531959 L7.56068949,2.56453608 L6.83458639,2.56453608 Z M3.72629773,5.72907216 L5.30155547,7.11925773 L5.52324619,6.85748454 C6.00671011,6.28659794 5.93726681,5.4262268 5.36868949,4.93979381 L5.36868949,4.93979381 L4.79912248,4.45286598 L3.72629773,5.72907216 Z M15.2491019,12.9044948 C15.2476173,13.1552165 15.0336792,13.3529897 14.7824627,13.3529897 L14.7824627,13.3529897 L14.6292256,13.3533196 C14.6038235,13.3564536 14.5779266,13.3581031 14.551205,13.358268 L14.551205,13.358268 C13.3274524,13.364701 10.1523596,13.3592577 10.1523596,13.3592577 L10.1523596,13.3592577 L3.50955547,13.3592577 C3.42345237,13.3592577 3.35384413,13.428866 3.35384413,13.5148041 L3.35384413,13.5148041 C3.35384413,13.6005773 3.42345237,13.6703505 3.50955547,13.6703505 L3.50955547,13.6703505 L11.3898029,13.6703505 L14.4758235,13.6703505 C14.8995761,13.6703505 15.2507513,13.3256082 15.2507513,12.9018557 L15.2507513,12.9018557 C15.2507513,12.9018557 15.2502565,12.9026804 15.2491019,12.9044948 L15.2491019,12.9044948 Z M2.60052454,13.3592577 C2.51458639,13.3592577 2.4448132,13.428866 2.4448132,13.5148041 L2.4448132,13.5148041 C2.4448132,13.6005773 2.51458639,13.6703505 2.60052454,13.6703505 L2.60052454,13.6703505 L2.79780289,13.6703505 C2.88357608,13.6703505 2.95334928,13.6005773 2.95334928,13.5148041 L2.95334928,13.5148041 C2.95334928,13.428866 2.88374103,13.3592577 2.79780289,13.3592577 L2.79780289,13.3592577 L2.60052454,13.3592577 Z" id="Fill-59" fill="url(#linearGradient-13)"></path>
                                <path d="M0.443658559,0.311175258 L0.688277116,0.684948454 C0.870545157,0.963381443 1.17784413,1.12948454 1.51054516,1.12948454 L1.51054516,1.12948454 L1.51664825,1.12948454 L4.9193699,1.12948454 C5.00547299,1.12948454 5.07491629,1.19925773 5.07491629,1.28503093 L5.07491629,1.28503093 C5.07491629,1.37113402 5.00547299,1.44074227 4.9193699,1.44074227 L4.9193699,1.44074227 L1.8044833,1.44074227 L2.04926681,1.81451546 C2.23153485,2.09294845 2.53883382,2.25921649 2.87153485,2.25921649 L2.87153485,2.25921649 L2.90534928,2.25921649 L4.9193699,2.25921649 C5.00547299,2.25921649 5.07491629,2.32882474 5.07491629,2.41476289 L5.07491629,2.41476289 C5.07491629,2.50070103 5.00547299,2.57030928 4.9193699,2.57030928 L4.9193699,2.57030928 L3.19318433,2.57030928 L3.43796784,2.94424742 C3.62007093,3.22235052 3.9273699,3.38861856 4.26023588,3.38861856 L4.26023588,3.38861856 L5.23178227,3.38861856 C5.27104,3.38861856 5.30930804,3.38630928 5.34741114,3.38202062 L5.34741114,3.38202062 C5.34757608,3.38202062 5.34823588,3.38185567 5.34873072,3.38185567 L5.34873072,3.38185567 C5.81751423,3.32841237 6.19491629,2.94919588 6.24621526,2.47975258 L6.24621526,2.47975258 C6.24621526,2.47942268 6.24638021,2.47892784 6.24638021,2.47843299 L6.24638021,2.47843299 C6.24868949,2.4563299 6.25066887,2.43406186 6.25165856,2.41146392 L6.25165856,2.41146392 L6.25165856,1.2883299 C6.22873072,0.740206186 5.78106062,0.311175258 5.23178227,0.311175258 L5.23178227,0.311175258 L0.443658559,0.311175258 Z" id="Fill-62" fill="url(#linearGradient-14)"></path>
                                <path d="M6.83458639,2.56453608 C6.73462763,2.56453608 6.6364833,2.57987629 6.54163794,2.61039175 L6.54163794,2.61039175 C6.44085444,3.16478351 6.00143175,3.59331959 5.44671011,3.68239175 L5.44671011,3.68239175 L4.99920495,4.21468041 L3.51598846,5.95884536 L3.2339266,6.24090722 C3.14402969,6.33080412 3.09668949,6.45039175 3.10031835,6.57756701 L3.10031835,6.57756701 C3.10411217,6.70490722 3.15838021,6.82152577 3.25355547,6.90597938 L3.25355547,6.90597938 L9.86468949,12.7825979 C10.2856379,13.1543918 10.8274936,13.3592577 11.3898029,13.3592577 L11.3898029,13.3592577 L14.7918647,13.3592577 C15.043906,13.3592577 15.2492668,13.1538969 15.2492668,12.9018557 L15.2492668,12.9018557 L15.2492668,12.4289485 L15.2492668,12.1176907 L15.2492668,11.646268 C15.2492668,11.3417732 15.0869575,11.0552577 14.8256792,10.8983918 L14.8256792,10.8983918 L12.9411431,9.76783505 C12.5771019,9.5494433 12.29504,9.20997938 12.1469163,8.81195876 L12.1469163,8.81195876 L11.9733905,8.34548454 L11.3871637,8.34548454 C11.3013905,8.34548454 11.2316173,8.27571134 11.2316173,8.18993814 L11.2316173,8.18993814 C11.2316173,8.10383505 11.3013905,8.03439175 11.3871637,8.03439175 L11.3871637,8.03439175 L11.8574318,8.03439175 L11.6147926,7.38169072 L11.0140503,7.38169072 C10.9281122,7.38169072 10.8585039,7.31191753 10.8585039,7.22614433 L10.8585039,7.22614433 C10.8585039,7.14004124 10.9281122,7.07059794 11.0140503,7.07059794 L11.0140503,7.07059794 L11.4989988,7.07059794 L11.2561946,6.41789691 L10.6411019,6.41789691 C10.5551637,6.41789691 10.4853905,6.34812371 10.4853905,6.26235052 L10.4853905,6.26235052 C10.4853905,6.17624742 10.5551637,6.10680412 10.6411019,6.10680412 L10.6411019,6.10680412 L11.1404008,6.10680412 L10.8477823,5.32065979 L9.33619464,5.32065979 C8.35722557,5.32065979 7.56068949,4.52428866 7.56068949,3.54531959 L7.56068949,3.54531959 L7.56068949,2.56453608 L6.83458639,2.56453608 Z" id="Fill-65" fill="url(#linearGradient-15)"></path>
                            </g>
                        </g>
                    </g>
                </g>
            </g>
        </g>
    </g>
</svg>