<?xml version="1.0" encoding="UTF-8"?>
<svg width="18px" height="25px" viewBox="0 0 18 25" version="1.1" xmlns="http://www.w3.org/2000/svg" xmlns:xlink="http://www.w3.org/1999/xlink">
    <!-- Generator: sketchtool 61 (101010) - https://sketch.com -->
    <title>AF4DEAC3-267D-4224-ACF4-3859B4D65A0D</title>
    <desc>Created with sketchtool.</desc>
    <g id="Application-Management" stroke="none" stroke-width="1" fill="none" fill-rule="evenodd">
        <g id="2010_Application_Management_Status_All" transform="translate(-23.000000, -186.000000)" fill="#FFFFFE">
            <g id="Group-16">
                <g id="Group-14">
                    <g id="Group-11" transform="translate(0.000000, 106.000000)">
                        <g id="Group-8" transform="translate(23.000000, 80.000000)">
                            <path d="M13.5,10.9375 L4.5,10.9375 C4.1445,10.9375 3.85714286,11.2875 3.85714286,11.71875 C3.85714286,12.1507812 4.1445,12.5 4.5,12.5 L13.5,12.5 C13.8555,12.5 14.1428571,12.1507812 14.1428571,11.71875 C14.1428571,11.2875 13.8555,10.9375 13.5,10.9375 L13.5,10.9375 Z M16.7142857,21.875 C16.7142857,22.7375 16.1382857,23.4375 15.4285714,23.4375 L2.57142857,23.4375 C1.86171429,23.4375 1.28571429,22.7375 1.28571429,21.875 L1.28571429,6.25 C1.28571429,5.3875 1.86171429,4.6875 2.57142857,4.6875 L4.5,4.6875 L4.5,7.8125 L13.5,7.8125 L13.5,4.6875 L15.4285714,4.6875 C16.1382857,4.6875 16.7142857,5.3875 16.7142857,6.25 L16.7142857,21.875 L16.7142857,21.875 Z M5.78571429,3.125 L7.21478571,3.125 C7.21478571,2.2625 8.01385714,1.5625 9,1.5625 C9.98614286,1.5625 10.7852143,2.2625 10.7852143,3.125 L12.2142857,3.125 L12.2142857,6.25 L5.78571429,6.25 L5.78571429,3.125 L5.78571429,3.125 Z M15.4285714,3.125 L13.5,3.125 L13.5,1.5625 L11.7687857,1.5625 C11.2114286,0.6328125 10.1867143,0 9,0 C7.81328571,0 6.78857143,0.6328125 6.23121429,1.5625 L4.5,1.5625 L4.5,3.125 L2.57142857,3.125 C1.15135714,3.125 0,4.52421875 0,6.25 L0,21.875 C0,23.6007813 1.15135714,25 2.57142857,25 L15.4285714,25 C16.8486429,25 18,23.6007813 18,21.875 L18,6.25 C18,4.52421875 16.8486429,3.125 15.4285714,3.125 L15.4285714,3.125 Z M13.5,18.75 L4.5,18.75 C4.1445,18.75 3.85714286,19.1 3.85714286,19.53125 C3.85714286,19.9632812 4.1445,20.3125 4.5,20.3125 L13.5,20.3125 C13.8555,20.3125 14.1428571,19.9632812 14.1428571,19.53125 C14.1428571,19.1 13.8555,18.75 13.5,18.75 L13.5,18.75 Z M13.5,14.84375 L4.5,14.84375 C4.1445,14.84375 3.85714286,15.19375 3.85714286,15.625 C3.85714286,16.0570312 4.1445,16.40625 4.5,16.40625 L13.5,16.40625 C13.8555,16.40625 14.1428571,16.0570312 14.1428571,15.625 C14.1428571,15.19375 13.8555,14.84375 13.5,14.84375 L13.5,14.84375 Z" id="Fill-215"></path>
                        </g>
                    </g>
                </g>
            </g>
        </g>
    </g>
</svg>
