<?xml version="1.0" encoding="UTF-8"?>
<svg width="200px" height="130px" viewBox="0 0 200 130" version="1.1" xmlns="http://www.w3.org/2000/svg" xmlns:xlink="http://www.w3.org/1999/xlink">
    <!-- Generator: sketchtool 61 (101010) - https://sketch.com -->
    <title>F37DDDBC-33C5-4941-8E91-8DB7B616E5E8</title>
    <desc>Created with sketchtool.</desc>
    <g id="Responsive" stroke="none" stroke-width="1" fill="none" fill-rule="evenodd">
        <g id="0700_Finished-stage" transform="translate(-56.000000, -65.000000)">
            <g id="Group-4" transform="translate(55.000000, 65.000000)">
                <g id="illus_congratualtion" transform="translate(75.909091, 65.454545)" stroke-width="2.90909091">
                    <path d="M12.2964364,31.2727273 C4.86464646,31.2727273 0.694949495,25.7131313 0.694949495,17.3737374 L0.694949495,6.25454545 L10.4242424,6.25454545" id="Path" stroke="#35B4AC"></path>
                    <path d="M49.3414141,6.25454545 L59.0707071,6.25454545 L59.0707071,17.3737374 C59.0707071,25.7131313 54.9010101,31.2727273 47.4692202,31.2727273" id="Path" stroke="#35B4AC"></path>
                    <line x1="29.8828283" y1="53.5111111" x2="29.8828283" y2="42.3919192" id="Path" stroke="#35B4AC"></line>
                    <path d="M29.8828283,42.3919192 L29.8828283,42.3919192 C19.1361481,42.3919192 10.4242424,33.6800136 10.4242424,22.9333333 L10.4242424,0.694949495 L49.3414141,0.694949495 L49.3414141,22.9333333 C49.3414141,33.6800136 40.6295085,42.3919192 29.8828283,42.3919192 Z" id="Path" stroke="#FFB420" stroke-linecap="square"></path>
                    <path d="M45.1717172,61.8505051 L14.5939394,61.8505051 C14.5939394,57.244785 18.3276132,53.5111111 22.9333333,53.5111111 L36.8323232,53.5111111 C41.4380433,53.5111111 45.1717172,57.244785 45.1717172,61.8505051 Z" id="Path" stroke="#35B4AC" stroke-linecap="square"></path>
                </g>
                <g id="Group-5">
                    <path d="M96.5996446,30.0702295 C96.2594972,29.1400016 96.3394048,28.1956904 96.5557314,27.4221857 C97.0430961,25.6765641 98.2165149,24.4310844 99.3118257,23.4235784 C100.480565,22.3485441 101.768806,21.48115 102.961302,20.4465604 C103.55413,19.9316129 104.119603,19.3689984 104.631444,18.7298279 C105.123488,18.1166575 105.548222,17.3893754 105.69004,16.4371196 C105.82142,15.5541977 105.603654,14.4596633 105.059778,13.6305472 C104.670318,13.0365158 104.152718,12.5475685 103.681551,12.0929268 C103.284532,11.7097856 102.877075,11.3483112 102.436863,11.1265877 C101.795802,10.8041135 101.127745,10.8041135 100.519439,10.8322804 C99.6818485,10.8701972 98.8539764,10.9402532 98.0099068,10.9471144 C97.1204842,10.9546978 96.2227829,10.9193087 95.3196824,10.8478082 C94.9172645,10.8156691 94.5141268,10.7607799 94.1027104,10.6221124 C94.0418798,10.601529 93.9810492,10.5773344 93.9205785,10.5509731 C93.2132878,8.97940809 94.2650453,7.52845491 94.7059772,6.49169867 C94.9705363,5.87022271 95.1397102,5.14510723 94.9683766,4.30804664 C94.7603288,3.29151275 94.0490787,2.43856317 93.5361579,1.60475259 C93.2805974,1.1891112 92.8702608,0.838470205 92.5509901,0.530801687 C92.3857756,0.371189615 92.2166017,0.209771977 92.0420287,0.0747156084 C92.0600259,0.0887990265 91.8433394,-0.0848964633 91.9293661,0.0544932644 C92.5153556,1.00711011 93.2759181,1.91603225 93.3889406,3.09217821 C93.4778469,4.01951713 93.1056644,4.78724397 92.7831542,5.43652566 C92.4430068,6.12191867 92.0913411,6.81778397 92.0632654,7.74223398 C92.0294307,8.87396301 92.7151247,9.74244046 93.412697,10.4848894 C94.2895215,11.4180061 95.1371906,12.173094 96.1536735,12.3922897 C97.0060219,12.5760964 97.8565705,12.5688741 98.6866022,12.5912632 C99.5864632,12.6154577 100.477686,12.5948743 101.361349,12.5403462 C102.051362,12.4973737 102.739216,12.4034843 103.464864,12.5724853 C103.565289,12.5955965 103.667513,12.62593 103.769737,12.6631247 C103.865842,12.8920705 103.932432,13.1336553 103.986064,13.3727123 C104.219308,14.4206631 103.993262,15.3624465 103.628639,16.0983954 C103.248538,16.8664833 102.693863,17.461598 102.150347,18.0141014 C101.587754,18.5861048 100.982328,19.0887745 100.370422,19.5766385 C99.1494907,20.5494777 97.8846461,21.4515387 96.7929348,22.6424903 C95.8153258,23.709219 94.6984183,25.1847278 94.7243343,27.1704898 C94.7347727,27.9996059 95.0576429,28.8908335 95.5579656,29.5686431 C95.8174855,29.9203675 96.1076007,30.2432027 96.4059946,30.5454545" id="Fill-65" fill="#8DE6B2"></path>
                    <path d="M46.2850909,20.6596364 C43.7389091,25.3621818 39.6581818,26.9781818 39.6581818,26.9781818 L35.9090909,23.0465455 C35.9090909,23.0465455 39.9898182,21.4305455 42.536,16.7272727 L46.2850909,20.6596364 Z" id="Fill-103" fill="#FFD27A"></path>
                    <path d="M200.461818,66.4378182 C196.226909,68.8589091 188.015273,70.0007273 188.015273,70.0007273 L187.909091,64.6545455 C187.909091,64.6545455 196.120727,63.5127273 200.356364,61.0909091 L200.461818,66.4378182 Z" id="Fill-15" fill="#FFD27A"></path>
                    <path d="M113.727273,48.2661818 C114.954182,44.5803636 117.669091,42.9090909 117.669091,42.9090909 L120.848,45.248 C120.848,45.248 118.133818,46.9192727 116.905455,50.6050909 L113.727273,48.2661818 Z" id="Fill-125" fill="#86D2CE"></path>
                    <polygon id="Fill-139" fill="#ED98A2" points="46.0909091 93.7650909 48.3789091 90.9090909 50.6843636 94.856"></polygon>
                    <polygon id="Fill-171" fill="#8DE6B2" points="17.8123636 63.5061818 13.3636364 61.7403636 16.7149091 58.1818182"></polygon>
                    <polygon id="Fill-177" fill="#86D2CE" points="160.928 98.4865455 156.636364 96.368 160.263273 93.0909091"></polygon>
                    <polygon id="Fill-177-Copy" fill="#FFD27A" points="142.746182 25.032 138.454545 22.9134545 142.081455 19.6363636"></polygon>
                    <path d="M169.017455,48.8087273 C165.157091,52.9738182 156.845091,55.7512727 156.845091,55.7512727 L156.636364,53.4887273 C156.636364,53.4887273 164.948364,50.7105455 168.808727,46.5454545 L169.017455,48.8087273 Z" id="Fill-192" fill="#8DE6B2"></path>
                    <path d="M41,122.88496 C38.5056391,125.517344 33.1348684,127.272727 33.1348684,127.272727 L33,125.842773 C33,125.842773 38.3707707,124.08693 40.8651316,121.454545 L41,122.88496 Z" id="Fill-192-Copy" fill="#8DE6B2"></path>
                    <path d="M63.0094545,49.5425455 C58.9898182,53.5534545 50.5752727,56.0036364 50.5752727,56.0036364 L50.4545455,53.7345455 C50.4545455,53.7345455 58.8698182,51.2836364 62.8894545,47.2727273 L63.0094545,49.5425455 Z" id="Fill-194" fill="#ED98A2" transform="translate(56.732000, 51.638182) scale(-1, 1) translate(-56.732000, -51.638182) "></path>
                    <g id="Group-55" transform="translate(177.000000, 118.545455)">
                        <path d="M14.3932648,7.27231621 C12.0334229,10.8337391 7.68433202,12.428996 4.32749407,9.16670356 C1.78931225,6.7003004 -0.779541502,3.96543874 0.558007905,0.124806324 C0.425201581,0.506466403 2.80243478,1.78393676 2.65634783,2.2035415 C2.17887747,3.57429249 2.20132806,4.90203953 2.60449012,6.2892332 C2.80211858,6.96875889 3.15626877,7.592 3.53571542,8.18330435 C3.95563636,8.73286957 3.855083,8.65223715 3.23373913,7.94235573 C3.60717787,8.2263083 4.02678261,8.42362055 4.45207905,8.61334387 C7.51516206,9.98156522 10.6848063,7.62330435 12.2949249,5.19389723 C12.2013281,5.3349249 14.5112095,7.0946087 14.3932648,7.27231621" id="Fill-51" fill="#ED98A2"></path>
                        <path d="M0.558039526,0.124648221 C0.425233202,0.5063083 2.8024664,1.78377866 2.65637945,2.2033834 C2.17890909,3.57413439 2.20135968,4.90188142 2.60452174,6.2890751 C2.78918577,6.92433202 3.11234783,7.50931225 3.46301976,8.06583399 C3.29448221,7.97097233 3.11550988,7.86599209 2.92736759,7.75089328 C0.965944664,5.63958893 -0.52970751,3.24781028 0.558039526,0.124648221" id="Fill-53" fill="#F3BEC4"></path>
                    </g>
                    <g id="Group-55-Copy" transform="translate(8.045455, 95.681818) scale(-1, 1) translate(-8.045455, -95.681818) translate(0.545455, 90.181818)">
                        <path d="M14.3932648,7.27231621 C12.0334229,10.8337391 7.68433202,12.428996 4.32749407,9.16670356 C1.78931225,6.7003004 -0.779541502,3.96543874 0.558007905,0.124806324 C0.425201581,0.506466403 2.80243478,1.78393676 2.65634783,2.2035415 C2.17887747,3.57429249 2.20132806,4.90203953 2.60449012,6.2892332 C2.80211858,6.96875889 3.15626877,7.592 3.53571542,8.18330435 C3.95563636,8.73286957 3.855083,8.65223715 3.23373913,7.94235573 C3.60717787,8.2263083 4.02678261,8.42362055 4.45207905,8.61334387 C7.51516206,9.98156522 10.6848063,7.62330435 12.2949249,5.19389723 C12.2013281,5.3349249 14.5112095,7.0946087 14.3932648,7.27231621" id="Fill-51" fill="#FFD27A"></path>
                        <path d="M0.558039526,0.124648221 C0.425233202,0.5063083 2.8024664,1.78377866 2.65637945,2.2033834 C2.17890909,3.57413439 2.20135968,4.90188142 2.60452174,6.2890751 C2.78918577,6.92433202 3.11234783,7.50931225 3.46301976,8.06583399 C3.29448221,7.97097233 3.11550988,7.86599209 2.92736759,7.75089328 C0.965944664,5.63958893 -0.52970751,3.24781028 0.558039526,0.124648221" id="Fill-53" fill="#F8E9CC"></path>
                    </g>
                </g>
            </g>
        </g>
    </g>
</svg>