<?xml version="1.0" encoding="UTF-8"?>
<svg width="60px" height="84px" viewBox="0 0 60 84" version="1.1" xmlns="http://www.w3.org/2000/svg" xmlns:xlink="http://www.w3.org/1999/xlink">
    <!-- Generator: sketchtool 62 (101010) - https://sketch.com -->
    <title>AD2658C4-0E6A-48FA-96D7-5DF2AF560A6A</title>
    <desc>Created with sketchtool.</desc>
    <g id="Page-1" stroke="none" stroke-width="1" fill="none" fill-rule="evenodd">
        <g id="0700_Finished-stage" transform="translate(-872.000000, -401.000000)">
            <g id="Group-4" transform="translate(498.000000, 168.000000)">
                <g id="Group-18" transform="translate(400.500000, 277.500000) rotate(-306.000000) translate(-400.500000, -277.500000) translate(377.000000, 233.000000)">
                    <path d="M0.883353398,0.964931744 C29.0864686,0.964931744 59.8514105,41.0648128 39.0616258,79.9649317" id="Stroke-9" stroke="#000000"></path>
                    <path d="M33.1267111,79.5421595 C33.0540137,79.4565141 33.014384,79.3235089 33.0083908,79.1431429 C33.0001652,78.9332105 33.0521966,78.7571949 33.162779,78.6143592 C33.2733615,78.4715234 33.4094481,78.395182 33.571609,78.3845948 L43.4867467,77.7394789 C43.6483386,77.7288925 43.789348,77.7870857 43.9097737,77.9147977 C44.0301994,78.0425098 44.09424,78.211702 44.1018966,78.4216352 C44.1073654,78.5716931 44.0770317,78.6944516 44.0108976,78.7884322 L43.946972,78.9282425 L39.48602,86.2614028 C39.2876157,86.5448231 39.0729088,86.6944647 38.8419007,86.7095884 C38.6108925,86.7247121 38.3863425,86.6038059 38.1688194,86.3468691 L33.1994084,79.6278048 L33.1267111,79.5421595 Z" id="Fill-11" fill="#000000" transform="translate(38.555036, 82.224553) rotate(-330.000000) translate(-38.555036, -82.224553) "></path>
                    <path d="M27.0880852,14.7239702 C27.0880852,14.7239702 29.5385138,12.5169196 32.9547376,13.3657852 C36.3709615,14.2146508 39.4845299,14.6815269 45.0625787,20.5392301 C49.7758975,25.5910415 43.2893417,30.7696522 38.3598404,31.8307342 C34.7274341,32.5098267 30.0141153,32.2981409 27.2902158,30.0481165 C24.565776,27.7980921 23.2540887,18.3321795 27.0880852,14.7239702" id="Fill-23" fill="#FFD178" opacity="0.703380766"></path>
                </g>
            </g>
        </g>
    </g>
</svg>