<?xml version="1.0" encoding="UTF-8"?>
<svg width="86px" height="58px" viewBox="0 0 86 58" version="1.1" xmlns="http://www.w3.org/2000/svg" xmlns:xlink="http://www.w3.org/1999/xlink">
    <!-- Generator: sketchtool 62 (101010) - https://sketch.com -->
    <title>7D871089-AEE6-4954-8D6D-4B22F57ECD82</title>
    <desc>Created with sketchtool.</desc>
    <defs>
        <rect id="path-1" x="0" y="0" width="86" height="59"></rect>
    </defs>
    <g id="Page-1" stroke="none" stroke-width="1" fill="none" fill-rule="evenodd">
        <g id="0700_Finished-stage" transform="translate(-750.000000, -590.000000)">
            <g id="Group-4" transform="translate(498.000000, 168.000000)">
                <g id="Group-2" transform="translate(59.000000, 260.000000)">
                    <g id="Group-84">
                        <g id="illus_sparrow_point" transform="translate(193.000000, 161.000000)">
                            <mask id="mask-2" fill="white">
                                <use xlink:href="#path-1"></use>
                            </mask>
                            <g id="Mask" opacity="0.400000006"></g>
                            <g id="present" mask="url(#mask-2)" stroke-linecap="round" stroke-linejoin="round" stroke-width="5">
                                <g transform="translate(3.000000, 4.000000)" id="Path">
                                    <path d="M72.8358209,23.8208955 L72.8358209,59.641791 C72.8358209,63.5984579 69.5689103,66.8059701 65.5389718,66.8059701 L14.4610282,66.8059701 C10.4310897,66.8059701 7.1641791,63.5984579 7.1641791,59.641791 L7.1641791,23.8208955" stroke="#34B3AA"></path>
                                    <line x1="40.5970149" y1="23.8208955" x2="40.5970149" y2="66.8059701" stroke="#34B3AA"></line>
                                    <line x1="0" y1="21.4925373" x2="80" y2="21.4925373" stroke="#FFB420"></line>
                                    <path d="M11.956577,10.7462687 C11.6466324,5.14869653 15.9089408,0.349674398 21.501003,0 C35.6207388,0 40.5970149,21.4925373 40.5970149,21.4925373 L21.501003,21.4925373 C15.9070884,21.1466691 11.6426371,16.3452343 11.956577,10.7462687 L11.956577,10.7462687 Z" stroke="#FFB420"></path>
                                    <path d="M59.6930269,21.4925373 L40.5970149,21.4925373 C40.5970149,21.4925373 45.6090916,0 59.6930269,0 C65.285089,0.349674398 69.5473974,5.14869653 69.2374528,10.7462687 C69.5513928,16.3452343 65.2869415,21.1466691 59.6930269,21.4925373 Z" stroke="#FFB420"></path>
                                </g>
                            </g>
                        </g>
                    </g>
                </g>
            </g>
        </g>
    </g>
</svg>